<svg xmlns="http://www.w3.org/2000/svg" xmlns:xlink="http://www.w3.org/1999/xlink" width="500" zoomAndPan="magnify" viewBox="0 0 375 374.999991" height="500" preserveAspectRatio="xMidYMid meet" version="1.0"><defs><g/><clipPath id="f5cb3b2586"><path d="M 110.363281 125.738281 L 156 125.738281 L 156 252 L 110.363281 252 Z M 110.363281 125.738281 " clip-rule="nonzero"/></clipPath><clipPath id="13db61e1e7"><path d="M 196 127 L 242 127 L 242 250.347656 L 196 250.347656 Z M 196 127 " clip-rule="nonzero"/></clipPath><clipPath id="823b448343"><path d="M 256 107 L 264.71875 107 L 264.71875 116 L 256 116 Z M 256 107 " clip-rule="nonzero"/></clipPath></defs><g clip-path="url(#f5cb3b2586)"><path fill="#fffbfa" d="M 110.402344 196.332031 L 110.402344 180.660156 C 113.582031 180.488281 115.984375 180.007812 117.597656 179.222656 C 119.207031 178.4375 120.605469 177.125 121.78125 175.273438 C 122.960938 173.421875 123.765625 171.105469 124.203125 168.316406 C 124.550781 166.230469 124.726562 162.59375 124.726562 157.414062 C 124.726562 148.96875 125.117188 143.078125 125.902344 139.75 C 126.6875 136.417969 128.105469 133.742188 130.152344 131.71875 C 132.203125 129.691406 135.191406 128.09375 139.113281 126.917969 C 141.773438 126.132812 145.957031 125.742188 151.671875 125.742188 L 155.136719 125.742188 L 155.136719 141.351562 C 150.296875 141.351562 147.191406 141.621094 145.816406 142.164062 C 144.445312 142.710938 143.429688 143.535156 142.777344 144.644531 C 142.121094 145.757812 141.796875 147.660156 141.796875 150.359375 C 141.796875 153.101562 141.597656 158.304688 141.207031 165.96875 C 140.988281 170.277344 140.421875 173.769531 139.507812 176.449219 C 138.589844 179.125 137.421875 181.335938 136.007812 183.078125 C 134.589844 184.816406 132.417969 186.625 129.5 188.496094 C 132.070312 189.976562 134.175781 191.707031 135.8125 193.6875 C 137.445312 195.667969 138.699219 198.074219 139.570312 200.90625 C 140.445312 203.734375 141.011719 207.523438 141.273438 212.265625 C 141.578125 219.492188 141.730469 224.105469 141.730469 226.109375 C 141.730469 228.984375 142.078125 230.984375 142.777344 232.117188 C 143.472656 233.25 144.53125 234.109375 145.949219 234.699219 C 147.363281 235.285156 150.429688 235.578125 155.136719 235.578125 L 155.136719 251.25 L 151.671875 251.25 C 145.785156 251.25 141.273438 250.78125 138.132812 249.847656 C 134.992188 248.910156 132.34375 247.355469 130.1875 245.179688 C 128.027344 243 126.578125 240.3125 125.835938 237.113281 C 125.09375 233.914062 124.726562 228.875 124.726562 221.996094 C 124.726562 213.988281 124.375 208.785156 123.679688 206.390625 C 122.71875 202.90625 121.269531 200.414062 119.328125 198.910156 C 117.386719 197.410156 114.414062 196.550781 110.402344 196.332031 " fill-opacity="1" fill-rule="nonzero"/></g><path fill="#fffbfa" d="M 244.835938 135.117188 L 234.597656 135.117188 L 234.597656 124.894531 L 244.835938 124.894531 L 244.835938 135.117188 " fill-opacity="1" fill-rule="nonzero"/><path fill="#fffbfa" d="M 242.417969 155.554688 L 234.597656 155.554688 L 234.597656 147.75 L 242.417969 147.75 L 242.417969 155.554688 " fill-opacity="1" fill-rule="nonzero"/><g clip-path="url(#13db61e1e7)"><path fill="#fffbfa" d="M 212.636719 142.925781 L 212.636719 135.117188 L 220.460938 135.117188 L 220.460938 142.925781 Z M 232.535156 179.433594 C 230.570312 177.933594 229.109375 175.441406 228.152344 171.957031 C 227.625 169.992188 227.308594 166.226562 227.207031 160.667969 L 220.460938 160.667969 L 220.460938 150.445312 L 227.058594 150.445312 C 226.894531 146.503906 226.550781 143.433594 226.023438 141.234375 C 225.261719 138.035156 223.8125 135.335938 221.675781 133.136719 C 219.539062 130.9375 216.902344 129.382812 213.761719 128.46875 C 210.621094 127.550781 206.109375 127.097656 200.222656 127.097656 L 196.757812 127.097656 L 196.757812 142.703125 C 201.683594 142.703125 204.855469 142.996094 206.273438 143.585938 C 207.691406 144.171875 208.671875 145.011719 209.21875 146.097656 C 209.761719 147.1875 210.054688 149.363281 210.101562 152.628906 C 210.316406 162.988281 210.664062 169.695312 211.144531 172.742188 C 211.886719 177.183594 213.28125 180.839844 215.332031 183.710938 C 216.8125 185.714844 219.167969 187.761719 222.394531 189.851562 C 219.910156 191.285156 217.871094 192.953125 216.28125 194.847656 C 214.6875 196.738281 213.414062 199.046875 212.453125 201.769531 C 211.496094 204.488281 210.90625 208.113281 210.6875 212.640625 C 210.339844 220.128906 210.152344 225.199219 210.132812 227.855469 C 210.109375 230.511719 209.761719 232.394531 209.085938 233.503906 C 208.410156 234.613281 207.351562 235.464844 205.914062 236.050781 C 204.476562 236.640625 201.421875 236.933594 196.757812 236.933594 L 196.757812 252.605469 L 200.222656 252.605469 C 205.933594 252.605469 210.121094 252.214844 212.78125 251.429688 C 216.75 250.253906 219.757812 248.65625 221.808594 246.628906 C 223.855469 244.605469 225.261719 241.917969 226.023438 238.566406 C 226.789062 235.210938 227.171875 229.3125 227.171875 220.867188 C 227.171875 215.730469 227.34375 212.117188 227.691406 210.027344 C 228.171875 207.242188 228.992188 204.925781 230.144531 203.074219 C 231.300781 201.222656 232.6875 199.90625 234.300781 199.125 C 235.910156 198.339844 238.3125 197.859375 241.496094 197.6875 L 241.496094 182.015625 C 237.480469 181.796875 234.496094 180.9375 232.535156 179.433594 " fill-opacity="1" fill-rule="nonzero"/></g><g clip-path="url(#823b448343)"><path fill="#fffbfa" d="M 264.796875 115.265625 L 256.972656 115.265625 L 256.972656 107.457031 L 264.796875 107.457031 L 264.796875 115.265625 " fill-opacity="1" fill-rule="nonzero"/></g><path fill="#fffbfa" d="M 225.578125 124.894531 L 210.976562 124.894531 L 210.976562 110.316406 L 225.578125 110.316406 L 225.578125 124.894531 " fill-opacity="1" fill-rule="nonzero"/><g fill="#fffbfa" fill-opacity="1"><g transform="translate(146.439297, 212.600934)"><g><path d="M 31.59375 1.25 C 26.28125 1.25 21.414062 0.0664062 17 -2.296875 C 12.59375 -4.671875 9.078125 -8.109375 6.453125 -12.609375 C 3.828125 -17.109375 2.515625 -22.398438 2.515625 -28.484375 C 2.515625 -34.523438 3.9375 -39.929688 6.78125 -44.703125 C 9.632812 -49.484375 13.519531 -53.210938 18.4375 -55.890625 C 23.351562 -58.578125 28.800781 -59.921875 34.78125 -59.921875 C 38.40625 -59.921875 41.9375 -59.523438 45.375 -58.734375 C 48.8125 -57.953125 51.5625 -57.085938 53.625 -56.140625 L 53.625 -38.125 L 52.796875 -38.125 C 50.671875 -43.539062 47.832031 -48.109375 44.28125 -51.828125 C 40.738281 -55.546875 36.734375 -57.40625 32.265625 -57.40625 C 29.523438 -57.40625 27.007812 -56.617188 24.71875 -55.046875 C 22.425781 -53.484375 20.59375 -51.097656 19.21875 -47.890625 C 17.851562 -44.679688 17.171875 -40.726562 17.171875 -36.03125 C 17.171875 -31.34375 18.117188 -27.082031 20.015625 -23.25 C 21.921875 -19.425781 24.5625 -16.410156 27.9375 -14.203125 C 31.320312 -11.992188 35.164062 -10.890625 39.46875 -10.890625 C 42.875 -10.890625 45.988281 -11.6875 48.8125 -13.28125 C 51.632812 -14.875 53.9375 -17.429688 55.71875 -20.953125 L 56.5625 -20.953125 C 56 -16.648438 54.597656 -12.804688 52.359375 -9.421875 C 50.128906 -6.046875 47.226562 -3.421875 43.65625 -1.546875 C 40.082031 0.316406 36.0625 1.25 31.59375 1.25 Z M 31.59375 1.25 "/></g></g></g></svg>