<svg xmlns="http://www.w3.org/2000/svg" xmlns:xlink="http://www.w3.org/1999/xlink" width="500" zoomAndPan="magnify" viewBox="0 0 375 374.999991" height="500" preserveAspectRatio="xMidYMid meet" version="1.0"><defs><g/><clipPath id="7b36b8d9bf"><path d="M 174 179.984375 L 234.613281 179.984375 L 234.613281 207.257812 L 174 207.257812 Z M 174 179.984375 " clip-rule="nonzero"/></clipPath><clipPath id="eb66b2aecd"><path d="M 193.132812 179.984375 L 227.257812 179.984375 C 229.574219 179.984375 231.734375 181.152344 233.003906 183.089844 C 234.269531 185.03125 234.472656 187.480469 233.542969 189.601562 L 230.023438 197.640625 C 227.464844 203.484375 221.691406 207.257812 215.3125 207.257812 L 181.1875 207.257812 C 178.871094 207.257812 176.707031 206.089844 175.441406 204.148438 C 174.171875 202.210938 173.96875 199.761719 174.898438 197.640625 L 178.421875 189.601562 C 180.980469 183.757812 186.753906 179.984375 193.132812 179.984375 Z M 193.132812 179.984375 " clip-rule="nonzero"/></clipPath><clipPath id="b519129f31"><path d="M 181.070312 190.878906 L 228.320312 190.878906 L 228.320312 238.128906 L 181.070312 238.128906 Z M 181.070312 190.878906 " clip-rule="nonzero"/></clipPath></defs><g clip-path="url(#7b36b8d9bf)"><g clip-path="url(#eb66b2aecd)"><path fill="#0cc0df" d="M 170.6875 179.984375 L 237.757812 179.984375 L 237.757812 207.257812 L 170.6875 207.257812 Z M 170.6875 179.984375 " fill-opacity="1" fill-rule="nonzero"/></g></g><path fill="#100f0d" d="M 204.753906 203.140625 C 205.007812 202.660156 205.148438 202.03125 205.171875 201.277344 C 205.105469 199.75 204.667969 198.5625 203.878906 197.789062 C 203.109375 197.027344 202.167969 196.660156 201.003906 196.660156 C 200.433594 196.648438 199.910156 196.746094 199.445312 196.945312 C 199.003906 197.132812 198.632812 197.40625 198.304688 197.78125 C 197.976562 198.15625 197.714844 198.636719 197.523438 199.210938 C 197.328125 199.796875 197.230469 200.503906 197.230469 201.3125 C 197.230469 202.039062 197.355469 202.644531 197.597656 203.109375 C 197.84375 203.582031 198.152344 203.964844 198.511719 204.25 C 198.886719 204.539062 199.277344 204.742188 199.707031 204.867188 C 200.785156 205.171875 201.597656 205.085938 202.503906 204.871094 C 202.984375 204.757812 203.429688 204.554688 203.8125 204.273438 C 204.195312 203.996094 204.503906 203.625 204.753906 203.140625 " fill-opacity="1" fill-rule="nonzero"/><g clip-path="url(#b519129f31)"><path fill="#100f0d" d="M 216.289062 224.089844 L 222.617188 230.453125 L 220.460938 232.585938 L 214.132812 226.226562 L 211.34375 235.605469 L 201.648438 211.527344 L 225.714844 221.382812 Z M 200.890625 207.308594 C 200.207031 207.308594 199.507812 207.191406 198.8125 206.96875 C 198.097656 206.734375 197.441406 206.371094 196.871094 205.878906 C 196.296875 205.390625 195.820312 204.761719 195.460938 204.003906 C 195.101562 203.242188 194.921875 202.339844 194.921875 201.3125 C 194.921875 200.292969 195.058594 199.351562 195.335938 198.515625 C 195.609375 197.671875 196.011719 196.933594 196.527344 196.320312 C 197.058594 195.699219 197.699219 195.214844 198.445312 194.882812 C 199.917969 194.21875 201.894531 194.222656 203.484375 194.867188 C 204.289062 195.1875 204.992188 195.65625 205.582031 196.265625 C 206.167969 196.871094 206.632812 197.609375 206.960938 198.453125 C 207.289062 199.308594 207.445312 200.261719 207.425781 201.292969 C 207.425781 201.296875 207.425781 201.316406 207.425781 201.320312 C 207.382812 202.367188 207.167969 203.28125 206.777344 204.042969 C 206.386719 204.800781 205.882812 205.433594 205.277344 205.917969 C 204.671875 206.398438 203.976562 206.753906 203.207031 206.980469 C 202.460938 207.195312 201.683594 207.308594 200.890625 207.308594 Z M 194.414062 195.839844 C 194.402344 195.898438 194.378906 195.957031 194.351562 196.007812 C 194.210938 196.3125 193.941406 196.519531 193.605469 196.574219 C 193.457031 196.597656 193.246094 196.613281 192.976562 196.617188 C 192.964844 196.878906 192.953125 197.128906 192.949219 197.375 C 192.9375 197.796875 192.933594 198.214844 192.933594 198.632812 C 192.933594 198.84375 192.933594 199.054688 192.941406 199.261719 L 192.949219 201.796875 C 192.949219 202.015625 192.941406 202.242188 192.933594 202.480469 C 192.910156 203.292969 192.789062 204.019531 192.570312 204.628906 C 192.347656 205.25 192.058594 205.769531 191.710938 206.183594 C 191.347656 206.613281 190.929688 206.933594 190.460938 207.140625 C 190 207.34375 189.523438 207.449219 189.054688 207.449219 C 188.621094 207.449219 188.175781 207.390625 187.71875 207.273438 C 187.214844 207.148438 186.746094 206.898438 186.328125 206.53125 C 185.90625 206.160156 185.5625 205.644531 185.308594 204.996094 C 185.058594 204.371094 184.933594 203.554688 184.933594 202.578125 C 184.933594 201.792969 185.441406 201.441406 185.945312 201.441406 C 186.332031 201.441406 186.574219 201.582031 186.710938 201.703125 C 186.910156 201.878906 187.03125 202.132812 187.082031 202.484375 C 187.089844 203.265625 187.160156 203.796875 187.304688 204.164062 C 187.441406 204.511719 187.601562 204.765625 187.777344 204.921875 C 187.949219 205.074219 188.125 205.167969 188.3125 205.207031 C 188.894531 205.328125 189.355469 205.316406 189.695312 205.101562 C 189.890625 204.980469 190.066406 204.753906 190.21875 204.433594 C 190.398438 204.058594 190.535156 203.554688 190.628906 202.925781 C 190.726562 202.277344 190.777344 201.453125 190.777344 200.480469 C 190.777344 200 190.769531 199.523438 190.75 199.050781 C 190.730469 198.566406 190.71875 198.046875 190.71875 197.492188 C 190.71875 197.246094 190.722656 196.988281 190.730469 196.730469 L 190.730469 196.664062 L 190.328125 196.660156 C 189.878906 196.660156 189.613281 196.449219 189.472656 196.277344 C 189.300781 196.070312 189.210938 195.820312 189.210938 195.5625 C 189.210938 195.042969 189.550781 194.65625 190.125 194.53125 C 190.445312 194.460938 190.917969 194.425781 191.566406 194.425781 C 191.890625 194.425781 192.191406 194.425781 192.46875 194.433594 C 192.769531 194.4375 193.03125 194.457031 193.257812 194.488281 C 193.546875 194.527344 193.777344 194.601562 193.964844 194.710938 C 194.269531 194.882812 194.445312 195.1875 194.445312 195.535156 C 194.445312 195.644531 194.4375 195.746094 194.414062 195.839844 Z M 209.226562 204.84375 C 209.289062 204.0625 209.335938 203.273438 209.371094 202.480469 C 209.414062 201.503906 209.4375 200.535156 209.4375 199.578125 L 209.429688 198.082031 C 209.425781 197.792969 209.417969 197.488281 209.402344 197.175781 C 209.296875 197.125 209.195312 197.054688 209.105469 196.96875 C 208.886719 196.761719 208.769531 196.492188 208.769531 196.195312 C 208.769531 195.9375 208.871094 195.695312 209.066406 195.46875 C 209.21875 195.292969 209.4375 195.152344 209.722656 195.035156 C 209.742188 195.023438 209.761719 195.015625 209.78125 195.007812 C 211.402344 194.339844 213.28125 194.167969 214.902344 194.5625 C 215.5 194.707031 216.035156 194.929688 216.492188 195.230469 C 216.972656 195.550781 217.363281 195.960938 217.652344 196.457031 C 217.949219 196.96875 218.097656 197.570312 218.097656 198.253906 C 218.097656 198.597656 218.027344 198.941406 217.890625 199.28125 C 217.765625 199.589844 217.585938 199.894531 217.355469 200.1875 C 217.148438 200.453125 216.902344 200.699219 216.621094 200.921875 C 216.882812 201.140625 217.113281 201.386719 217.308594 201.65625 C 217.507812 201.953125 217.660156 202.25 217.761719 202.558594 C 217.875 202.890625 217.929688 203.226562 217.929688 203.5625 C 217.929688 203.957031 217.882812 204.320312 217.796875 204.644531 C 217.695312 204.976562 217.554688 205.269531 217.371094 205.523438 C 217.203125 205.765625 216.980469 205.992188 216.71875 206.1875 C 216.484375 206.363281 216.214844 206.527344 215.910156 206.6875 C 215.613281 206.839844 215.171875 206.945312 214.519531 207.015625 C 213.730469 207.101562 212.542969 207.136719 211.492188 207.09375 C 211.347656 207.089844 211.203125 207.085938 211.058594 207.078125 C 211.027344 207.109375 210.992188 207.140625 210.953125 207.167969 C 210.714844 207.34375 210.421875 207.363281 210.222656 207.363281 C 209.894531 207.363281 209.621094 207.25 209.433594 207.054688 C 209.394531 207.050781 209.351562 207.046875 209.3125 207.035156 C 209.007812 206.964844 208.769531 206.824219 208.617188 206.621094 C 208.46875 206.429688 208.386719 206.183594 208.386719 205.914062 C 208.386719 205.394531 208.699219 205 209.226562 204.84375 Z M 226.675781 219.046875 L 217.992188 215.492188 C 220.359375 214.035156 221.953125 211.445312 221.953125 208.46875 L 221.953125 199.148438 C 221.953125 194.582031 218.238281 190.878906 213.660156 190.878906 L 189.371094 190.878906 C 184.792969 190.878906 181.078125 194.582031 181.078125 199.148438 L 181.078125 208.46875 C 181.078125 213.035156 184.792969 216.738281 189.371094 216.738281 L 201.019531 216.738281 L 208.996094 236.546875 C 209.382812 237.507812 210.316406 238.132812 211.34375 238.132812 C 211.382812 238.132812 211.421875 238.132812 211.464844 238.128906 C 212.539062 238.078125 213.464844 237.355469 213.773438 236.324219 L 215.347656 231.027344 L 218.667969 234.363281 C 219.160156 234.859375 219.8125 235.109375 220.460938 235.109375 C 221.105469 235.109375 221.75 234.867188 222.246094 234.378906 L 224.398438 232.246094 C 225.390625 231.265625 225.398438 229.664062 224.414062 228.675781 L 221.09375 225.335938 L 226.414062 223.808594 C 227.449219 223.511719 228.183594 222.589844 228.242188 221.519531 C 228.300781 220.445312 227.671875 219.453125 226.675781 219.046875 " fill-opacity="1" fill-rule="nonzero"/></g><path fill="#100f0d" d="M 211.632812 202.582031 C 211.601562 203.355469 211.546875 204.160156 211.460938 204.976562 C 212.363281 205.007812 213.148438 204.980469 213.835938 204.902344 C 214.292969 204.847656 214.6875 204.753906 215.003906 204.628906 C 215.277344 204.519531 215.484375 204.378906 215.625 204.210938 C 215.734375 204.078125 215.789062 203.902344 215.789062 203.675781 C 215.789062 203.097656 215.589844 202.722656 215.144531 202.460938 C 214.609375 202.140625 213.835938 201.972656 212.851562 201.957031 L 212.285156 201.957031 C 212.042969 201.957031 211.832031 201.90625 211.65625 201.816406 C 211.648438 202.074219 211.640625 202.328125 211.632812 202.582031 " fill-opacity="1" fill-rule="nonzero"/><path fill="#100f0d" d="M 215.117188 196.945312 C 214.820312 196.78125 214.480469 196.65625 214.101562 196.574219 C 213.378906 196.421875 212.589844 196.410156 211.972656 196.527344 C 211.859375 196.550781 211.75 196.574219 211.644531 196.605469 C 211.660156 197.023438 211.667969 197.4375 211.675781 197.855469 C 211.683594 198.429688 211.6875 199.003906 211.6875 199.578125 C 211.6875 199.683594 211.6875 199.792969 211.6875 199.902344 C 211.726562 199.886719 211.761719 199.875 211.800781 199.863281 C 212.019531 199.804688 212.308594 199.777344 212.695312 199.777344 L 213.175781 199.777344 C 213.53125 199.777344 213.898438 199.738281 214.257812 199.660156 C 214.609375 199.582031 214.921875 199.46875 215.191406 199.320312 C 215.4375 199.183594 215.640625 199.015625 215.792969 198.820312 C 215.914062 198.664062 215.972656 198.484375 215.972656 198.253906 C 215.972656 197.960938 215.902344 197.71875 215.761719 197.519531 C 215.59375 197.28125 215.386719 197.09375 215.117188 196.945312 " fill-opacity="1" fill-rule="nonzero"/><g fill="#000000" fill-opacity="1"><g transform="translate(120.827449, 204.599603)"><g><path d="M 17.234375 -15.609375 L 6.90625 -15.609375 L 6.90625 -11.734375 L 16.21875 -11.734375 L 16.21875 -7.828125 L 6.90625 -7.828125 L 6.90625 -3.90625 L 17.53125 -3.90625 L 17.53125 0 L 1.953125 0 L 1.953125 -19.515625 L 17.234375 -19.515625 Z M 17.234375 -15.609375 "/></g></g></g><g fill="#000000" fill-opacity="1"><g transform="translate(138.02922, 204.599603)"><g><path d="M 8.671875 -15.25 C 10.734375 -15.25 12.332031 -14.769531 13.46875 -13.8125 C 14.613281 -12.851562 15.195312 -11.519531 15.21875 -9.8125 L 15.21875 0 L 10.515625 0 L 10.515625 -1.734375 C 9.523438 -0.429688 7.988281 0.21875 5.90625 0.21875 C 4.332031 0.21875 3.078125 -0.210938 2.140625 -1.078125 C 1.210938 -1.953125 0.75 -3.085938 0.75 -4.484375 C 0.75 -5.921875 1.242188 -7.03125 2.234375 -7.8125 C 3.234375 -8.601562 4.660156 -9.007812 6.515625 -9.03125 L 10.484375 -9.03125 L 10.484375 -9.25 C 10.484375 -10 10.234375 -10.582031 9.734375 -11 C 9.242188 -11.414062 8.515625 -11.625 7.546875 -11.625 C 6.191406 -11.625 4.695312 -11.207031 3.0625 -10.375 L 1.703125 -13.546875 C 4.140625 -14.679688 6.460938 -15.25 8.671875 -15.25 Z M 7.390625 -3.03125 C 8.148438 -3.03125 8.816406 -3.222656 9.390625 -3.609375 C 9.972656 -3.992188 10.335938 -4.488281 10.484375 -5.09375 L 10.484375 -6.4375 L 7.4375 -6.4375 C 5.988281 -6.4375 5.265625 -5.898438 5.265625 -4.828125 C 5.265625 -4.265625 5.453125 -3.820312 5.828125 -3.5 C 6.203125 -3.1875 6.722656 -3.03125 7.390625 -3.03125 Z M 7.390625 -3.03125 "/></g></g></g><g fill="#000000" fill-opacity="1"><g transform="translate(153.167876, 204.599603)"><g><path d="M 7.296875 -15.25 C 9.515625 -15.25 11.578125 -14.679688 13.484375 -13.546875 L 11.84375 -10.421875 C 9.988281 -11.429688 8.410156 -11.9375 7.109375 -11.9375 C 6.117188 -11.9375 5.625 -11.59375 5.625 -10.90625 C 5.625 -10.53125 5.894531 -10.21875 6.4375 -9.96875 C 6.976562 -9.71875 7.640625 -9.488281 8.421875 -9.28125 C 9.203125 -9.070312 9.976562 -8.816406 10.75 -8.515625 C 11.519531 -8.210938 12.171875 -7.722656 12.703125 -7.046875 C 13.242188 -6.378906 13.515625 -5.5625 13.515625 -4.59375 C 13.515625 -3.09375 12.925781 -1.921875 11.75 -1.078125 C 10.582031 -0.234375 9.0625 0.1875 7.1875 0.1875 C 4.53125 0.1875 2.285156 -0.515625 0.453125 -1.921875 L 1.984375 -4.984375 C 3.742188 -3.742188 5.515625 -3.125 7.296875 -3.125 C 8.398438 -3.125 8.953125 -3.46875 8.953125 -4.15625 C 8.953125 -4.539062 8.6875 -4.863281 8.15625 -5.125 C 7.625 -5.382812 6.976562 -5.613281 6.21875 -5.8125 C 5.457031 -6.019531 4.691406 -6.273438 3.921875 -6.578125 C 3.160156 -6.890625 2.515625 -7.367188 1.984375 -8.015625 C 1.460938 -8.671875 1.203125 -9.492188 1.203125 -10.484375 C 1.203125 -11.984375 1.765625 -13.148438 2.890625 -13.984375 C 4.023438 -14.828125 5.492188 -15.25 7.296875 -15.25 Z M 7.296875 -15.25 "/></g></g></g><g fill="#000000" fill-opacity="1"><g transform="translate(165.880973, 204.599603)"><g><path d="M 16.359375 -15.03125 L 9.875 1.5625 C 8.75 4.269531 6.8125 5.625 4.0625 5.625 C 2.46875 5.625 1.007812 5.113281 -0.3125 4.09375 L 1.703125 0.8125 C 2.367188 1.34375 3.023438 1.609375 3.671875 1.609375 C 4.535156 1.609375 5.160156 1.210938 5.546875 0.421875 L 5.90625 -0.328125 L -0.328125 -15.03125 L 4.625 -15.03125 L 8.3125 -5.046875 L 11.5625 -15.03125 Z M 16.359375 -15.03125 "/></g></g></g></svg>