<?xml version="1.0" encoding="UTF-8"?>
<svg id="Layer_1" data-name="Layer 1" xmlns="http://www.w3.org/2000/svg" viewBox="0 0 426.67 175.83">
  <defs>
    <style>
      .cls-1 {
        fill: #fff;
        stroke-width: 0px;
      }
    </style>
  </defs>
  <g>
    <path class="cls-1" d="m249.86,33.39s12.31-.71,23.55,7.48v-7.28s15.53-5.82,15.53-5.82l-39.07-16.49-39.07,16.49,15.53,5.82v7.28c11.24-8.19,23.55-7.48,23.55-7.48Z"/>
    <rect class="cls-1" x="228.74" y="115.78" width="42.4" height="4.87" rx=".47" ry=".47"/>
    <rect class="cls-1" x="234.78" y="122.95" width="30.32" height="4.87" rx=".47" ry=".47"/>
    <path class="cls-1" d="m240.61,130.17c1.69,3.39,5.19,5.73,9.24,5.73s7.55-2.34,9.24-5.73h-18.48Z"/>
    <path class="cls-1" d="m262.38,100.08c10.65-4.78,18.06-15.48,18.06-27.91,0-16.89-13.69-30.58-30.58-30.58s-30.58,13.69-30.58,30.58c0,12.49,7.49,23.24,18.23,27.99l.03,7.08v8.55h-4.87v-10.68c-11.77-6.19-19.8-18.54-19.8-32.76,0-20.44,16.57-37,37-37s37,16.57,37,37c0,14.13-7.93,26.41-19.57,32.64v10.79h-4.87v-8.62l-.03-7.07Z"/>
  </g>
  <path class="cls-1" d="m20.49,83.57c1.66,5.88,6.62,8.64,13.43,8.64,5.24,0,10.94-1.66,10.94-6.44,0-4.32-4.6-6.43-11.22-7.72l-7.45-1.47c-10.02-1.93-18.66-6.8-18.66-17.28,0-13.15,13.7-19.03,26.02-19.03,9.93,0,19.68,3.86,23.54,13.33l-13.15,4.78c-1.66-4.14-5.88-6.43-11.68-6.43s-9.83,2.11-9.83,5.88c0,3.13,2.76,5.42,6.99,6.25l8.27,1.66c9.93,2.03,22.07,5.15,22.07,17.84s-13.24,20.31-25.93,20.31c-13.43,0-22.81-5.7-26.57-15.54l13.24-4.78Z"/>
  <path class="cls-1" d="m74.27,72.07c0-19.4,12.05-31.81,31.08-31.81,11.58,0,20.5,5.61,25.19,14.25l-12.87,4.69c-2.76-4.97-7.81-6.99-12.78-6.99-8.55,0-15.26,7.36-15.26,19.86s6.71,19.86,15.45,19.86c4.6,0,10.21-1.56,13.06-6.89l12.78,4.69c-4.97,8.73-14.34,14.16-25.93,14.16-19.12,0-30.71-12.23-30.71-31.81Z"/>
  <path class="cls-1" d="m146.9,102.78v-61.42h14.53v23.45h25.29v-23.45h14.53v61.42h-14.53v-25.19h-25.29v25.19h-14.53Z"/>
  <path class="cls-1" d="m328.94,40.26c18.85,0,32,12.69,32,31.81s-13.15,31.81-32,31.81-31.81-12.69-31.81-31.81,12.97-31.81,31.81-31.81Zm0,51.67c9.01,0,16.55-6.8,16.55-19.86s-7.54-19.86-16.55-19.86-16.46,6.8-16.46,19.86,7.54,19.86,16.46,19.86Z"/>
  <path class="cls-1" d="m421.33,90v12.78h-43.95v-61.42h14.53v48.64h29.42Z"/>
  <path class="cls-1" d="m297.13,163.04v-39.34h9.31v15.02h16.2v-15.02h9.31v39.34h-9.31v-16.14h-16.2v16.14h-9.31Z"/>
  <path class="cls-1" d="m342.83,123.7h9.31v22.91c0,5.83,1.12,9.54,7.66,9.54s7.6-3.71,7.6-9.54v-22.91h9.31v22.15c0,12.13-4.71,17.9-16.9,17.9s-16.96-5.77-16.96-17.9v-22.15Z"/>
  <path class="cls-1" d="m404.78,123.7c8.54,0,14.96,2,14.96,10.25,0,3.59-1.71,6.36-4.65,8.19,3.65,1.24,6.24,4.01,6.24,8.77,0,8.84-6.36,12.13-15.9,12.13h-17.84v-39.34h17.2Zm-7.89,7.6v7.95h8.19c3.12,0,5.01-1.59,5.01-4.01s-1.89-3.94-5.01-3.94h-8.19Zm0,15.14v8.89h8.6c4.01,0,6.01-1.71,6.01-4.47s-2-4.42-6.01-4.42h-8.6Z"/>
</svg>