<?xml version="1.0" encoding="utf-8"?>
<!-- Generator: Adobe Illustrator 24.1.1, SVG Export Plug-In . SVG Version: 6.00 Build 0)  -->
<svg version="1.1" id="svg3087" xmlns:svg="http://www.w3.org/2000/svg"
	 xmlns="http://www.w3.org/2000/svg" xmlns:xlink="http://www.w3.org/1999/xlink" x="0px" y="0px" viewBox="0 0 682.7 682.7"
	 style="enable-background:new 0 0 682.7 682.7;" xml:space="preserve">
<path d="M341.3,126.8c-57.3,0-111.2,22.3-151.7,62.8c-40.5,40.5-62.8,94.4-62.8,151.7s22.3,111.2,62.8,151.7
	c40.5,40.5,94.4,62.8,151.7,62.8c57.3,0,111.2-22.3,151.7-62.8c40.5-40.5,62.8-94.4,62.8-151.7c0-57.3-22.3-111.2-62.8-151.7
	C452.5,149.1,398.6,126.8,341.3,126.8z M341.3,526.8c-102.3,0-185.5-83.2-185.5-185.5c0-102.3,83.2-185.5,185.5-185.5
	c102.3,0,185.5,83.2,185.5,185.5C526.8,443.6,443.6,526.8,341.3,526.8z"/>
<path d="M431.1,271.1L321.3,380.8l-69.7-69.7c-2.7-2.7-6.4-4.2-10.3-4.2s-7.5,1.5-10.3,4.2s-4.2,6.4-4.2,10.3s1.5,7.5,4.2,10.3
	l80,80c2.7,2.7,6.4,4.2,10.3,4.2s7.5-1.5,10.3-4.2l120-120c5.7-5.7,5.7-14.9,0-20.5C445.9,265.4,436.7,265.4,431.1,271.1z"/>
<path d="M645,341.1l28.1-68c10.3-24.9,1.1-53.1-21.8-67.2l-0.1-0.1l-71.6-42.9l-16.2-67.1c-6.3-26.1-30.4-43.6-57.2-41.5l-81.8,6.3
	l-47.6-42c-20.5-17.4-50.2-17.4-70.7,0l-0.2,0.2l-47.4,41.8l-81.8-6.3c-26.5-2-50.5,15.2-57,40.9l-0.1,0.3L97,166.8l-65.6,38.9
	C8.5,219.9-0.6,248.1,9.6,273l28.1,68l-28.1,68c-10.3,24.9-1.1,53.1,21.8,67.2l0.2,0.1l71.5,42.6l16.3,67.4
	c5.9,24.6,27.7,41.7,52.9,41.7c1.4,0,2.9-0.1,4.3-0.2l81-6.3l48.4,42.5c9.9,8.4,22.5,13.1,35.3,13.1c12.9,0,25.4-4.6,35.3-13.1
	l0.1-0.1l48.3-42.4l81,6.3c26.8,2.1,50.9-15.4,57.2-41.5l16.2-67.1l71.8-43c22.9-14.1,32.1-42.3,21.8-67.2L645,341.1z M636.2,451.5
	l-76.8,46c-3.3,2-5.7,5.3-6.6,9l-17.6,73c-3,12.2-14.2,20.4-26.8,19.4l-87.1-6.7c-3.9-0.3-7.8,1-10.7,3.6l-52.8,46.3
	c-4.8,4-10.6,6-16.4,6s-11.7-2-16.4-6l-0.1-0.1l-52.7-46.3c-2.9-2.6-6.8-3.9-10.7-3.6l-87.1,6.7c-12.6,1-23.8-7.2-26.8-19.4
	l-17.7-73.3c-0.9-3.8-3.3-7.1-6.7-9.1l-76.7-45.7c-10.6-6.6-14.9-19.8-10.1-31.4l30.4-73.6c1.5-3.6,1.5-7.5,0-11.1L36.4,262
	c-4.8-11.6-0.5-24.8,10.1-31.4l0.1-0.1l70-41.6c3.1-1.8,5.4-4.7,6.4-8.1l24.3-77.4c0.1-0.3,0.2-0.6,0.3-0.9
	c3-12.2,14.2-20.4,26.8-19.4l88,6.8c3.9,0.3,7.8-1,10.7-3.6l51.9-45.8c9.5-8,23.3-8,32.8,0l0.1,0.1l51.8,45.7
	c2.9,2.6,6.8,3.9,10.7,3.6l88-6.8c12.6-1,23.8,7.2,26.8,19.4l17.6,73c0.9,3.8,3.3,7.1,6.6,9l76.7,45.9c10.7,6.7,15,19.9,10.2,31.4
	l-30.4,73.6c-1.5,3.6-1.5,7.5,0,11.1l30.4,73.6C651.1,431.7,646.8,444.9,636.2,451.5z"/>
</svg>
