<?xml version="1.0"?>
<svg xmlns="http://www.w3.org/2000/svg" id="Layer_1" data-name="Layer 1" viewBox="0 0 512 512"><path d="M423.571,164.75a7,7,0,0,1,0,9.9q-7.1,7.1-14.137,14.239-7.116,7.19-14.261,14.36a15.845,15.845,0,0,1-22.373,0c-2.327-2.327-4.69-4.99-6.975-7.564-2.327-2.623-4.732-5.334-7.125-7.728a7,7,0,1,1,9.9-9.9c2.688,2.687,5.235,5.558,7.7,8.334,2.248,2.533,4.371,4.925,6.4,6.958a1.848,1.848,0,0,0,2.574,0q7.137-7.136,14.209-14.309,7.08-7.153,14.191-14.289A7,7,0,0,1,423.571,164.75Zm-3.164,95.979V458.273A44.777,44.777,0,0,1,375.681,503H84.646A44.777,44.777,0,0,1,39.92,458.273V102.565A44.777,44.777,0,0,1,84.646,57.839h59.359V57.1a13.753,13.753,0,0,1,13.737-13.737h25.7A35.674,35.674,0,0,1,219.048,9h22.231a35.674,35.674,0,0,1,35.61,34.358h25.7A13.752,13.752,0,0,1,316.322,57.1v.744h59.359a44.777,44.777,0,0,1,44.726,44.726v7.275a80.912,80.912,0,0,1,0,150.889ZM316.322,71.839V90.283h40.5a31.277,31.277,0,0,1,26.258,14.46q3.978-.4,8.06-.4a81,81,0,0,1,15.271,1.464v-3.239a30.761,30.761,0,0,0-30.726-30.726ZM158.005,106.685H302.322V57.358H269.911a7,7,0,0,1-7-7V44.632A21.656,21.656,0,0,0,241.279,23H219.048a21.656,21.656,0,0,0-21.632,21.632v5.726a7,7,0,0,1-7,7H158.005Zm-.263,14a13.753,13.753,0,0,1-13.737-13.737v-2.665h-40.5a17.165,17.165,0,0,0-17.145,17.145V439.411a17.165,17.165,0,0,0,17.145,17.145H356.818a17.165,17.165,0,0,0,17.145-17.145V264.377a80.941,80.941,0,0,1-6.648-156.456,17.1,17.1,0,0,0-10.5-3.638h-40.5v2.665a13.752,13.752,0,0,1-13.736,13.737ZM406.407,264.764a81,81,0,0,1-15.271,1.465c-1.064,0-2.119-.04-3.173-.081V439.411a31.181,31.181,0,0,1-31.145,31.145H103.509a31.181,31.181,0,0,1-31.145-31.145V121.428a31.181,31.181,0,0,1,31.145-31.145h40.5V71.839H84.646A30.761,30.761,0,0,0,53.92,102.565V458.273A30.761,30.761,0,0,0,84.646,489H375.681a30.761,30.761,0,0,0,30.726-30.727Zm51.673-79.48a66.945,66.945,0,1,0-66.944,66.945A67.02,67.02,0,0,0,458.08,185.284ZM185.141,226.932v42.907a14.066,14.066,0,0,1-14.049,14.049H128.185a14.065,14.065,0,0,1-14.049-14.049V226.932a14.065,14.065,0,0,1,14.049-14.05h42.907A14.066,14.066,0,0,1,185.141,226.932Zm-14,0-42.956-.05h0l-.044,42.957,42.956.049ZM195.97,328.193h72.394a7,7,0,1,0,0-14H195.97a7,7,0,0,0,0,14Zm0,19.137H340.76a7,7,0,0,0,0-14H195.97a7,7,0,1,0,0,14Zm0-101.513h30.718a7,7,0,0,0,0-14H195.97a7,7,0,0,0,0,14Zm0,19.137h61.438a7,7,0,0,0,0-14H195.97a7,7,0,1,0,0,14Zm-55.384-3.541a7,7,0,0,0,9.9,0l16.159-16.158a7,7,0,0,0-9.9-9.9l-11.209,11.208-3-3a7,7,0,0,0-9.9,9.9Zm44.555,47.895v42.907a14.066,14.066,0,0,1-14.049,14.049H128.185a14.065,14.065,0,0,1-14.049-14.049V309.308a14.065,14.065,0,0,1,14.049-14.049h42.907A14.066,14.066,0,0,1,185.141,309.308Zm-14,0-42.956-.049h0l-.044,42.956,42.956.049Zm14,82.376v42.907a14.066,14.066,0,0,1-14.049,14.049H128.185a14.065,14.065,0,0,1-14.049-14.049V391.684a14.065,14.065,0,0,1,14.049-14.049h42.907A14.066,14.066,0,0,1,185.141,391.684Zm-14,0-42.956-.049h0l-.044,42.956,42.956.049Zm24.829,18.885h72.394a7,7,0,0,0,0-14H195.97a7,7,0,1,0,0,14Zm0,19.137H340.76a7,7,0,0,0,0-14H195.97a7,7,0,0,0,0,14Zm-55.385-3.54a7,7,0,0,0,9.9,0l16.159-16.159a7,7,0,0,0-9.9-9.9l-11.208,11.209-3-3a7,7,0,1,0-9.9,9.9Zm-12.4-296.013h42.907a14.066,14.066,0,0,1,14.049,14.05V187.11a14.066,14.066,0,0,1-14.049,14.049H128.185a14.065,14.065,0,0,1-14.049-14.049V144.2A14.065,14.065,0,0,1,128.185,130.153Zm0,14h0l-.044,42.957,42.956.049.049-42.956Zm67.785,18.936h30.718a7,7,0,0,0,0-14H195.97a7,7,0,1,0,0,14Zm0,19.137h61.438a7,7,0,0,0,0-14H195.97a7,7,0,0,0,0,14Zm-55.384-3.541a7,7,0,0,0,9.9,0l16.159-16.159a7,7,0,0,0-9.9-9.9l-11.209,11.208-3-3a7,7,0,0,0-9.9,9.9Zm0,165.105a7,7,0,0,0,9.9,0l16.159-16.158a7,7,0,0,0-9.9-9.9l-11.209,11.208-3-3a7,7,0,0,0-9.9,9.9Z"/></svg>
