<svg id="Layer_1" enable-background="new 0 0 512 512" height="512" viewBox="0 0 512 512" width="512" xmlns="http://www.w3.org/2000/svg"><g id="_x33_7_Positive_Experience"><g><g><path d="m401.481 338.28c0-16.949-13.67-31.332-31.332-31.332h-71.467c-3.385 0-5.745-3.526-4.25-6.621 13.232-27.462 33.795-43.689 36.152-47.281 5.707-8.68 8.722-18.727 8.722-29.054 0-11.417-3.774-22.703-10.632-31.792-6.378-8.421-19.609-9.971-27.308-.742l-30.738 36.535c-8.128 9.66-17.539 17.59-27.98 23.577-29.058 16.738-43.531 38.179-50.57 53.254-1.922 4.176-6.281 6.875-11.106 6.875h-11.238c-3.127-12.612-14.457-22.023-28.024-22.023h-133.71c-4.418 0-8 3.582-8 8v191.236c0 4.418 3.582 8 8 8h133.71c13.565 0 24.894-9.41 28.023-22.02h4.461c8.175 0 16.265 1.219 24.051 3.625l42.398 13.063c9.32 2.879 19 4.34 28.769 4.34h80.758c12.902 0 23.992-8.832 26.367-21.019 1.204-6.254.061-12.545-2.973-17.923 10.255-4.663 17.438-14.97 17.438-26.971 0-6.597-2.246-12.634-5.91-17.56 9.714-5.341 16.39-15.566 16.39-27.432 0-9.282-4.135-17.543-10.568-23.284 6.904-6.108 10.567-14.559 10.567-23.451zm-246.815 129.675c0 7.145-5.813 12.956-12.956 12.956h-125.71v-175.237h125.71c7.145 0 12.956 5.813 12.956 12.956zm165.112-114.273c-4.418 0-8 3.582-8 8s3.582 8 8 8h49.562c7.637 0 14.712 5.222 15.932 12.761 1.559 9.628-5.831 17.978-15.124 17.978h-50.37c-4.418 0-8 3.582-8 8s3.582 8 8 8h40.925c6.766 0 13.033 4.628 14.113 11.308 1.38 8.534-5.166 15.934-13.402 15.934h-41.636c-4.418 0-8 3.582-8 8 0 4.417 3.582 8 8 8h31.159c3.02 0 5.855 1.336 7.781 3.672 1.961 2.371 2.711 5.406 2.11 8.524-.898 4.597-5.48 8.062-10.661 8.062h-80.757c-8.136 0-16.225-1.218-24-3.613l-42.478-13.087c-9.311-2.869-18.998-4.327-28.74-4.327h-3.527v-131.196h10.305c11.046 0 21.109-6.351 25.621-16.14 6.047-12.953 18.598-31.469 44.027-46.113 12.062-6.918 22.91-16.051 32.25-27.152l30.758-36.558c.636-.768 1.723-.627 2.281.113 4.839 6.41 7.398 14.07 7.398 22.145 0 9.497-4.531 18.252-11.072 24.968-14.324 14.703-24.87 29.238-32.123 44.229-6.657 13.76 3.284 29.76 18.57 29.76h71.467c8.619 0 15.331 7.04 15.331 15.331 0 8.361-6.838 15.402-15.331 15.402h-50.37v-.001z"/><path d="m265.876 106.642c1.781 1.73 2.593 4.23 2.175 6.676l-3.34 19.437c-3.29 19.219 16.913 33.899 34.171 24.793l17.406-9.176c2.195-1.156 4.832-1.16 7.027.004l17.351 9.164c17.214 9.1 37.454-5.528 34.187-24.742l-3.305-19.492c0-.004 0-.004 0-.004-.414-2.437.394-4.926 2.168-6.652l14.043-13.692c13.956-13.609 6.245-37.317-13.031-40.136l-19.472-2.844c-2.457-.356-4.574-1.899-5.671-4.121l-8.699-17.644c-8.644-17.517-33.576-17.468-42.195-.035l-8.762 17.691c-1.094 2.215-3.211 3.754-5.66 4.109l-19.441 2.836c-19.296 2.819-26.987 26.565-13.007 40.156zm1.266-37.992 19.441-2.84c7.652-1.117 14.266-5.922 17.688-12.843l8.762-17.691c2.759-5.584 10.74-5.595 13.503.016l8.703 17.644c3.425 6.945 10.047 11.758 17.707 12.878l19.472 2.844c6.174.897 8.66 8.467 4.172 12.847l-14.043 13.692c-5.531 5.399-8.062 13.168-6.769 20.781l3.305 19.496c1.051 6.164-5.422 10.849-10.941 7.917l-17.351-9.164c-6.879-3.63-15.08-3.637-21.965-.008l-17.402 9.171c-5.543 2.929-11.99-1.772-10.941-7.934l3.34-19.437c1.308-7.645-1.23-15.438-6.789-20.848l-14.056-13.675c-4.476-4.342-2.045-11.943 4.164-12.846z"/><path d="m506.167 189.457c11.427-11.14 5.115-30.556-10.672-32.859l-14.121-2.059c-1.063-.152-1.981-.825-2.457-1.789l-6.309-12.796c-7.078-14.342-27.485-14.302-34.547-.027l-6.356 12.832c-.473.957-1.39 1.625-2.453 1.777l-14.094 2.059c-15.796 2.302-22.104 21.739-10.656 32.875l10.192 9.914c.774.754 1.129 1.839.945 2.898l-2.418 14.097c-2.683 15.683 13.819 27.756 27.973 20.301l12.625-6.656c.954-.507 2.09-.507 3.051 0l12.578 6.645c14.097 7.462 30.667-4.516 27.992-20.257l-2.399-14.137c-.176-1.059.176-2.137.941-2.887zm-11.172-11.453-10.187 9.934c-4.523 4.418-6.594 10.777-5.539 17.012v.004l2.398 14.137c.46 2.689-2.343 4.689-4.746 3.429l-12.578-6.645c-5.625-2.976-12.351-2.969-17.984-.008l-12.625 6.656c-2.418 1.27-5.199-.768-4.739-3.442l2.418-14.101c1.067-6.258-1.008-12.633-5.559-17.063l-10.196-9.918c-1.961-1.907-.866-5.181 1.808-5.575l14.097-2.055c6.262-.918 11.675-4.848 14.48-10.516l6.356-12.832c1.197-2.418 4.645-2.45 5.855.008l6.309 12.796c2.809 5.688 8.226 9.629 14.5 10.547l14.121 2.059c2.697.394 3.761 3.671 1.811 5.573z"/><path d="m143.6 199.382c.774.754 1.129 1.839.945 2.898l-2.418 14.097c-2.699 15.78 13.879 27.724 27.973 20.301l12.625-6.656c.954-.507 2.09-.507 3.051 0l12.578 6.645c14.095 7.466 30.667-4.516 27.992-20.257l-2.399-14.137c-.176-1.059.176-2.137.941-2.887l10.183-9.929c11.427-11.14 5.115-30.556-10.672-32.859l-14.121-2.059c-1.063-.152-1.981-.825-2.457-1.789l-6.309-12.796c-7.078-14.342-27.485-14.302-34.547-.027l-6.356 12.832c-.473.957-1.39 1.625-2.453 1.777l-14.094 2.059c-15.796 2.302-22.104 21.739-10.656 32.875zm2.773-26.955 14.097-2.055c6.262-.918 11.68-4.848 14.48-10.516l6.356-12.832c1.197-2.418 4.645-2.45 5.855.008l6.309 12.796c2.809 5.688 8.226 9.629 14.5 10.547l14.121 2.059c2.694.391 3.759 3.669 1.808 5.57l-10.187 9.934c-4.523 4.418-6.594 10.777-5.539 17.012v.004l2.399 14.137c.461 2.696-2.353 4.686-4.746 3.429l-12.578-6.645c-5.625-2.976-12.351-2.969-17.984-.008l-12.625 6.656c-2.426 1.271-5.199-.774-4.739-3.442l2.418-14.101c1.067-6.258-1.008-12.633-5.559-17.063l-10.196-9.917c-1.96-1.907-.864-5.18 1.81-5.573z"/></g></g></g></svg>