<?xml version="1.0" encoding="utf-8"?>
<!-- Generator: Adobe Illustrator 24.1.1, SVG Export Plug-In . SVG Version: 6.00 Build 0)  -->
<svg version="1.1" id="Capa_1" xmlns="http://www.w3.org/2000/svg" xmlns:xlink="http://www.w3.org/1999/xlink" x="0px" y="0px"
	 viewBox="0 0 512 512" style="enable-background:new 0 0 512 512;" xml:space="preserve">
<g>
	<g>
		<path d="M85.2,310.1c-3.3,0-6.4-1.7-8.2-4.4c-6.7-10.3-15.7-19.3-26-26c-2.8-1.8-4.4-4.9-4.4-8.2c0-3.3,1.7-6.4,4.4-8.2
			c10.4-6.8,19.2-15.6,26-26c1.8-2.8,4.9-4.4,8.2-4.4c0,0,0,0,0,0c3.3,0,6.4,1.7,8.2,4.4c6.8,10.4,15.5,19.1,26,26
			c2.8,1.8,4.4,4.9,4.4,8.2s-1.7,6.4-4.4,8.2c-10.3,6.7-19.2,15.7-25.9,26C91.5,308.4,88.5,310.1,85.2,310.1
			C85.2,310.1,85.2,310.1,85.2,310.1z M65.4,271.5c7.4,5.7,14,12.3,19.7,19.7c5.7-7.5,12.3-14.1,19.7-19.7
			c-7.5-5.7-14-12.3-19.7-19.7C79.5,259.3,72.9,265.9,65.4,271.5z M111.1,275.9C111.1,275.9,111.1,275.9,111.1,275.9
			C111.1,275.9,111.1,275.9,111.1,275.9z M111.1,267.1C111.1,267.1,111.1,267.1,111.1,267.1C111.1,267.1,111.1,267.1,111.1,267.1z"
			/>
	</g>
	<g>
		<path d="M147.3,248c-3.1,0-6-1.6-7.7-4.2c-4.9-7.5-11.5-14-18.9-18.9c-2.6-1.7-4.2-4.6-4.2-7.7c0-3.1,1.6-6,4.2-7.7
			c7.6-5,14-11.3,18.9-18.9c1.7-2.6,4.6-4.2,7.7-4.2c0,0,0,0,0,0c3.1,0,6,1.6,7.7,4.2c5,7.6,11.3,14,18.9,18.9
			c2.6,1.7,4.2,4.6,4.2,7.7c0,3.1-1.6,6-4.2,7.7l0,0c-7.5,4.9-14,11.4-18.9,18.9C153.3,246.4,150.4,248,147.3,248z M152.1,235.6
			C152.1,235.6,152.1,235.6,152.1,235.6C152.1,235.6,152.1,235.6,152.1,235.6z M135.5,217.2c4.3,3.5,8.2,7.4,11.8,11.8
			c3.5-4.3,7.4-8.3,11.7-11.8c-4.3-3.5-8.2-7.4-11.7-11.8C143.8,209.7,139.9,213.7,135.5,217.2z"/>
	</g>
	<g>
		<path d="M419.1,232.4c-3.1,0-6-1.6-7.7-4.2c-4.9-7.5-11.5-14.1-18.9-18.9c-2.6-1.7-4.2-4.6-4.2-7.7s1.6-6,4.2-7.7
			c7.6-5,14-11.3,18.9-18.9c1.7-2.6,4.6-4.2,7.7-4.2c0,0,0,0,0,0c3.1,0,6,1.6,7.7,4.2c5,7.6,11.3,14,18.9,18.9
			c2.6,1.7,4.2,4.6,4.2,7.7c0,3.1-1.6,6-4.2,7.7c-7.5,4.9-14,11.4-18.9,18.9C425.1,230.9,422.2,232.4,419.1,232.4
			C419.1,232.4,419.1,232.4,419.1,232.4z M407.3,201.6c4.3,3.5,8.2,7.4,11.8,11.8c3.5-4.3,7.4-8.3,11.7-11.8
			c-4.3-3.5-8.2-7.4-11.7-11.8C415.6,194.2,411.6,198.1,407.3,201.6z M437.5,196.8C437.5,196.8,437.5,196.8,437.5,196.8
			C437.5,196.8,437.5,196.8,437.5,196.8C437.5,196.8,437.5,196.8,437.5,196.8z"/>
	</g>
	<g>
		<path d="M147.3,512c-29.8,0-54.1-24.3-54.1-54.1s24.3-54.1,54.1-54.1c29.8,0,54.1,24.3,54.1,54.1S177.1,512,147.3,512z
			 M147.3,418.8c-21.6,0-39.1,17.5-39.1,39.1s17.5,39.1,39.1,39.1c21.6,0,39.1-17.5,39.1-39.1S168.8,418.8,147.3,418.8z"/>
	</g>
	<g>
		<path d="M147.3,480.9c-12.7,0-23-10.3-23-23s10.3-23,23-23c12.7,0,23,10.3,23,23S160,480.9,147.3,480.9z M147.3,449.9
			c-4.4,0-8,3.6-8,8s3.6,8,8,8s8-3.6,8-8S151.7,449.9,147.3,449.9z"/>
	</g>
	<g>
		<path d="M380.3,512c-29.8,0-54.1-24.3-54.1-54.1s24.3-54.1,54.1-54.1s54.1,24.3,54.1,54.1S410.1,512,380.3,512z M380.3,418.8
			c-21.6,0-39.1,17.5-39.1,39.1s17.5,39.1,39.1,39.1s39.1-17.5,39.1-39.1S401.8,418.8,380.3,418.8z"/>
	</g>
	<g>
		<path d="M380.3,480.9c-12.7,0-23-10.3-23-23s10.3-23,23-23s23,10.3,23,23S392.9,480.9,380.3,480.9z M380.3,449.9c-4.4,0-8,3.6-8,8
			s3.6,8,8,8s8-3.6,8-8S384.7,449.9,380.3,449.9z"/>
	</g>
	<g>
		<path d="M26.1,434.3H24c-4.1,0-7.5-3.4-7.5-7.5s3.4-7.5,7.5-7.5h2.1c6,0,11.7-2.3,15.9-6.6l4.5-4.5v-20.5H24
			c-4.1,0-7.5-3.4-7.5-7.5s3.4-7.5,7.5-7.5h30.1c4.1,0,7.5,3.4,7.5,7.5v31.1c0,2-0.8,3.9-2.2,5.3l-6.7,6.7
			C45.6,430.4,36.2,434.3,26.1,434.3z"/>
	</g>
	<g>
		<path d="M75.7,418.8H54.1c-4.1,0-7.5-3.4-7.5-7.5s3.4-7.5,7.5-7.5h21.6c9.2,0,16.7-7.1,17.4-16.1h-39c-4.1,0-7.5-3.4-7.5-7.5
			s3.4-7.5,7.5-7.5h44.1c5.5,0,10,4.5,10,10v3.6C108.2,404.2,93.6,418.8,75.7,418.8z"/>
	</g>
	<g>
		<path d="M284.6,341.2h-92.3c-3.9,0-7.3-2.2-9-5.7s-1.2-7.5,1.2-10.6l23.8-29.8c7.9-9.9,19.7-15.5,32.4-15.5h43.9
			c5.5,0,10,4.5,10,10v41.6C294.6,336.7,290.1,341.2,284.6,341.2z M202.7,326.2h76.9v-31.6h-38.9c-8.1,0-15.6,3.6-20.6,9.9
			L202.7,326.2z M284.6,294.6L284.6,294.6L284.6,294.6z"/>
	</g>
	<g>
		<path d="M447.6,341.2h-127c-5.5,0-10-4.5-10-10v-41.6c0-5.5,4.5-10,10-10h101.2c11.4,0,21.5,7.3,25.1,18.1v0l10.1,30.4
			c1,3,0.5,6.4-1.4,9S450.8,341.2,447.6,341.2z M442.8,332.7L442.8,332.7L442.8,332.7z M325.6,326.2h115l-7.9-23.8c0,0,0,0,0,0
			c-1.6-4.7-5.9-7.8-10.9-7.8h-96.2V326.2z"/>
	</g>
	<g>
		<path d="M380.3,341.2c-4.1,0-7.5-3.4-7.5-7.5v-46.6c0-4.1,3.4-7.5,7.5-7.5s7.5,3.4,7.5,7.5v46.6
			C387.8,337.8,384.4,341.2,380.3,341.2z"/>
	</g>
	<g>
		<path d="M287.1,372.2h-15.5c-4.1,0-7.5-3.4-7.5-7.5s3.4-7.5,7.5-7.5h15.5c4.1,0,7.5,3.4,7.5,7.5S291.2,372.2,287.1,372.2z"/>
	</g>
	<g>
		<path d="M426.8,372.2h-15.5c-4.1,0-7.5-3.4-7.5-7.5s3.4-7.5,7.5-7.5h15.5c4.1,0,7.5,3.4,7.5,7.5S431,372.2,426.8,372.2z"/>
	</g>
	<g>
		<path d="M488,434.3h-20.1c-9.6,0-17.5-7.9-17.5-17.5v-26.6c0-9.6,7.9-17.5,17.5-17.5H488c4.1,0,7.5,3.4,7.5,7.5s-3.4,7.5-7.5,7.5
			h-20.1c-1.4,0-2.5,1.1-2.5,2.5v26.6c0,1.4,1.1,2.5,2.5,2.5H488c4.1,0,7.5,3.4,7.5,7.5S492.1,434.3,488,434.3z"/>
	</g>
	<g>
		<path d="M245,216.9c-6,0-11.7-2.3-15.9-6.6l-62.7-62.7c-4.9-4.9-4.9-12.8,0-17.7l25.9-25.9c2.4-2.4,5.5-3.7,8.8-3.7
			s6.5,1.3,8.8,3.7l35.1,35.1l57.1-57.1c2.4-2.4,5.5-3.7,8.8-3.7c3.3,0,6.5,1.3,8.8,3.7l25.9,25.9c2.4,2.4,3.7,5.5,3.7,8.8
			s-1.3,6.5-3.7,8.8l-33.1,33.1c-2.9,2.9-7.7,2.9-10.6,0c-2.9-2.9-2.9-7.7,0-10.6l31.4-31.4l-22.3-22.3l-57.1,57.1
			c-2.4,2.4-5.5,3.7-8.8,3.7s-6.5-1.3-8.8-3.7l-35.1-35.1l-22.3,22.3l61,61c1.4,1.4,3.3,2.2,5.3,2.2s3.9-0.8,5.3-2.2l26-26
			c2.9-2.9,7.7-2.9,10.6,0c2.9,2.9,2.9,7.7,0,10.6l-26,26C256.7,214.6,251,216.9,245,216.9z"/>
	</g>
	<g>
		<path d="M29.4,365.7c-2.9,0-5.6-1.6-6.8-4.4C7.6,328.1,0,292.7,0,256c0-64.1,23.8-125.4,67-172.7c2.8-3.1,7.5-3.3,10.6-0.5
			c3.1,2.8,3.3,7.5,0.5,10.6C37.4,138,15,195.7,15,256c0,34.6,7.2,67.9,21.3,99.2c1.7,3.8,0,8.2-3.7,9.9
			C31.5,365.5,30.5,365.7,29.4,365.7z"/>
	</g>
	<g>
		<path d="M488.1,352.3c-0.9,0-1.8-0.2-2.7-0.5c-3.9-1.5-5.8-5.8-4.3-9.7c10.5-27.5,15.9-56.5,15.9-86.2c0-132.9-108.1-241-241-241
			c-55.8,0-110.2,19.5-153.2,55c-3.2,2.6-7.9,2.2-10.6-1c-2.6-3.2-2.2-7.9,1-10.6C138.9,20.7,196.7,0,256,0
			c68.4,0,132.7,26.6,181,75s75,112.6,75,181c0,31.5-5.7,62.3-16.8,91.5C494,350.5,491.2,352.3,488.1,352.3z"/>
	</g>
	<g>
		<path d="M256,512c-26.8,0-53.2-4.1-78.5-12.3c-3.9-1.3-6.1-5.5-4.8-9.4s5.5-6.1,9.4-4.8c23.8,7.7,48.6,11.5,73.9,11.5
			c29.3,0,58-5.2,85.2-15.5c3.9-1.5,8.2,0.5,9.7,4.4c1.5,3.9-0.5,8.2-4.4,9.7C317.6,506.5,287.2,512,256,512z"/>
	</g>
	<g>
		<path d="M484,465.4h-56.1c-4.1,0-7.5-3.4-7.5-7.5s3.4-7.5,7.5-7.5h53.6v-89c0-7.3-1.2-14.5-3.5-21.3l-15.8-47.5
			c-5.8-17.4-22-29.1-40.3-29.1H240.6c-17.6,0-33.9,7.9-44.9,21.6l-38.8,48.5c-3.7,4.6-8.9,7.5-14.8,8.3l-87.5,10.9
			c-13.7,1.7-24.1,13.4-24.1,27.3v70.3h69.2c4.1,0,7.5,3.4,7.5,7.5s-3.4,7.5-7.5,7.5H28c-6.9,0-12.5-5.6-12.5-12.5v-72.8
			c0-21.4,16-39.5,37.2-42.2l87.5-10.9c1.9-0.2,3.7-1.2,4.9-2.8l38.8-48.5c13.8-17.3,34.5-27.2,56.6-27.2h181.2
			c24.8,0,46.7,15.8,54.5,39.3l15.8,47.5c2.8,8.4,4.2,17.2,4.2,26.1v91.5C496.5,459.8,490.9,465.4,484,465.4z"/>
	</g>
	<g>
		<path d="M332.7,465.4H264c-4.1,0-7.5-3.4-7.5-7.5s3.4-7.5,7.5-7.5h68.7c4.1,0,7.5,3.4,7.5,7.5S336.8,465.4,332.7,465.4z"/>
	</g>
	<g>
		<path d="M229,465.4h-34.1c-4.1,0-7.5-3.4-7.5-7.5s3.4-7.5,7.5-7.5H229c4.1,0,7.5,3.4,7.5,7.5S233.1,465.4,229,465.4z"/>
	</g>
</g>
</svg>
