<svg width="353" height="318" viewBox="0 0 353 318" fill="none" xmlns="http://www.w3.org/2000/svg">
<path d="M352.078 0H0V317.982H352.078V0Z" fill="#FDFDFD"/>
<path d="M91.2837 79.7749C112.439 57.0991 142.554 42.9062 175.949 42.9062C209.344 42.9062 237.282 56.0853 258.288 77.3597C241.367 71.4858 226.116 68.2655 205.781 68.4743C184.253 68.6979 169.538 75.3321 143.553 85.9768C119.446 95.8462 104.731 84.0238 91.2986 79.7749H91.2837Z" fill="#73BF9C"/>
<path d="M61.02 144.12C62.8985 129.42 67.535 115.57 74.3779 103.106C83.4721 107.549 112.737 123.993 134.027 112.022C162.189 96.1889 169.24 85.1269 202.352 84.3964C222.807 83.9491 250.492 90.4492 273.644 96.6064C281.71 109.264 287.405 123.591 290.073 138.961C286.57 137.262 279.593 133.833 271.632 129.748C258.602 123.054 230.678 110.501 205.349 108.265C140.989 102.987 178.752 179.87 108.354 164.022C95.4287 161.115 75.7943 152.886 61.02 144.12Z" fill="#217B8F"/>
<path d="M66.2679 196.493C63.1968 187.459 61.1991 177.932 60.4238 168.063C68.9813 172.326 96.8452 185.371 123.159 188.055C154.735 191.29 165.782 181.003 173.534 160.4C181.838 138.305 188.115 129.181 212.803 129.763C226.37 130.195 245.706 138.335 266.831 151.529C277.148 158.029 285.631 162.502 291.654 164.962C291.147 174.846 289.418 184.402 286.6 193.496C277.118 190.574 270.976 186.579 261.509 179.453C237.954 161.712 213.728 153.542 205.453 173.802C197.194 194.078 177.068 209.642 146.669 214.055C117.926 218.215 84.7097 203.023 66.2679 196.493Z" fill="#73BF9C"/>
<path d="M279.131 211.819C259.929 249.374 220.913 275.091 175.949 275.091C130.985 275.091 94.1616 250.79 74.4229 214.95C88.407 219.527 111.619 233.049 155.331 228.442C202.77 223.448 212.207 198.193 221.539 186.997C231.454 175.577 244.021 192.468 256.664 201.711C266.533 208.852 273.242 210.82 279.131 211.819Z" fill="#217B8F"/>
</svg>
