<svg xmlns="http://www.w3.org/2000/svg" viewBox="0 0 235.83 38.48"><defs><style>.cls-1{fill:#0594ce;}</style></defs><g id="OBJECTS"><path class="cls-1" d="M178.34,18.67a1.85,1.85,0,0,0-.78-1,2.88,2.88,0,0,0-3.15.26,3.31,3.31,0,0,0-.89,1.41h4.94A2,2,0,0,0,178.34,18.67Zm0,0a1.85,1.85,0,0,0-.78-1,2.88,2.88,0,0,0-3.15.26,3.31,3.31,0,0,0-.89,1.41h4.94A2,2,0,0,0,178.34,18.67Zm0,0a1.85,1.85,0,0,0-.78-1,2.88,2.88,0,0,0-3.15.26,3.31,3.31,0,0,0-.89,1.41h4.94A2,2,0,0,0,178.34,18.67Zm0,0a1.85,1.85,0,0,0-.78-1,2.88,2.88,0,0,0-3.15.26,3.31,3.31,0,0,0-.89,1.41h4.94A2,2,0,0,0,178.34,18.67Zm0,0a1.85,1.85,0,0,0-.78-1,2.88,2.88,0,0,0-3.15.26,3.31,3.31,0,0,0-.89,1.41h4.94A2,2,0,0,0,178.34,18.67Zm0,0a1.85,1.85,0,0,0-.78-1,2.88,2.88,0,0,0-3.15.26,3.31,3.31,0,0,0-.89,1.41h4.94A2,2,0,0,0,178.34,18.67Zm-8-9.08-1,5.07h-5.66L160.82,28.9l23.54-.16,4.2-19.41-3.84,0m-33.16.23a2.4,2.4,0,0,1-2-1C147.73,6,142-.56,132.21.73a18.24,18.24,0,0,0,2.44,36.33A18.5,18.5,0,0,0,149,29.88a2.34,2.34,0,0,1,1.87-.91l5.72,0H154.3l2.84-14.27h-5.66l1-5.07M134.57,24.91a6.08,6.08,0,1,1,6-6.12A6.08,6.08,0,0,1,134.57,24.91Zm49.49-3.8c-.07.45-.15.87-.24,1.27H173.26a1.89,1.89,0,0,0,.67,1.18,3.58,3.58,0,0,0,2.22.59,6,6,0,0,0,1.71-.26,5.27,5.27,0,0,0,1.57-.79l2.6,3.78a9.79,9.79,0,0,1-3.22,1.46,13.79,13.79,0,0,1-3.38.42,10.31,10.31,0,0,1-4.34-.86,6.72,6.72,0,0,1-2.91-2.43,6.5,6.5,0,0,1-1.05-3.69,8.52,8.52,0,0,1,1.16-4.45,8.26,8.26,0,0,1,3.27-3.09,10.27,10.27,0,0,1,4.92-1.13,9.18,9.18,0,0,1,4.14.86,6.23,6.23,0,0,1,2.62,2.34,6.49,6.49,0,0,1,.91,3.45A10,10,0,0,1,184.06,21.11Zm-6.5-3.4a2.88,2.88,0,0,0-3.15.26,3.31,3.31,0,0,0-.89,1.41h4.94a2,2,0,0,0-.12-.71A1.85,1.85,0,0,0,177.56,17.71Zm.78,1a1.85,1.85,0,0,0-.78-1,2.88,2.88,0,0,0-3.15.26,3.31,3.31,0,0,0-.89,1.41h4.94A2,2,0,0,0,178.34,18.67Zm0,0a1.85,1.85,0,0,0-.78-1,2.88,2.88,0,0,0-3.15.26,3.31,3.31,0,0,0-.89,1.41h4.94A2,2,0,0,0,178.34,18.67Zm55.93,6.25L219.72,25a1.39,1.39,0,0,1-1.39-1.37l-.07-10.3A1.38,1.38,0,0,1,219.63,12l14.83-.11a1.36,1.36,0,0,0,1.22-2A18.22,18.22,0,0,0,219.34,0,17.84,17.84,0,0,0,204.5,7.78a3.48,3.48,0,0,1-2.83,1.46l-6.86,0-1.87,8.63,4.65-4.09h7.67l-7.57,6.83,4.76,8h.23a3.45,3.45,0,0,1,2.7,1.23,18.27,18.27,0,0,0,30.12-2.92A1.37,1.37,0,0,0,234.27,24.92Zm-41.54-.39L191.2,26l-.59,2.72,4.56,0Zm-14.39-5.86a1.85,1.85,0,0,0-.78-1,2.88,2.88,0,0,0-3.15.26,3.31,3.31,0,0,0-.89,1.41h4.94A2,2,0,0,0,178.34,18.67Zm0,0a1.85,1.85,0,0,0-.78-1,2.88,2.88,0,0,0-3.15.26,3.31,3.31,0,0,0-.89,1.41h4.94A2,2,0,0,0,178.34,18.67Z"/></g><g id="TEXTS"><path class="cls-1" d="M33.61,3H22.1L0,37.68H12.34l3.47-6.05,4.83-8.42,5.08-8.87,1.7,8.87L29,31.63l1.16,6.05H41.84ZM30.83,23.21h-16l-4.66,8.42H32.12Z"/><path class="cls-1" d="M71.68,3,67.91,21.87a11.76,11.76,0,0,1-2.26,5.52,5.08,5.08,0,0,1-4,1.61,4.39,4.39,0,0,1-3.91-1.73c-.8-1.16-.94-3-.45-5.4L61.07,3H49.37L45.55,22.07a14.7,14.7,0,0,0,.52,8.6,11.55,11.55,0,0,0,5.13,5.75,18.09,18.09,0,0,0,9,2q8,0,12.74-4.06t6.29-11.85L83.18,3Z"/><path class="cls-1" d="M84.67,3l-1.84,9.07H93l-5.1,25.63h11.7l5.1-25.63h10.16L116.69,3Z"/></g></svg>