<svg width="198" height="43" viewBox="0 0 198 43" fill="none" xmlns="http://www.w3.org/2000/svg">
<path d="M5.58627 7.15444C9.41738 3.04636 14.8692 0.479492 20.9162 0.479492C26.9631 0.479492 32.0201 2.86536 35.8238 6.71841C32.7578 5.65711 29.9989 5.07297 26.3159 5.11137C22.419 5.1525 19.7534 6.35367 15.0475 8.27882C10.6844 10.0669 8.01602 7.92506 5.58627 7.15719V7.15444Z" fill="#FBFF06"/>
<path d="M0.106949 18.807C0.447004 16.1442 1.28617 13.6376 2.52573 11.3834C4.17116 12.1897 9.47218 15.1651 13.3252 12.9959C18.4233 10.1274 19.7013 8.12545 25.6961 7.99382C29.4011 7.91155 34.4114 9.09077 38.6045 10.2042C40.0662 12.4968 41.0973 15.0911 41.58 17.8719C40.9437 17.562 39.6822 16.9449 38.2425 16.2045C35.8813 14.9924 30.8298 12.7189 26.2418 12.3131C14.5867 11.3587 21.4262 25.279 8.67963 22.4105C6.33764 21.884 2.78351 20.3921 0.106949 18.807Z" fill="#FBFF06"/>
<path d="M1.05581 28.2897C0.499106 26.6552 0.137119 24.9303 0 23.1422C1.54944 23.9156 6.59268 26.274 11.3589 26.7622C17.0768 27.3463 19.0787 25.4842 20.4801 21.7546C21.9829 17.7535 23.121 16.1026 27.5883 16.2068C30.0455 16.2863 33.5448 17.759 37.3704 20.1476C39.238 21.3241 40.7737 22.1358 41.8652 22.5801C41.7747 24.3708 41.4593 26.1013 40.9492 27.7467C39.2325 27.2174 38.1191 26.4934 36.4051 25.2045C32.1379 21.9905 27.7529 20.5123 26.2555 24.1816C24.7582 27.8509 21.1163 30.6728 15.6096 31.4709C10.4073 32.225 4.39056 29.4744 1.05308 28.2924L1.05581 28.2897Z" fill="#FBFF06"/>
<path d="M39.5972 31.0654C36.1199 37.8637 29.0555 42.5203 20.9162 42.5203C12.7768 42.5203 6.10729 38.1215 2.53397 31.6303C5.06519 32.4585 9.26925 34.9074 17.1838 34.0737C25.7729 33.1688 27.4814 28.5972 29.1735 26.5706C30.9697 24.5028 33.2459 27.5606 35.533 29.2335C37.3211 30.5279 38.5359 30.8816 39.6 31.0626L39.5972 31.0654Z" fill="#FBFF06"/>
<path d="M61.9559 10.4014C62.902 10.4014 63.7111 10.4233 64.3857 10.4672C65.0603 10.5111 65.6746 10.5796 66.2231 10.6756C66.7743 10.7716 67.3337 10.906 67.9041 11.0733L67.4379 13.3878C66.8236 13.3302 66.2477 13.2809 65.7075 13.2452C65.1672 13.2068 64.6023 13.1794 64.0127 13.1602C63.4203 13.141 62.7156 13.13 61.8956 13.13C60.8864 13.13 60.0225 13.2562 59.304 13.514C58.5855 13.769 57.9685 14.2051 57.4584 14.8221C56.9456 15.4391 56.5178 16.2975 56.175 17.3999C55.8295 18.5024 55.547 19.901 55.3248 21.593C55.0259 23.6937 54.9464 25.3419 55.0863 26.5375C55.2261 27.7332 55.6347 28.5779 56.3094 29.0715C56.9867 29.5651 57.9685 29.8229 59.2602 29.8421C60.6451 29.8421 61.7969 29.8119 62.7156 29.7516C63.637 29.6913 64.5447 29.6117 65.4442 29.5075L65.6088 31.855C64.6572 32.1128 63.7001 32.2965 62.732 32.4035C61.764 32.5132 60.5875 32.5653 59.2026 32.5653C57.1238 32.5653 55.4976 32.1814 54.3266 31.4107C53.1556 30.6401 52.396 29.4335 52.0422 27.7853C51.6885 26.1371 51.7022 24.0036 52.0751 21.3764C52.3658 19.336 52.758 17.6138 53.2461 16.207C53.7343 14.8001 54.3595 13.6703 55.1192 12.8174C55.8815 11.9645 56.8222 11.3502 57.9411 10.9718C59.0627 10.5933 60.401 10.4041 61.9532 10.4041L61.9559 10.4014Z" fill="#FBFF06"/>
<path d="M74.8176 10.4614L72.3495 27.9606C72.248 28.6352 72.3275 29.1151 72.5853 29.4003C72.8458 29.6855 73.3203 29.8281 74.0086 29.8281H75.5032L75.6239 32.0796C75.4237 32.1729 75.1385 32.2469 74.7655 32.3045C74.3925 32.3621 74.0223 32.406 73.6493 32.4389C73.2764 32.4718 72.972 32.4882 72.7307 32.4882C71.5185 32.4882 70.5971 32.1399 69.9691 31.4461C69.3411 30.7523 69.108 29.7787 69.2752 28.5255L71.8174 10.4669H74.8176V10.4614Z" fill="#FBFF06"/>
<path d="M86.5879 19.0976C85.5239 19.0976 84.6573 19.2567 83.9909 19.5776C83.3245 19.8957 82.8007 20.4634 82.4168 21.2778C82.0329 22.0923 81.7312 23.2551 81.509 24.7689C81.3088 26.151 81.2732 27.237 81.3939 28.0241C81.5145 28.8112 81.8491 29.3624 82.3894 29.6805C82.9296 29.9959 83.7112 30.1549 84.7368 30.1549C85.8201 30.1549 86.6921 29.9849 87.3558 29.6476C88.0195 29.3103 88.5433 28.7289 88.9272 27.9062C89.3084 27.0835 89.6018 25.9564 89.8047 24.5248C90.0049 23.0988 90.0461 21.9991 89.9199 21.2202C89.7965 20.4414 89.4647 19.8929 88.9299 19.5748C88.3924 19.2567 87.6136 19.0976 86.5879 19.0976ZM86.6016 16.6597C88.3348 16.6597 89.7088 16.9257 90.7289 17.455C91.7491 17.9842 92.4347 18.8426 92.7885 20.0273C93.1422 21.212 93.1751 22.7916 92.8844 24.7689C92.6157 26.6776 92.1714 28.2051 91.5544 29.3542C90.9346 30.5032 90.0735 31.3314 88.9683 31.836C87.8631 32.3433 86.4453 32.5957 84.7122 32.5957C82.979 32.5957 81.6297 32.3296 80.6013 31.8004C79.5702 31.2711 78.8736 30.4155 78.5089 29.2307C78.1442 28.046 78.0948 26.4801 78.3663 24.5248C78.6378 22.6134 79.082 21.0831 79.6991 19.9341C80.3161 18.785 81.1827 17.9513 82.2988 17.4358C83.415 16.9202 84.8493 16.6624 86.5989 16.6624L86.6016 16.6597Z" fill="#FBFF06"/>
<path d="M110.981 17.0381L108.867 32.1925H106.533L106.769 28.0323L106.544 27.6045L107.984 17.0381H110.979H110.981ZM100.717 17.0381L99.2083 27.5935C99.0739 28.4683 99.1425 29.0909 99.4195 29.4556C99.6964 29.8231 100.193 30.0068 100.906 30.0068C101.833 30.0068 102.738 29.7189 103.618 29.1457C104.498 28.5725 105.582 27.7032 106.873 26.5432L107.202 28.5095C105.856 29.8697 104.589 30.8926 103.407 31.5754C102.222 32.2583 101.021 32.6011 99.7979 32.6011C98.3911 32.6011 97.3764 32.2227 96.7539 31.4658C96.1313 30.7089 95.9257 29.6722 96.1313 28.3559L97.7137 17.0381H100.719H100.717Z" fill="#FBFF06"/>
<path d="M129.797 10.4614L126.753 32.192H124.383L124.564 28.7065L124.285 28.4789L125.741 17.7863L126.018 17.29C126.018 16.7525 126.04 16.2341 126.081 15.735C126.119 15.2332 126.182 14.6957 126.265 14.1143L126.794 10.4614H129.797ZM121.109 16.6592C122.261 16.6592 123.478 16.7305 124.756 16.8759C126.034 17.0212 127.156 17.2104 128.127 17.449L127.425 19.1109C126.325 19.0725 125.338 19.0451 124.463 19.0259C123.588 19.0067 122.859 18.9985 122.274 18.9985C121.312 18.9985 120.522 19.0643 119.902 19.1959C119.283 19.3275 118.783 19.5826 118.41 19.961C118.035 20.3395 117.739 20.8989 117.519 21.6394C117.3 22.3771 117.102 23.3643 116.921 24.6011C116.727 25.9833 116.642 27.0638 116.666 27.8426C116.691 28.6215 116.85 29.1727 117.143 29.4963C117.44 29.8199 117.917 29.9789 118.575 29.9789C119.631 29.9762 120.67 29.6444 121.696 28.9835C122.719 28.3253 123.901 27.3408 125.234 26.0354L125.823 27.4395C125.461 27.9551 125.006 28.5063 124.457 29.0932C123.906 29.6828 123.278 30.2422 122.573 30.7742C121.866 31.3063 121.098 31.7368 120.27 32.0686C119.439 32.4005 118.564 32.565 117.64 32.565C116.6 32.565 115.753 32.3045 115.1 31.7862C114.445 31.2679 114.012 30.4095 113.798 29.2111C113.587 28.0127 113.614 26.4166 113.88 24.4174C114.124 22.7336 114.453 21.3816 114.867 20.3559C115.279 19.333 115.783 18.5542 116.381 18.0222C116.979 17.4901 117.667 17.1309 118.446 16.9389C119.228 16.7497 120.113 16.6537 121.109 16.6537V16.6592Z" fill="#FBFF06"/>
<path d="M150.414 10.7744L149.813 15.069H131.818L132.427 10.7744H150.414ZM144.213 10.7744L141.202 32.1951H135.594L138.605 10.7744H144.213Z" fill="#FBFF06"/>
<path d="M156.272 16.3689C158.268 16.3689 159.812 16.5801 160.904 17.0024C161.995 17.4248 162.73 18.0418 163.103 18.8563C163.479 19.6708 163.572 20.68 163.386 21.8839C163.251 22.8273 162.933 23.5649 162.437 24.0997C161.94 24.6345 161.249 25.0321 160.366 25.2927C159.483 25.5532 158.367 25.7342 157.018 25.8384L149.015 26.4774L149.383 23.7103L155.784 23.0713C156.288 23.0247 156.702 22.9534 157.031 22.8574C157.358 22.7614 157.618 22.5996 157.813 22.3693C158.005 22.1389 158.131 21.8016 158.191 21.3546C158.241 20.9761 158.211 20.6854 158.104 20.4853C157.994 20.2851 157.788 20.1507 157.489 20.0821C157.19 20.0136 156.765 19.9861 156.222 20.0026C155.677 20.0026 155.219 20.0629 154.846 20.1863C154.476 20.3098 154.168 20.5182 153.924 20.8116C153.68 21.105 153.475 21.5219 153.307 22.0621C153.14 22.6024 152.986 23.2989 152.844 24.1546C152.655 25.3557 152.611 26.2552 152.712 26.8585C152.814 27.4591 153.082 27.8595 153.518 28.0542C153.954 28.2517 154.574 28.3477 155.378 28.3477C155.847 28.3477 156.445 28.3312 157.171 28.301C157.898 28.2709 158.652 28.227 159.434 28.1722C160.218 28.1173 160.912 28.0597 161.515 27.9966L161.88 31.3506C161.214 31.6467 160.479 31.8853 159.672 32.0691C158.869 32.2528 158.054 32.3817 157.232 32.4558C156.412 32.5298 155.616 32.5654 154.854 32.5654C152.668 32.5654 150.984 32.2528 149.8 31.6248C148.618 30.9968 147.831 30.0671 147.444 28.8358C147.057 27.6045 146.956 26.0907 147.145 24.2972C147.323 22.6874 147.644 21.3656 148.113 20.3317C148.579 19.2951 149.188 18.4915 149.931 17.9184C150.677 17.3452 151.58 16.9421 152.635 16.7117C153.691 16.4814 154.903 16.3662 156.272 16.3662V16.3689Z" fill="#FBFF06"/>
<path d="M173.56 16.3687C174.626 16.3687 175.748 16.4537 176.922 16.6237C178.098 16.7937 179.135 17.068 180.032 17.4492L179.283 20.7674C178.266 20.751 177.322 20.7373 176.456 20.7318C175.589 20.7263 174.849 20.7236 174.24 20.7236C173.45 20.7236 172.814 20.8333 172.334 21.0554C171.851 21.2775 171.484 21.656 171.226 22.1935C170.971 22.731 170.776 23.4851 170.644 24.4532C170.496 25.5008 170.474 26.2961 170.579 26.8391C170.683 27.382 170.941 27.7523 171.352 27.9442C171.763 28.1362 172.356 28.2349 173.126 28.2349C173.519 28.2349 173.985 28.2294 174.53 28.2157C175.073 28.202 175.66 28.1773 176.294 28.1444C176.925 28.1115 177.544 28.0594 178.15 27.9909L178.537 31.4655C177.588 31.8768 176.549 32.1648 175.422 32.3266C174.297 32.4884 173.211 32.5679 172.169 32.5679C170.368 32.5679 168.881 32.2909 167.713 31.7397C166.547 31.1857 165.733 30.2972 165.269 29.0741C164.809 27.851 164.71 26.2467 164.981 24.2612C165.256 22.3827 165.703 20.8634 166.32 19.7061C166.937 18.5489 167.828 17.7042 168.991 17.1722C170.156 16.6374 171.678 16.3714 173.56 16.3714V16.3687Z" fill="#FBFF06"/>
<path d="M189.147 10.4614L188.443 15.5869C188.308 16.6236 188.094 17.6273 187.801 18.5981C187.505 19.5689 187.236 20.3395 186.997 20.9044L187.609 21.228L186.095 32.192H180.668L183.717 10.4614H189.147ZM193.851 16.3685C195.351 16.3685 196.456 16.747 197.169 17.5011C197.879 18.258 198.134 19.344 197.934 20.7591L196.319 32.192H190.892L192.301 22.2592C192.381 21.7271 192.356 21.3761 192.227 21.2033C192.095 21.0306 191.827 20.9455 191.415 20.9455C190.779 20.9455 190.135 21.1073 189.487 21.4337C188.84 21.76 188.031 22.3058 187.066 23.0736L186.293 20.5835C187.661 19.1356 188.986 18.0715 190.264 17.3914C191.539 16.7086 192.734 16.3685 193.851 16.3685Z" fill="#FBFF06"/>
</svg>
