<svg width="198" height="43" viewBox="0 0 198 43" fill="none" xmlns="http://www.w3.org/2000/svg">
<path d="M5.58627 6.7648C9.41738 2.65671 14.8692 0.0898438 20.9162 0.0898438C26.9631 0.0898438 32.0201 2.47571 35.8238 6.32876C32.7578 5.26746 29.9989 4.68333 26.3159 4.72172C22.419 4.76285 19.7534 5.96402 15.0475 7.88917C10.6844 9.6772 8.01602 7.53541 5.58627 6.76754V6.7648Z" fill="#73BF9C"/>
<path d="M0.106949 18.4169C0.447004 15.754 1.28617 13.2475 2.52573 10.9933C4.17116 11.7995 9.47218 14.775 13.3252 12.6058C18.4233 9.73725 19.7013 7.73531 25.6961 7.60368C29.4011 7.52141 34.4114 8.70063 38.6045 9.81404C40.0662 12.1067 41.0973 14.701 41.58 17.4817C40.9437 17.1718 39.6822 16.5548 38.2425 15.8144C35.8813 14.6022 30.8298 12.3288 26.2418 11.9229C14.5867 10.9686 21.4262 24.8889 8.67963 22.0204C6.33764 21.4938 2.78351 20.002 0.106949 18.4169Z" fill="#73BF9C"/>
<path d="M1.05581 27.9001C0.499106 26.2656 0.137119 24.5406 0 22.7526C1.54944 23.5259 6.59268 25.8844 11.3589 26.3725C17.0768 26.9567 19.0787 25.0946 20.4801 21.365C21.9829 17.3638 23.121 15.7129 27.5883 15.8171C30.0455 15.8967 33.5448 17.3693 37.3704 19.7579C39.238 20.9344 40.7737 21.7461 41.8652 22.1904C41.7747 23.9812 41.4593 25.7116 40.9492 27.3571C39.2325 26.8278 38.1191 26.1038 36.4051 24.8149C32.1379 21.6008 27.7529 20.1227 26.2555 23.792C24.7582 27.4613 21.1163 30.2832 15.6096 31.0812C10.4073 31.8354 4.39056 29.0848 1.05308 27.9028L1.05581 27.9001Z" fill="#73BF9C"/>
<path d="M39.5972 30.6752C36.1199 37.4736 29.0555 42.1302 20.9162 42.1302C12.7768 42.1302 6.10729 37.7314 2.53397 31.2402C5.06519 32.0684 9.26925 34.5173 17.1838 33.6836C25.7729 32.7786 27.4814 28.2071 29.1735 26.1805C30.9697 24.1127 33.2459 27.1705 35.533 28.8433C37.3211 30.1377 38.5359 30.4915 39.6 30.6725L39.5972 30.6752Z" fill="#73BF9C"/>
<path d="M61.9559 10.0117C62.902 10.0117 63.7111 10.0337 64.3857 10.0775C65.0603 10.1214 65.6746 10.19 66.2231 10.286C66.7743 10.3819 67.3337 10.5163 67.9041 10.6836L67.4379 12.9982C66.8236 12.9406 66.2477 12.8912 65.7075 12.8556C65.1672 12.8172 64.6023 12.7897 64.0127 12.7706C63.4203 12.7514 62.7156 12.7404 61.8956 12.7404C60.8864 12.7404 60.0225 12.8665 59.304 13.1243C58.5855 13.3794 57.9685 13.8154 57.4584 14.4324C56.9456 15.0495 56.5178 15.9078 56.175 17.0103C55.8295 18.1127 55.547 19.5113 55.3248 21.2034C55.0259 23.304 54.9464 24.9522 55.0863 26.1479C55.2261 27.3436 55.6347 28.1882 56.3094 28.6818C56.9867 29.1755 57.9685 29.4333 59.2602 29.4524C60.6451 29.4524 61.7969 29.4223 62.7156 29.362C63.637 29.3016 64.5447 29.2221 65.4442 29.1179L65.6088 31.4654C64.6572 31.7231 63.7001 31.9069 62.732 32.0138C61.764 32.1235 60.5875 32.1756 59.2026 32.1756C57.1238 32.1756 55.4976 31.7917 54.3266 31.0211C53.1556 30.2505 52.396 29.0438 52.0422 27.3957C51.6885 25.7475 51.7022 23.6139 52.0751 20.9867C52.3658 18.9464 52.758 17.2242 53.2461 15.8173C53.7343 14.4105 54.3595 13.2806 55.1192 12.4278C55.8815 11.5749 56.8222 10.9606 57.9411 10.5821C59.0627 10.2037 60.401 10.0145 61.9532 10.0145L61.9559 10.0117Z" fill="#73BF9C"/>
<path d="M74.8176 10.0723L72.3495 27.5714C72.248 28.246 72.3275 28.7259 72.5853 29.0111C72.8458 29.2963 73.3203 29.439 74.0086 29.439H75.5032L75.6239 31.6905C75.4237 31.7837 75.1385 31.8577 74.7655 31.9153C74.3925 31.9729 74.0223 32.0168 73.6493 32.0497C73.2764 32.0826 72.972 32.0991 72.7307 32.0991C71.5185 32.0991 70.5971 31.7508 69.9691 31.057C69.3411 30.3631 69.108 29.3896 69.2752 28.1363L71.8174 10.0777H74.8176V10.0723Z" fill="#73BF9C"/>
<path d="M86.5879 18.7075C85.5239 18.7075 84.6573 18.8666 83.9909 19.1874C83.3245 19.5055 82.8007 20.0732 82.4168 20.8877C82.0329 21.7022 81.7312 22.865 81.509 24.3788C81.3088 25.7609 81.2732 26.8469 81.3939 27.634C81.5145 28.421 81.8491 28.9722 82.3894 29.2904C82.9296 29.6057 83.7112 29.7648 84.7368 29.7648C85.8201 29.7648 86.6921 29.5948 87.3558 29.2575C88.0195 28.9201 88.5433 28.3387 88.9272 27.516C89.3084 26.6933 89.6018 25.5662 89.8047 24.1347C90.0049 22.7087 90.0461 21.6089 89.9199 20.8301C89.7965 20.0513 89.4647 19.5028 88.9299 19.1847C88.3924 18.8666 87.6136 18.7075 86.5879 18.7075ZM86.6016 16.2695C88.3348 16.2695 89.7088 16.5355 90.7289 17.0648C91.7491 17.5941 92.4347 18.4525 92.7885 19.6372C93.1422 20.8219 93.1751 22.4015 92.8844 24.3788C92.6157 26.2874 92.1714 27.815 91.5544 28.964C90.9346 30.1131 90.0735 30.9413 88.9683 31.4459C87.8631 31.9532 86.4453 32.2055 84.7122 32.2055C82.979 32.2055 81.6297 31.9395 80.6013 31.4102C79.5702 30.8809 78.8736 30.0253 78.5089 28.8406C78.1442 27.6559 78.0948 26.09 78.3663 24.1347C78.6378 22.2233 79.082 20.693 79.6991 19.5439C80.3161 18.3949 81.1827 17.5612 82.2988 17.0456C83.415 16.5301 84.8493 16.2723 86.5989 16.2723L86.6016 16.2695Z" fill="#73BF9C"/>
<path d="M110.981 16.6484L108.867 31.8028H106.533L106.769 27.6426L106.544 27.2148L107.984 16.6484H110.979H110.981ZM100.717 16.6484L99.2083 27.2039C99.0739 28.0787 99.1425 28.7012 99.4195 29.0659C99.6964 29.4334 100.193 29.6172 100.906 29.6172C101.833 29.6172 102.738 29.3292 103.618 28.7561C104.498 28.1829 105.582 27.3136 106.873 26.1535L107.202 28.1198C105.856 29.48 104.589 30.5029 103.407 31.1858C102.222 31.8686 101.021 32.2114 99.7979 32.2114C98.3911 32.2114 97.3764 31.833 96.7539 31.0761C96.1313 30.3192 95.9257 29.2826 96.1313 27.9662L97.7137 16.6484H100.719H100.717Z" fill="#73BF9C"/>
<path d="M129.797 10.0723L126.753 31.8029H124.383L124.564 28.3173L124.285 28.0897L125.741 17.3972L126.018 16.9008C126.018 16.3633 126.04 15.845 126.081 15.3459C126.119 14.844 126.182 14.3065 126.265 13.7251L126.794 10.0723H129.797ZM121.109 16.27C122.261 16.27 123.478 16.3414 124.756 16.4867C126.034 16.632 127.156 16.8213 128.127 17.0598L127.425 18.7217C126.325 18.6833 125.338 18.6559 124.463 18.6367C123.588 18.6175 122.859 18.6093 122.274 18.6093C121.312 18.6093 120.522 18.6751 119.902 18.8067C119.283 18.9384 118.783 19.1934 118.41 19.5719C118.035 19.9503 117.739 20.5098 117.519 21.2502C117.3 21.9879 117.102 22.9752 116.921 24.212C116.727 25.5941 116.642 26.6746 116.666 27.4535C116.691 28.2323 116.85 28.7835 117.143 29.1071C117.44 29.4307 117.917 29.5898 118.575 29.5898C119.631 29.587 120.67 29.2552 121.696 28.5943C122.719 27.9361 123.901 26.9516 125.234 25.6462L125.823 27.0503C125.461 27.5659 125.006 28.1171 124.457 28.704C123.906 29.2936 123.278 29.8531 122.573 30.3851C121.866 30.9171 121.098 31.3476 120.27 31.6795C119.439 32.0113 118.564 32.1758 117.64 32.1758C116.6 32.1758 115.753 31.9153 115.1 31.397C114.445 30.8787 114.012 30.0203 113.798 28.8219C113.587 27.6235 113.614 26.0274 113.88 24.0282C114.124 22.3444 114.453 20.9924 114.867 19.9668C115.279 18.9439 115.783 18.165 116.381 17.633C116.979 17.101 117.667 16.7417 118.446 16.5498C119.228 16.3605 120.113 16.2646 121.109 16.2646V16.27Z" fill="#73BF9C"/>
<path d="M150.414 10.3848L149.813 14.6793H131.818L132.427 10.3848H150.414ZM144.213 10.3848L141.202 31.8055H135.594L138.605 10.3848H144.213Z" fill="#73BF9C"/>
<path d="M156.272 15.9793C158.268 15.9793 159.812 16.1905 160.904 16.6128C161.995 17.0351 162.73 17.6521 163.103 18.4666C163.479 19.2811 163.572 20.2903 163.386 21.4942C163.251 22.4376 162.933 23.1753 162.437 23.7101C161.94 24.2448 161.249 24.6425 160.366 24.903C159.483 25.1635 158.367 25.3445 157.018 25.4487L149.015 26.0877L149.383 23.3206L155.784 22.6817C156.288 22.635 156.702 22.5638 157.031 22.4678C157.358 22.3718 157.618 22.21 157.813 21.9796C158.005 21.7493 158.131 21.4119 158.191 20.9649C158.241 20.5865 158.211 20.2958 158.104 20.0956C157.994 19.8954 157.788 19.761 157.489 19.6925C157.19 19.6239 156.765 19.5965 156.222 19.6129C155.677 19.6129 155.219 19.6733 154.846 19.7967C154.476 19.9201 154.168 20.1285 153.924 20.4219C153.68 20.7154 153.475 21.1322 153.307 21.6725C153.14 22.2127 152.986 22.9093 152.844 23.7649C152.655 24.9661 152.611 25.8656 152.712 26.4689C152.814 27.0695 153.082 27.4699 153.518 27.6646C153.954 27.862 154.574 27.958 155.378 27.958C155.847 27.958 156.445 27.9416 157.171 27.9114C157.898 27.8812 158.652 27.8374 159.434 27.7825C160.218 27.7277 160.912 27.6701 161.515 27.607L161.88 30.9609C161.214 31.2571 160.479 31.4957 159.672 31.6794C158.869 31.8632 158.054 31.9921 157.232 32.0661C156.412 32.1401 155.616 32.1758 154.854 32.1758C152.668 32.1758 150.984 31.8632 149.8 31.2352C148.618 30.6071 147.831 29.6775 147.444 28.4462C147.057 27.2148 146.956 25.701 147.145 23.9075C147.323 22.2977 147.644 20.9759 148.113 19.942C148.579 18.9054 149.188 18.1019 149.931 17.5287C150.677 16.9556 151.58 16.5524 152.635 16.3221C153.691 16.0917 154.903 15.9766 156.272 15.9766V15.9793Z" fill="#73BF9C"/>
<path d="M173.56 15.9795C174.626 15.9795 175.748 16.0645 176.922 16.2345C178.098 16.4046 179.135 16.6788 180.032 17.06L179.283 20.3783C178.266 20.3618 177.322 20.3481 176.456 20.3426C175.589 20.3371 174.849 20.3344 174.24 20.3344C173.45 20.3344 172.814 20.4441 172.334 20.6662C171.851 20.8884 171.484 21.2668 171.226 21.8043C170.971 22.3418 170.776 23.096 170.644 24.064C170.496 25.1116 170.474 25.9069 170.579 26.4499C170.683 26.9929 170.941 27.3631 171.352 27.5551C171.763 27.747 172.356 27.8458 173.126 27.8458C173.519 27.8458 173.985 27.8403 174.53 27.8266C175.073 27.8129 175.66 27.7882 176.294 27.7553C176.925 27.7224 177.544 27.6703 178.15 27.6017L178.537 31.0763C177.588 31.4877 176.549 31.7756 175.422 31.9374C174.297 32.0992 173.211 32.1787 172.169 32.1787C170.368 32.1787 168.881 31.9018 167.713 31.3505C166.547 30.7966 165.733 29.908 165.269 28.6849C164.809 27.4618 164.71 25.8576 164.981 23.8721C165.256 21.9935 165.703 20.4743 166.32 19.317C166.937 18.1597 167.828 17.315 168.991 16.783C170.156 16.2482 171.678 15.9822 173.56 15.9822V15.9795Z" fill="#73BF9C"/>
<path d="M189.147 10.0723L188.443 15.1978C188.308 16.2344 188.094 17.2381 187.801 18.2089C187.505 19.1797 187.236 19.9503 186.997 20.5153L187.609 20.8389L186.095 31.8029H180.668L183.717 10.0723H189.147ZM193.851 15.9793C195.351 15.9793 196.456 16.3578 197.169 17.112C197.879 17.8688 198.134 18.9548 197.934 20.3699L196.319 31.8029H190.892L192.301 21.87C192.381 21.338 192.356 20.9869 192.227 20.8142C192.095 20.6414 191.827 20.5564 191.415 20.5564C190.779 20.5564 190.135 20.7182 189.487 21.0445C188.84 21.3709 188.031 21.9166 187.066 22.6845L186.293 20.1944C187.661 18.7464 188.986 17.6824 190.264 17.0023C191.539 16.3194 192.734 15.9793 193.851 15.9793Z" fill="#73BF9C"/>
</svg>
