<svg width="156" height="156" viewBox="0 0 156 156" fill="none" xmlns="http://www.w3.org/2000/svg">
<path d="M21.5098 24.8999C35.6998 9.68992 55.8997 0.169922 78.2997 0.169922C100.7 0.169922 119.44 9.00992 133.53 23.2799C122.18 19.3399 111.95 17.1799 98.3098 17.3199C83.8698 17.4699 73.9998 21.9199 56.5698 29.0599C40.3998 35.6799 30.5298 27.7499 21.5198 24.8999H21.5098Z" fill="#73BF9C"/>
<path d="M1.20996 68.06C2.46996 58.2 5.57992 48.91 10.1699 40.55C16.2699 43.53 35.8999 54.56 50.1799 46.53C69.0699 35.91 73.7999 28.49 96.0099 28C109.73 27.7 128.3 32.06 143.83 36.19C149.24 44.68 153.06 54.29 154.85 64.6C152.5 63.46 147.82 61.16 142.48 58.42C133.74 53.93 115.01 45.51 98.02 44.01C54.85 40.47 80.18 92.04 32.96 81.41C24.29 79.46 11.12 73.94 1.20996 68.06Z" fill="#217B8F"/>
<path d="M4.73004 103.19C2.67004 97.1301 1.33006 90.7401 0.810059 84.1201C6.55006 86.9801 25.2401 95.7301 42.8901 97.5301C64.0701 99.7001 71.4801 92.8001 76.6801 78.9801C82.2501 64.1601 86.4601 58.0401 103.02 58.4301C112.12 58.7201 125.09 64.1801 139.26 73.0301C146.18 77.3901 151.87 80.3901 155.91 82.0401C155.57 88.6701 154.41 95.0801 152.52 101.18C146.16 99.2201 142.04 96.5401 135.69 91.7601C119.89 79.8601 103.64 74.3801 98.0901 87.9701C92.5501 101.57 79.05 112.01 58.66 114.97C39.38 117.76 17.1 107.57 4.73004 103.19Z" fill="#73BF9C"/>
<path d="M147.51 113.47C134.63 138.66 108.46 155.91 78.3002 155.91C48.1402 155.91 23.4402 139.61 10.2002 115.57C19.5802 118.64 35.1502 127.71 64.4702 124.62C96.2902 121.27 102.62 104.33 108.88 96.8199C115.53 89.1599 123.96 100.49 132.44 106.69C139.06 111.48 143.56 112.8 147.51 113.47Z" fill="#217B8F"/>
</svg>
