<svg width="131" height="27" viewBox="0 0 131 27" fill="none" xmlns="http://www.w3.org/2000/svg">
<path d="M3.69604 4.28689C6.23077 1.64853 9.8378 0 13.8386 0C17.8393 0 21.1851 1.53229 23.7017 4.00685C21.6731 3.32525 19.8479 2.9501 17.4111 2.97475C14.8329 3.00117 13.0693 3.77261 9.95573 5.00901C7.06902 6.15734 5.30361 4.7818 3.69604 4.28865V4.28689Z" fill="#FDFDFD"/>
<path d="M0.0708008 11.7704C0.295787 10.0603 0.850995 8.45047 1.67111 7.00272C2.75975 7.52053 6.26699 9.43149 8.81623 8.03834C12.1892 6.19606 13.0347 4.91035 17.001 4.82581C19.4523 4.77297 22.7672 5.53031 25.5414 6.24538C26.5085 7.71779 27.1907 9.38394 27.51 11.1698C27.0891 10.9708 26.2544 10.5745 25.3019 10.099C23.7397 9.32053 20.3976 7.86045 17.3621 7.59979C9.65085 6.98687 14.176 15.927 5.74263 14.0847C4.19313 13.7466 1.84166 12.7884 0.0708008 11.7704Z" fill="#FDFDFD"/>
<path d="M0.698541 17.8608C0.330217 16.8111 0.0907201 15.7033 0 14.555C1.02514 15.0516 4.36182 16.5663 7.51525 16.8798C11.2983 17.255 12.6228 16.0591 13.55 13.6638C14.5443 11.0941 15.2972 10.0338 18.2529 10.1008C19.8786 10.1518 22.1938 11.0976 24.7249 12.6317C25.9605 13.3873 26.9765 13.9086 27.6987 14.1939C27.6388 15.344 27.4301 16.4554 27.0927 17.5121C25.9568 17.1722 25.2202 16.7072 24.0862 15.8794C21.263 13.8152 18.3618 12.8659 17.3711 15.2225C16.3804 17.5791 13.9709 19.3914 10.3276 19.9039C6.88566 20.3882 2.90486 18.6217 0.696736 17.8626L0.698541 17.8608Z" fill="#FDFDFD"/>
<path d="M26.1982 19.6432C23.8975 24.0094 19.2236 27 13.8385 27C8.45331 27 4.04068 24.1749 1.67651 20.0061C3.35121 20.538 6.13268 22.1107 11.369 21.5753C17.0518 20.9941 18.1821 18.0581 19.3016 16.7565C20.4901 15.4286 21.996 17.3924 23.5092 18.4667C24.6922 19.298 25.496 19.5252 26.2 19.6415L26.1982 19.6432Z" fill="#FDFDFD"/>
<path d="M40.9911 6.37218C41.6171 6.37218 42.1523 6.38627 42.5987 6.41445C43.045 6.44263 43.4514 6.48666 43.8143 6.5483C44.179 6.60995 44.5492 6.69625 44.9266 6.80369L44.6181 8.29019C44.2117 8.2532 43.8307 8.22149 43.4732 8.1986C43.1158 8.17394 42.742 8.15633 42.3519 8.144C41.96 8.13167 41.4937 8.12463 40.9512 8.12463C40.2835 8.12463 39.712 8.20564 39.2366 8.3712C38.7612 8.535 38.353 8.81504 38.0155 9.21132C37.6762 9.6076 37.3932 10.1589 37.1664 10.8669C36.9377 11.5749 36.7509 12.4732 36.6039 13.5599C36.4061 14.909 36.3535 15.9675 36.446 16.7354C36.5386 17.5033 36.8089 18.0458 37.2553 18.3628C37.7034 18.6798 38.353 18.8454 39.2076 18.8577C40.1238 18.8577 40.8859 18.8383 41.4937 18.7996C42.1034 18.7608 42.7039 18.7098 43.299 18.6428L43.4079 20.1505C42.7783 20.316 42.1451 20.434 41.5046 20.5027C40.8641 20.5732 40.0857 20.6066 39.1695 20.6066C37.7941 20.6066 36.7182 20.3601 35.9434 19.8651C35.1687 19.3702 34.6661 18.5953 34.4321 17.5368C34.198 16.4782 34.2071 15.108 34.4538 13.4207C34.6462 12.1103 34.9056 11.0043 35.2286 10.1008C35.5515 9.19723 35.9652 8.47159 36.4678 7.92384C36.9722 7.37609 37.5946 6.98157 38.3348 6.73852C39.0769 6.49546 39.9623 6.37394 40.9893 6.37394L40.9911 6.37218Z" fill="#FDFDFD"/>
<path d="M49.5005 6.4109L47.8675 17.6495C47.8004 18.0827 47.853 18.391 48.0235 18.5741C48.1959 18.7573 48.5098 18.8489 48.9652 18.8489H49.9541L50.0339 20.2949C49.9014 20.3548 49.7127 20.4023 49.466 20.4393C49.2192 20.4763 48.9743 20.5045 48.7275 20.5256C48.4808 20.5467 48.2794 20.5573 48.1197 20.5573C47.3177 20.5573 46.7081 20.3336 46.2926 19.888C45.8771 19.4424 45.7229 18.8172 45.8335 18.0123L47.5155 6.41442H49.5005V6.4109Z" fill="#FDFDFD"/>
<path d="M57.288 11.9572C56.584 11.9572 56.0106 12.0593 55.5697 12.2654C55.1288 12.4697 54.7823 12.8343 54.5283 13.3574C54.2743 13.8805 54.0747 14.6272 53.9277 15.5994C53.7952 16.4871 53.7717 17.1846 53.8515 17.69C53.9313 18.1955 54.1527 18.5495 54.5101 18.7538C54.8676 18.9564 55.3847 19.0585 56.0633 19.0585C56.7799 19.0585 57.3569 18.9493 57.796 18.7327C58.2351 18.5161 58.5817 18.1427 58.8357 17.6143C59.0879 17.0859 59.282 16.3621 59.4163 15.4427C59.5487 14.5268 59.5759 13.8206 59.4925 13.3204C59.4108 12.8202 59.1913 12.4679 58.8375 12.2636C58.4819 12.0593 57.9666 11.9572 57.288 11.9572ZM57.297 10.3914C58.4437 10.3914 59.3528 10.5623 60.0277 10.9022C60.7027 11.2421 61.1563 11.7934 61.3903 12.5542C61.6244 13.3151 61.6462 14.3296 61.4538 15.5994C61.276 16.8253 60.9821 17.8063 60.5739 18.5443C60.1638 19.2822 59.5941 19.8141 58.8629 20.1382C58.1317 20.464 57.1936 20.6261 56.0469 20.6261C54.9002 20.6261 54.0075 20.4552 53.3271 20.1153C52.6449 19.7754 52.1841 19.2259 51.9428 18.465C51.7014 17.7041 51.6688 16.6985 51.8484 15.4427C52.028 14.2151 52.322 13.2323 52.7302 12.4943C53.1384 11.7564 53.7118 11.221 54.4502 10.8898C55.1887 10.5587 56.1377 10.3932 57.2952 10.3932L57.297 10.3914Z" fill="#FDFDFD"/>
<path d="M73.427 10.6344L72.0281 20.3671H70.484L70.6401 17.6953L70.4913 17.4205L71.4439 10.6344H73.4252H73.427ZM66.6357 10.6344L65.6378 17.4135C65.5489 17.9753 65.5942 18.3751 65.7775 18.6094C65.9607 18.8454 66.2891 18.9634 66.7609 18.9634C67.3741 18.9634 67.9729 18.7785 68.5553 18.4104C69.1378 18.0423 69.8544 17.4839 70.709 16.7389L70.9267 18.0017C70.0359 18.8753 69.1976 19.5323 68.4156 19.9708C67.6318 20.4094 66.8371 20.6295 66.0279 20.6295C65.0971 20.6295 64.4257 20.3865 64.0139 19.9004C63.602 19.4143 63.4659 18.7485 63.602 17.9031L64.6489 10.6344H66.6375H66.6357Z" fill="#FDFDFD"/>
<path d="M85.8757 6.4109L83.8617 20.3671H82.2941L82.4138 18.1285L82.2288 17.9823L83.1922 11.1152L83.3755 10.7964C83.3755 10.4512 83.39 10.1183 83.4172 9.79779C83.4426 9.47548 83.4843 9.13028 83.5388 8.75689L83.8889 6.4109H85.8757ZM80.1277 10.3913C80.8897 10.3913 81.6953 10.4371 82.5409 10.5305C83.3864 10.6238 84.1284 10.7453 84.7707 10.8986L84.3063 11.9659C83.5787 11.9412 82.9255 11.9236 82.3467 11.9113C81.7679 11.899 81.2853 11.8937 80.8988 11.8937C80.262 11.8937 79.7394 11.936 79.3293 12.0205C78.9193 12.105 78.5891 12.2688 78.3423 12.5119C78.0937 12.7549 77.8978 13.1142 77.7526 13.5898C77.6075 14.0636 77.4768 14.6976 77.3571 15.4919C77.2283 16.3796 77.172 17.0735 77.1884 17.5737C77.2047 18.0739 77.3099 18.4279 77.5041 18.6358C77.7 18.8436 78.0157 18.9457 78.4512 18.9457C79.1497 18.944 79.8374 18.7309 80.516 18.3064C81.1927 17.8837 81.9748 17.2514 82.8566 16.4131L83.2467 17.3148C83.0072 17.6459 82.7059 18 82.3431 18.3769C81.9784 18.7555 81.5629 19.1148 81.0966 19.4565C80.6285 19.7982 80.1204 20.0747 79.5725 20.2878C79.0227 20.5009 78.4439 20.6066 77.8325 20.6066C77.1448 20.6066 76.5842 20.4393 76.1523 20.1064C75.7187 19.7735 75.432 19.2223 75.2905 18.4526C75.1508 17.6829 75.1689 16.6579 75.3449 15.3739C75.5064 14.2925 75.7241 13.4242 75.9981 12.7655C76.2703 12.1086 76.6041 11.6084 76.9997 11.2667C77.3952 10.925 77.8506 10.6943 78.3659 10.571C78.883 10.4495 79.4691 10.3878 80.1277 10.3878V10.3913Z" fill="#FDFDFD"/>
<path d="M99.5163 6.61173L99.119 9.36985H87.2129L87.6157 6.61173H99.5163ZM95.414 6.61173L93.4218 20.3689H89.7113L91.7035 6.61173H95.414Z" fill="#FDFDFD"/>
<path d="M103.392 10.2047C104.713 10.2047 105.734 10.3403 106.457 10.6115C107.179 10.8828 107.665 11.279 107.912 11.8021C108.16 12.3252 108.222 12.9734 108.099 13.7466C108.01 14.3524 107.799 14.8262 107.471 15.1697C107.142 15.5131 106.685 15.7685 106.101 15.9358C105.517 16.1031 104.778 16.2194 103.886 16.2863L98.5911 16.6967L98.8343 14.9196L103.069 14.5092C103.403 14.4792 103.677 14.4335 103.895 14.3718C104.111 14.3102 104.283 14.2062 104.412 14.0583C104.539 13.9104 104.622 13.6937 104.662 13.4066C104.695 13.1636 104.675 12.9769 104.604 12.8483C104.532 12.7198 104.395 12.6335 104.198 12.5894C104 12.5454 103.719 12.5278 103.359 12.5383C102.998 12.5383 102.695 12.5771 102.449 12.6564C102.204 12.7356 102 12.8695 101.839 13.0579C101.677 13.2464 101.541 13.5141 101.431 13.861C101.32 14.208 101.218 14.6554 101.124 15.2049C100.999 15.9763 100.97 16.554 101.037 16.9415C101.104 17.3272 101.282 17.5843 101.57 17.7094C101.859 17.8362 102.269 17.8978 102.801 17.8978C103.111 17.8978 103.506 17.8873 103.987 17.8679C104.468 17.8485 104.967 17.8203 105.484 17.7851C106.003 17.7499 106.462 17.7129 106.861 17.6724L107.103 19.8264C106.662 20.0166 106.175 20.1699 105.642 20.2879C105.11 20.4059 104.571 20.4886 104.027 20.5362C103.485 20.5838 102.958 20.6066 102.454 20.6066C101.008 20.6066 99.8939 20.4059 99.1101 20.0025C98.3281 19.5992 97.8073 19.0021 97.5515 18.2113C97.2957 17.4205 97.2285 16.4483 97.3537 15.2965C97.4717 14.2626 97.6839 13.4137 97.9942 12.7497C98.3026 12.0839 98.7054 11.5679 99.1971 11.1998C99.6907 10.8317 100.288 10.5728 100.986 10.4248C101.685 10.2769 102.487 10.2029 103.392 10.2029V10.2047Z" fill="#FDFDFD"/>
<path d="M114.83 10.2047C115.536 10.2047 116.278 10.2593 117.054 10.3685C117.833 10.4777 118.519 10.6538 119.112 10.8986L118.617 13.0297C117.943 13.0192 117.319 13.0104 116.746 13.0068C116.173 13.0033 115.683 13.0015 115.28 13.0015C114.757 13.0015 114.336 13.072 114.019 13.2147C113.7 13.3573 113.456 13.6004 113.286 13.9456C113.117 14.2908 112.988 14.7751 112.901 15.3969C112.803 16.0697 112.789 16.5804 112.858 16.9291C112.927 17.2779 113.097 17.5156 113.369 17.6389C113.641 17.7622 114.033 17.8256 114.543 17.8256C114.803 17.8256 115.111 17.8221 115.472 17.8133C115.831 17.8045 116.22 17.7886 116.639 17.7675C117.056 17.7464 117.466 17.7129 117.867 17.6689L118.123 19.9004C117.495 20.1646 116.808 20.3495 116.062 20.4534C115.318 20.5573 114.6 20.6084 113.91 20.6084C112.718 20.6084 111.735 20.4305 110.962 20.0765C110.191 19.7207 109.652 19.1501 109.345 18.3646C109.04 17.579 108.975 16.5487 109.154 15.2736C109.336 14.0671 109.632 13.0914 110.04 12.3481C110.448 11.6049 111.038 11.0624 111.807 10.7207C112.578 10.3773 113.585 10.2064 114.83 10.2064V10.2047Z" fill="#FDFDFD"/>
<path d="M125.143 6.4109L124.677 9.70269C124.588 10.3684 124.446 11.0131 124.252 11.6365C124.056 12.26 123.878 12.7549 123.721 13.1178L124.125 13.3256L123.124 20.3671H119.533L121.551 6.4109H125.143ZM128.255 10.2046C129.247 10.2046 129.978 10.4477 130.45 10.932C130.92 11.4181 131.089 12.1156 130.956 13.0244L129.888 20.3671H126.297L127.23 13.9878C127.282 13.6461 127.266 13.4207 127.181 13.3097C127.094 13.1988 126.916 13.1442 126.644 13.1442C126.223 13.1442 125.796 13.2481 125.368 13.4577C124.94 13.6673 124.405 14.0178 123.766 14.5109L123.254 12.9117C124.16 11.9817 125.036 11.2984 125.882 10.8616C126.725 10.423 127.516 10.2046 128.255 10.2046Z" fill="#FDFDFD"/>
</svg>
