<svg id="Layer_1" viewBox="0 0 64 64" xmlns="http://www.w3.org/2000/svg" data-name="Layer 1"><path d="m10.7832031 22.3901367v13.8300781h-3.4023438c-1.0351562 0-1.8769531.8417969-1.8769531 1.8759766v9.8608398c0 1.034668.8417969 1.8764648 1.8769531 1.8764648h9.4354248l.2667236 11.1904297c.0136719.5429688.4570312.9760742 1 .9760742h11.6201172c.5429688 0 .9873047-.4335938 1-.9765625l.454834-19.3134766h1.7648926c2.25 0 4.0800781-1.8300781 4.0800781-4.0800781v-15.2397461c0-3.2973633-2.6826172-5.9799805-5.9794922-5.9799805h-14.2607422c-3.296875 0-5.9794922 2.6826172-5.9794922 5.9799805zm-3.2792969 15.8300781h11.9814453v9.6132812h-1.6973877c-.0062256.0003052-.012085-.0033569-.0184326-.0029297-.0046387.0001221-.0083008.0027466-.0129395.0029297h-10.2526855zm27.4990234-15.8300781v15.2397461c0 1.1469727-.9335938 2.0800781-2.0800781 2.0800781h-1.7178955l.3585205-15.2265625c.0126953-.5522461-.4248047-1.0102539-.9765625-1.0229492-.5498047-.0258789-1.0107422.4243164-1.0234375.9760742l-.8369141 35.5634766h-3.8330078v-18.1396484c0-.5522461-.4472656-1-1-1s-1 .4477539-1 1v18.1396484h-3.8339844l-.2421875-10.1665039h.7919922c1.0341797 0 1.8759766-.8417969 1.8759766-1.8764648v-9.8608398c0-1.0341797-.8417969-1.8759766-1.8759766-1.8759766h-1.1088867l-.277832-11.7836914c-.0126953-.5522461-.4921875-1.0058594-1.0234375-.9760742-.5527344.0126953-.9892578.4707031-.9765625 1.0229492l.2766113 11.7368164h-3.7160645v-13.8300781c0-2.2319336 1.7480469-3.9799805 3.9794922-3.9799805h14.2607422c2.1943359 0 3.9794922 1.7856445 3.9794922 3.9799805z"/><path d="m30.6435547 8.7563477c0-3.7255859-3.03125-6.7563477-6.7568359-6.7563477s-6.7568359 3.0307617-6.7568359 6.7563477 3.03125 6.7568359 6.7568359 6.7568359 6.7568359-3.03125 6.7568359-6.7568359zm-11.5136719 0c0-2.6225586 2.1337891-4.7563477 4.7568359-4.7563477s4.7568359 2.1337891 4.7568359 4.7563477c0 2.6230469-2.1337891 4.7568359-4.7568359 4.7568359s-4.7568359-2.1337891-4.7568359-4.7568359z"/><path d="m41.421875 20.0742188h16.0742188c.5527344 0 1-.4477539 1-1v-16.0742188c0-.5522461-.4472656-1-1-1h-16.0742188c-.5527344 0-1 .4477539-1 1v16.0742188c0 .5522461.4472656 1 1 1zm1-16.0742188h14.0742188v14.0742188h-14.0742188z"/><path d="m52.7128906 7.8642578-4.2246094 4.2246094-2.2832031-2.2836914c-.390625-.390625-1.0234375-.390625-1.4140625 0-.390625.3901367-.390625 1.0234375 0 1.4140625l2.9902344 2.9907227c.1875.1875.4414062.2929688.7070312.2929688s.5195312-.1054688.7070312-.2929688l4.9316406-4.9316406c.390625-.390625.390625-1.0234375 0-1.4140625s-1.0234375-.390625-1.4140625 0z"/><path d="m40.421875 40.0371094c0 .5522461.4472656 1 1 1h16.0742188c.5527344 0 1-.4477539 1-1v-16.0742188c0-.5522461-.4472656-1-1-1h-16.0742188c-.5527344 0-1 .4477539-1 1zm2-15.0742188h14.0742188v14.0742188h-14.0742188z"/><path d="m52.7128906 28.8271484-4.2246094 4.2246094-2.2832031-2.2836914c-.390625-.390625-1.0234375-.390625-1.4140625 0-.390625.3901367-.390625 1.0234375 0 1.4140625l2.9902344 2.9907227c.1875.1875.4414062.2929688.7070312.2929688s.5195312-.1054688.7070312-.2929688l4.9316406-4.9316406c.390625-.390625.390625-1.0234375 0-1.4140625s-1.0234375-.390625-1.4140625 0z"/><path d="m40.421875 61c0 .5522461.4472656 1 1 1h16.0742188c.5527344 0 1-.4477539 1-1v-16.0742188c0-.5522461-.4472656-1-1-1h-16.0742188c-.5527344 0-1 .4477539-1 1zm2-15.0742188h14.0742188v14.0742188h-14.0742188z"/><path d="m52.7128906 49.7900391-4.2246094 4.2246094-2.2832031-2.2836914c-.390625-.390625-1.0234375-.390625-1.4140625 0-.390625.3901367-.390625 1.0234375 0 1.4140625l2.9902344 2.9907227c.1875.1875.4414062.2929688.7070312.2929688s.5195312-.1054688.7070312-.2929688l4.9316406-4.9316406c.390625-.390625.390625-1.0234375 0-1.4140625s-1.0234375-.390625-1.4140625 0z"/></svg>