<svg height="512" viewBox="0 0 152 152" width="512" xmlns="http://www.w3.org/2000/svg"><g id="Layer_2" data-name="Layer 2"><g id="_08.whatsapp" data-name="08.whatsapp"><path d="m97 55-.15-.15a29.51 29.51 0 0 0 -47.15 34.23l1.3 2.56-2.43 11.78v.15l11.67-2.77 2.66 1.32a29.53 29.53 0 0 0 34-5.56 29.53 29.53 0 0 0 .1-41.56zm-1.18 33c-1.43 2.25-3.7 5-6.53 5.69-5 1.21-12.61 0-22.14-8.81l-.12-.11c-8.29-7.74-10.49-14.19-10-19.3.29-2.9 2.71-5.52 4.75-7.24a2.71 2.71 0 0 1 4.25 1l3.07 7a2.7 2.7 0 0 1 -.33 2.76l-1.56 2a2.65 2.65 0 0 0 -.21 2.95 29 29 0 0 0 5.27 5.85 30.59 30.59 0 0 0 7.3 5.23 2.64 2.64 0 0 0 2.89-.61l1.79-1.81a2.72 2.72 0 0 1 2.75-.84l7.3 2.1a2.73 2.73 0 0 1 1.54 4.08z"/><path d="m76 0a76 76 0 1 0 76 76 76 76 0 0 0 -76-76zm37.67 76.89a37.71 37.71 0 0 1 -54.46 32.55l-19 4.52a1.47 1.47 0 0 1 -1.54-.6 1.44 1.44 0 0 1 -.23-1.13l4-19.42a37.7 37.7 0 1 1 71.26-15.92z"/></g></g></svg>