<svg width="36" height="30" viewBox="0 0 36 30" fill="none" xmlns="http://www.w3.org/2000/svg">
<path fill-rule="evenodd" clip-rule="evenodd" d="M7.54322 0.276733C5.49723 0.276733 3.98329 2.12287 4.05108 4.12496C4.11615 6.04842 4.03161 8.53958 3.42329 10.5711C2.8128 12.6084 1.78105 13.8994 0.095459 14.0651V15.9359C1.78105 16.102 2.8128 17.3923 3.42322 19.4298C4.03161 21.4614 4.11608 23.9525 4.05101 25.876C3.98322 27.8778 5.49716 29.7242 7.5435 29.7242H28.5081C30.5541 29.7242 32.0678 27.8781 32 25.876C31.9349 23.9525 32.0195 21.4614 32.6278 19.4298C33.2383 17.3923 34.2675 16.1014 35.9532 15.9359V14.0651C34.2676 13.899 33.2384 12.6087 32.6278 10.5711C32.0194 8.53987 31.9349 6.04842 32 4.12496C32.0678 2.12316 30.5541 0.276733 28.5081 0.276733H7.54294H7.54322ZM24.4058 18.4036C24.4058 21.1604 22.4111 22.8323 19.101 22.8323H13.4661C13.3049 22.8323 13.1503 22.7663 13.0364 22.6488C12.9224 22.5313 12.8584 22.3719 12.8584 22.2058V7.79528C12.8584 7.62911 12.9224 7.46975 13.0364 7.35225C13.1503 7.23475 13.3049 7.16874 13.4661 7.16874H19.0689C21.829 7.16874 23.6405 8.71005 23.6405 11.0765C23.6405 12.7374 22.4219 14.2243 20.8694 14.4848V14.5715C22.9828 14.8105 24.4058 16.3194 24.4058 18.4036ZM18.4865 9.15487H15.2736V13.8334H17.9797C20.0716 13.8334 21.2251 12.965 21.2251 11.4128C21.2249 9.95808 20.2332 9.15487 18.4865 9.15487ZM15.2736 15.6897V20.8455H18.6048C20.7828 20.8455 21.9365 19.9445 21.9365 18.2513C21.9365 16.5581 20.7505 15.6894 18.4647 15.6894H15.2736V15.6897Z" fill="#809DBE"/>
</svg>
