<svg width="203" height="126" viewBox="0 0 203 126" fill="none" xmlns="http://www.w3.org/2000/svg">
<path opacity="0.52" d="M168.302 19.8611V91.1305C168.302 95.0971 165.387 98.3458 161.785 98.3458H58.0444C54.4426 98.3458 51.5232 95.109 51.5232 91.1305V19.8611C51.5232 15.8944 54.4426 12.6458 58.0444 12.6458H161.785C165.387 12.6458 168.302 15.8865 168.302 19.8611Z" fill="#EFEFEF"/>
<path d="M159.358 29.147V100.417C159.358 104.383 156.442 107.632 152.84 107.632H49.1079C45.5022 107.632 42.5867 104.391 42.5867 100.417V29.147C42.5867 25.1803 45.5022 21.9316 49.1079 21.9316H152.848C156.442 21.9316 159.358 25.1724 159.358 29.147Z" fill="#EFEFEF"/>
<path opacity="0.66" d="M159.381 28.4568V36.037H42.5745V28.4568C42.5755 26.7265 43.2634 25.0674 44.4869 23.8439C45.7104 22.6204 47.3695 21.9327 49.0997 21.9317H152.836C153.695 21.9296 154.545 22.0968 155.339 22.4237C156.133 22.7506 156.854 23.2309 157.462 23.8369C158.07 24.443 158.552 25.163 158.882 25.9557C159.211 26.7485 159.381 27.5984 159.381 28.4568Z" fill="#D8D8DB"/>
<path d="M125.466 32.6855C126.927 32.6855 128.112 31.501 128.112 30.0398C128.112 28.5786 126.927 27.394 125.466 27.394C124.005 27.394 122.82 28.5786 122.82 30.0398C122.82 31.501 124.005 32.6855 125.466 32.6855Z" fill="#FEFEFE"/>
<path d="M136.95 32.6855C138.411 32.6855 139.595 31.501 139.595 30.0398C139.595 28.5786 138.411 27.394 136.95 27.394C135.488 27.394 134.304 28.5786 134.304 30.0398C134.304 31.501 135.488 32.6855 136.95 32.6855Z" fill="#FEFEFE"/>
<path d="M148.429 32.6855C149.89 32.6855 151.075 31.501 151.075 30.0398C151.075 28.5786 149.89 27.394 148.429 27.394C146.968 27.394 145.783 28.5786 145.783 30.0398C145.783 31.501 146.968 32.6855 148.429 32.6855Z" fill="#FEFEFE"/>
<g opacity="0.32">
<path opacity="0.32" d="M151.619 47.8223H94.6016V53.7644H151.619V47.8223Z" fill="#D8D8DB"/>
<path opacity="0.32" d="M151.619 66.176H94.6016V72.1182H151.619V66.176Z" fill="#D8D8DB"/>
<path opacity="0.32" d="M87.8857 66.176H51.5947V72.1182H87.8857V66.176Z" fill="#D8D8DB"/>
<path opacity="0.32" d="M87.8857 84.5299H51.5947V90.472H87.8857V84.5299Z" fill="#D8D8DB"/>
<path opacity="0.32" d="M87.8857 47.8223H51.5947V53.7644H87.8857V47.8223Z" fill="#D8D8DB"/>
<path opacity="0.32" d="M124.736 84.5299H95.0895C94.82 84.5299 94.6016 84.7483 94.6016 85.0178V89.9841C94.6016 90.2536 94.82 90.472 95.0895 90.472H124.736C125.006 90.472 125.224 90.2536 125.224 89.9841V85.0178C125.224 84.7483 125.006 84.5299 124.736 84.5299Z" fill="#D8D8DB"/>
</g>
<g opacity="0.25">
<path opacity="0.25" d="M78.6672 36.0332H81.9992L96.3862 21.928H93.0543L78.6672 36.0332Z" fill="url(#paint0_linear_5_2354)"/>
<path opacity="0.25" d="M61.3408 36.0332H64.0342H73.5224L87.9175 21.928H77.0489L61.3408 36.0332Z" fill="url(#paint1_linear_5_2354)"/>
</g>
<path opacity="0.48" d="M159.357 82.777V100.417C159.357 104.383 156.442 107.632 152.84 107.632H133.007C132.602 106.34 132.329 105.011 132.19 103.665C132.126 102.979 132.086 102.305 132.086 101.607C132.081 101.502 132.081 101.398 132.086 101.293C132.086 100.71 132.126 100.123 132.178 99.5479C132.532 96.0984 133.772 92.7989 135.776 89.9691C137.78 87.1393 140.481 84.8751 143.618 83.3958C143.748 83.3323 143.891 83.2728 144.014 83.2133C146.593 82.0642 149.386 81.4722 152.209 81.4759C152.893 81.4741 153.576 81.5086 154.256 81.579C156.001 81.7567 157.716 82.1593 159.357 82.777Z" fill="url(#paint2_linear_5_2354)"/>
<path d="M179.496 105.149C179.496 105.367 179.496 105.585 179.496 105.799C179.476 106.35 179.437 106.89 179.369 107.425C178.963 111.017 177.597 114.433 175.414 117.314C173.231 120.195 170.313 122.435 166.966 123.798C163.619 125.162 159.966 125.599 156.391 125.063C152.817 124.527 149.453 123.038 146.652 120.753C145.67 119.952 144.764 119.061 143.947 118.092C141.353 115.011 139.748 111.219 139.342 107.211C139.278 106.529 139.239 105.847 139.239 105.149C139.239 105.049 139.239 104.938 139.239 104.839C139.239 104.252 139.282 103.669 139.334 103.09C139.69 99.6412 140.929 96.3426 142.932 93.5131C144.936 90.6835 147.635 88.4186 150.77 86.9375L151.166 86.7551C153.744 85.6056 156.535 85.0135 159.358 85.0176C160.044 85.016 160.73 85.0504 161.412 85.1208C163.609 85.3429 165.753 85.9273 167.759 86.8503L167.902 86.9137C169.483 87.6588 170.961 88.604 172.301 89.7261C174.556 91.6136 176.369 93.9729 177.612 96.6378C178.855 99.3026 179.499 102.208 179.496 105.149Z" fill="#00CF53"/>
<path opacity="0.46" d="M179.496 105.149C179.496 105.367 179.496 105.585 179.496 105.799C179.477 106.35 179.437 106.89 179.37 107.425C178.859 111.952 176.826 116.171 173.604 119.391C170.381 122.611 166.161 124.641 161.635 125.149C166.006 124.486 170.037 122.401 173.104 119.215C176.17 116.03 178.1 111.922 178.596 107.529C178.667 106.993 178.703 106.45 178.723 105.902C178.723 105.688 178.723 105.47 178.723 105.252C178.727 102.311 178.085 99.4057 176.842 96.7406C175.6 94.0756 173.787 91.7162 171.531 89.8293C170.189 88.708 168.71 87.7628 167.128 87.0169C167.085 86.997 167.033 86.9693 166.99 86.9534C164.984 86.0296 162.84 85.4451 160.643 85.2239C159.96 85.1533 159.274 85.1189 158.588 85.1208C157.869 85.1209 157.15 85.1593 156.434 85.2358C157.403 85.0888 158.382 85.0158 159.362 85.0176C160.048 85.016 160.734 85.0504 161.416 85.1208C163.613 85.3429 165.757 85.9273 167.763 86.8503L167.906 86.9137C169.487 87.6588 170.965 88.604 172.305 89.7261C174.56 91.6136 176.373 93.9729 177.616 96.6378C178.86 99.3026 179.503 102.208 179.5 105.149H179.496Z" fill="url(#paint3_linear_5_2354)"/>
<path d="M165.228 115.732H153.499C152.552 115.732 151.644 115.356 150.974 114.686C150.305 114.017 149.928 113.109 149.928 112.162V111.734C149.928 110.75 150.121 109.777 150.497 108.868C150.873 107.959 151.424 107.134 152.119 106.438C152.815 105.743 153.64 105.191 154.548 104.815C155.457 104.438 156.43 104.245 157.414 104.245H161.305C163.291 104.245 165.196 105.034 166.601 106.438C168.005 107.843 168.794 109.747 168.794 111.734V112.166C168.793 113.111 168.417 114.018 167.748 114.686C167.08 115.355 166.174 115.731 165.228 115.732Z" fill="#FEFEFE"/>
<path d="M159.365 101.781C162.299 101.781 164.677 99.403 164.677 96.4696C164.677 93.5362 162.299 91.1582 159.365 91.1582C156.432 91.1582 154.054 93.5362 154.054 96.4696C154.054 99.403 156.432 101.781 159.365 101.781Z" fill="#FEFEFE"/>
<g opacity="0.08">
<path opacity="0.08" d="M172.301 89.7264L143.935 118.08C141.341 114.999 139.736 111.207 139.33 107.2L161.42 85.1091C163.617 85.3312 165.761 85.9157 167.767 86.8386L167.91 86.9021C169.488 87.6514 170.964 88.6007 172.301 89.7264Z" fill="url(#paint4_linear_5_2354)"/>
<path opacity="0.08" d="M178.397 98.58L152.796 124.185C150.558 123.414 148.473 122.252 146.64 120.754L174.966 92.4237C176.465 94.2568 177.627 96.3412 178.397 98.58Z" fill="url(#paint5_linear_5_2354)"/>
</g>
<g opacity="0.18">
<path opacity="0.18" d="M0 117.037C1.25347 114.657 2.56628 112.337 3.89909 110.004C5.23189 107.672 6.63619 105.395 8.06023 103.118C9.48427 100.841 10.9837 98.6119 12.5227 96.4025C14.0618 94.193 15.6683 92.0391 17.3422 89.9129C20.7179 85.7003 24.3672 81.6504 28.6155 78.1438C30.7531 76.3532 33.0841 74.8071 35.5651 73.5345C38.1209 72.1788 40.9144 71.3289 43.7921 71.0315C45.2729 70.8921 46.7651 70.9374 48.2347 71.1664C49.7166 71.4143 51.1597 71.8558 52.5268 72.4794C55.1783 73.7699 57.5296 75.6023 59.4287 77.8582C61.2431 79.9978 62.8503 82.3048 64.2285 84.7483C65.6128 87.1283 66.8386 89.5559 68.0365 91.9637C69.2345 94.3715 70.3888 96.7634 71.6065 99.1037C72.7725 101.395 74.098 103.602 75.5732 105.708C77.0449 107.727 78.699 109.564 80.6228 110.805C81.0982 111.115 81.5923 111.394 82.1024 111.642C82.6172 111.875 83.1473 112.073 83.689 112.233C84.761 112.552 85.8748 112.707 86.9931 112.694C89.3069 112.622 91.5653 111.968 93.5581 110.79C95.7101 109.518 97.7069 108.001 99.5081 106.268C101.402 104.483 103.204 102.603 104.907 100.635C106.648 98.6516 108.326 96.6087 110.02 94.5539C116.763 86.3151 123.372 77.7193 131.186 70.1747C135.056 66.3525 139.234 62.8553 143.677 59.7185C148.142 56.5905 152.943 53.9707 157.989 51.9081C163.03 49.8864 168.307 48.5097 173.693 47.8105C176.369 47.4706 179.064 47.2944 181.761 47.2829C184.446 47.2758 187.129 47.4361 189.794 47.7629C187.124 47.6774 184.452 47.7409 181.789 47.9533C179.137 48.1522 176.5 48.5098 173.891 49.0243C168.699 50.0345 163.649 51.6743 158.854 53.9073C154.078 56.1239 149.561 58.8617 145.387 62.0708C141.206 65.2776 137.279 68.8025 133.641 72.6142C131.809 74.5182 130.03 76.4751 128.306 78.4849C126.582 80.4947 124.879 82.527 123.197 84.5817C119.849 88.7111 116.62 92.9594 113.28 97.1839C111.618 99.3021 109.913 101.396 108.124 103.459C106.344 105.556 104.459 107.56 102.475 109.465C100.421 111.446 98.1407 113.177 95.6803 114.621C94.3755 115.364 92.9935 115.961 91.5589 116.402C90.0777 116.858 88.5388 117.098 86.9892 117.117C85.4283 117.132 83.874 116.91 82.3799 116.458C81.6334 116.232 80.9042 115.953 80.1982 115.621C79.5031 115.287 78.8313 114.907 78.1872 114.483C76.9357 113.651 75.7821 112.681 74.7481 111.591C73.7495 110.545 72.8294 109.428 71.9953 108.247C70.4167 105.959 69.001 103.562 67.7588 101.075C66.5132 98.6475 65.3788 96.2121 64.2285 93.8003C63.0781 91.3886 61.9437 89.0204 60.6823 86.7475C59.4759 84.5026 58.0585 82.3774 56.4497 80.4008C54.9303 78.5162 53.0402 76.9635 50.8963 75.8391C49.8431 75.3153 48.7255 74.9325 47.5723 74.7006C46.396 74.4796 45.1967 74.4064 44.0023 74.4826C41.5358 74.664 39.1277 75.3199 36.9099 76.4143C34.5926 77.526 32.3956 78.8725 30.3531 80.4326C26.188 83.5583 22.4593 87.3465 18.9527 91.3172C15.4462 95.2878 12.1737 99.5123 9.03601 103.816C5.89837 108.12 2.93931 112.559 0 117.037Z" fill="#735CD2"/>
</g>
<path d="M0 110.25C1.25744 107.87 2.57035 105.553 3.90315 103.225C5.23596 100.897 6.64404 98.6156 8.07205 96.3427C9.50005 94.0698 10.9956 91.8366 12.5386 89.6311C14.0817 87.4256 15.6842 85.2677 17.3581 83.1416C20.7338 78.929 24.3871 74.8869 28.6355 71.3804C30.7721 69.5935 33.1002 68.0489 35.5772 66.775C38.1322 65.4258 40.9221 64.5789 43.796 64.2801C45.2742 64.1401 46.7643 64.1867 48.2308 64.4188C49.7092 64.6636 51.1485 65.1038 52.5109 65.7279C55.1584 67.016 57.5058 68.8458 59.4011 71.0988C61.2138 73.2374 62.8195 75.543 64.1967 77.9849C65.5732 80.3649 66.8028 82.7886 68.0007 85.1964C69.1987 87.6042 70.353 90.0001 71.5707 92.3364C72.7361 94.6297 74.0616 96.838 75.5374 98.9449C77.013 100.968 78.6672 102.804 80.599 104.054C81.0748 104.367 81.5718 104.647 82.0865 104.891C82.6004 105.127 83.1306 105.326 83.6732 105.486C84.7486 105.808 85.8667 105.965 86.9893 105.95C89.3113 105.877 91.5773 105.219 93.5779 104.038C95.731 102.765 97.7279 101.245 99.5279 99.5081C101.422 97.7226 103.226 95.8426 104.931 93.8755C106.668 91.8921 108.346 89.8492 110.04 87.7905C116.783 79.5517 123.388 70.9559 131.198 63.4113C135.066 59.5878 139.243 56.0894 143.685 52.9512C148.146 49.8224 152.942 47.2027 157.985 45.1408C163.024 43.1162 168.3 41.7367 173.685 41.0352C176.36 40.6926 179.053 40.5137 181.749 40.4997C184.434 40.4932 187.117 40.6523 189.782 40.9758C187.111 40.8877 184.437 40.9486 181.773 41.1582C179.122 41.3543 176.484 41.7107 173.876 42.2252C168.682 43.231 163.63 44.8682 158.834 47.1003C154.051 49.3138 149.528 52.0502 145.347 55.2597C141.163 58.4664 137.232 61.9914 133.59 65.8032C131.761 67.7033 129.984 69.6668 128.255 71.67C126.525 73.6731 124.816 75.704 123.146 77.7707C119.794 81.896 116.565 86.1444 113.229 90.3689C111.571 92.4871 109.865 94.5815 108.092 96.6442C106.311 98.7384 104.426 100.742 102.443 102.646C100.393 104.625 98.1163 106.356 95.6604 107.803C94.357 108.54 92.978 109.134 91.5471 109.576C90.07 110.031 88.5349 110.272 86.9893 110.29C85.4324 110.304 83.8824 110.081 82.392 109.631C81.647 109.406 80.9191 109.128 80.2142 108.798C79.522 108.463 78.8529 108.083 78.2111 107.66C76.9613 106.832 75.8102 105.865 74.7799 104.776C73.7826 103.732 72.8637 102.615 72.0309 101.436C70.4543 99.15 69.0401 96.7561 67.7985 94.2721C66.549 91.8445 65.4185 89.4089 64.2682 86.9972C63.1179 84.5854 61.9794 82.2373 60.718 79.9445C59.5075 77.7001 58.0877 75.5751 56.4776 73.5978C54.9585 71.7108 53.0684 70.1555 50.9242 69.0282C49.8668 68.5044 48.7452 68.1216 47.5882 67.8897C46.4119 67.669 45.2126 67.5957 44.0182 67.6715C41.5467 67.8557 39.1335 68.5129 36.9099 69.6073C34.5933 70.7233 32.3964 72.0723 30.3531 73.6334C26.1881 76.7632 22.4553 80.5553 18.9527 84.526C15.4501 88.4966 12.1776 92.7251 9.03602 97.0329C5.89441 101.341 2.93535 105.783 0 110.25Z" fill="url(#paint6_linear_5_2354)"/>
<path d="M153.046 53.6456C155.907 53.6456 158.227 51.3262 158.227 48.4651C158.227 45.6041 155.907 43.2847 153.046 43.2847C150.185 43.2847 147.866 45.6041 147.866 48.4651C147.866 51.3262 150.185 53.6456 153.046 53.6456Z" fill="url(#paint7_linear_5_2354)"/>
<path d="M87.267 113.336C90.1281 113.336 92.4475 111.017 92.4475 108.156C92.4475 105.294 90.1281 102.975 87.267 102.975C84.4058 102.975 82.0864 105.294 82.0864 108.156C82.0864 111.017 84.4058 113.336 87.267 113.336Z" fill="url(#paint8_linear_5_2354)"/>
<path d="M44.6927 71.186C47.5537 71.186 49.873 68.8666 49.873 66.0055C49.873 63.1444 47.5537 60.825 44.6927 60.825C41.8316 60.825 39.5125 63.1444 39.5125 66.0055C39.5125 68.8666 41.8316 71.186 44.6927 71.186Z" fill="url(#paint9_linear_5_2354)"/>
<path d="M62.7849 5.39056V6.53699V30.583C62.7797 31.8837 62.2598 33.1295 61.3389 34.0482C60.418 34.9669 59.1709 35.4838 57.8701 35.4858H40.4167H16.6444H15.8034C14.5047 35.4806 13.2608 34.9624 12.3424 34.044C11.4241 33.1257 10.9059 31.8817 10.9006 30.583L10.9204 5.39056C10.9214 4.09057 11.4383 2.84417 12.3575 1.92494C13.2768 1.00571 14.5232 0.488843 15.8232 0.487793H57.8701C59.1712 0.488835 60.4189 1.00528 61.34 1.92417C62.2611 2.84306 62.7807 4.08948 62.7849 5.39056Z" fill="url(#paint10_linear_5_2354)"/>
<path opacity="0.48" d="M68.5208 11.1265V36.3149C68.5187 37.6146 68.0014 38.8603 67.0824 39.7793C66.1634 40.6983 64.9176 41.2156 63.618 41.2177H40.4326V35.4858H57.886C59.1868 35.4837 60.4339 34.9669 61.3548 34.0482C62.2757 33.1295 62.7956 31.8837 62.8008 30.583V6.53708V6.21973H63.6339C64.218 6.22015 64.7972 6.32633 65.3435 6.53311C66.2774 6.88484 67.0817 7.51291 67.6494 8.33361C68.217 9.1543 68.5211 10.1286 68.5208 11.1265Z" fill="url(#paint11_linear_5_2354)"/>
<path d="M34.2881 18.8176H29.6551C29.4579 18.8176 29.2981 18.9774 29.2981 19.1746V28.9369C29.2981 29.134 29.4579 29.2938 29.6551 29.2938H34.2881C34.4853 29.2938 34.6453 29.134 34.6453 28.9369V19.1746C34.6453 18.9774 34.4853 18.8176 34.2881 18.8176Z" fill="white"/>
<path d="M44.423 6.54102H40.0518C39.7824 6.54102 39.564 6.75945 39.564 7.02891V28.8098C39.564 29.0793 39.7824 29.2977 40.0518 29.2977H44.423C44.6925 29.2977 44.9109 29.0793 44.9109 28.8098V7.02891C44.9109 6.75945 44.6925 6.54102 44.423 6.54102Z" fill="white"/>
<path d="M55.1768 12.6378V28.9408C55.1638 29.0485 55.1094 29.147 55.0249 29.2151C54.9404 29.2833 54.8328 29.3158 54.7247 29.3057H50.2779C50.1693 29.3157 50.0609 29.2827 49.9764 29.2137C49.8918 29.1447 49.8377 29.0453 49.8257 28.9368V12.6338C49.8295 12.5798 49.8445 12.5272 49.8695 12.4791C49.8944 12.4311 49.929 12.3886 49.971 12.3544C50.0129 12.3202 50.0614 12.295 50.1135 12.2803C50.1656 12.2656 50.2202 12.2617 50.2739 12.2689H54.7206C54.7752 12.2605 54.831 12.2636 54.8843 12.278C54.9376 12.2924 54.9874 12.3178 55.0303 12.3526C55.0733 12.3873 55.1085 12.4306 55.1338 12.4797C55.159 12.5288 55.1735 12.5826 55.1768 12.6378Z" fill="white"/>
<path d="M19.6133 12.2589C19.6121 12.2586 19.6123 12.2568 19.6135 12.2568H23.6177C23.7944 12.2568 23.964 12.3271 24.0889 12.4521C24.2139 12.577 24.2842 12.7466 24.2842 12.9233V28.8892C24.2842 28.9944 24.2424 29.0953 24.168 29.1697C24.0936 29.2441 23.9927 29.2859 23.8875 29.2859H19.3535C19.2483 29.2859 19.1474 29.2441 19.073 29.1697C18.9986 29.0953 18.9568 28.9944 18.9568 28.8892V12.9272C18.9568 12.8397 18.974 12.7531 19.0075 12.6723C19.041 12.5914 19.0901 12.518 19.152 12.4561C19.2139 12.3943 19.2873 12.3451 19.3682 12.3116C19.4459 12.2795 19.529 12.2623 19.6131 12.261C19.6143 12.261 19.6145 12.2591 19.6133 12.2589Z" fill="white"/>
<g opacity="0.64">
<path opacity="0.64" d="M69.7344 0.46814L71.7178 0.392823C71.7376 0.392724 71.7566 0.399955 71.7713 0.413153C71.786 0.426351 71.7953 0.444541 71.7973 0.464171C71.7978 0.474068 71.7963 0.483964 71.793 0.49331C71.7897 0.502656 71.7845 0.511307 71.7779 0.518674C71.7713 0.526041 71.7632 0.53203 71.7543 0.536293C71.7453 0.540556 71.7357 0.54295 71.7258 0.543457L69.7344 0.46814Z" fill="#735CD2"/>
<path opacity="0.64" d="M73.7364 0.337157L75.7198 0.281659C75.7469 0.277725 75.7746 0.279611 75.8008 0.287276C75.827 0.294942 75.8512 0.30824 75.8719 0.326116C75.8926 0.343992 75.9091 0.366063 75.9205 0.390913C75.9319 0.415763 75.9377 0.44272 75.9377 0.470044C75.9377 0.497368 75.9319 0.524423 75.9205 0.549273C75.9091 0.574123 75.8926 0.596193 75.8719 0.61407C75.8512 0.631946 75.827 0.645244 75.8008 0.652909C75.7746 0.660574 75.7469 0.66246 75.7198 0.658527L73.7364 0.599057C73.7017 0.599057 73.6684 0.585254 73.6438 0.560702C73.6193 0.53615 73.6055 0.502829 73.6055 0.468107C73.6055 0.433385 73.6193 0.400065 73.6438 0.375513C73.6684 0.350961 73.7017 0.337157 73.7364 0.337157Z" fill="#735CD2"/>
<path opacity="0.64" d="M77.7312 0.226115L79.7148 0.186515C79.7521 0.18546 79.7892 0.191772 79.824 0.205201C79.8589 0.218631 79.8906 0.238916 79.9176 0.264747C79.9445 0.290579 79.966 0.321532 79.9809 0.35576C79.9958 0.389989 80.0039 0.426786 80.0044 0.464105C80.0049 0.501082 79.9981 0.537795 79.9844 0.572158C79.9707 0.606522 79.9503 0.637818 79.9246 0.664333C79.8988 0.690849 79.8681 0.712057 79.8341 0.726687C79.8001 0.741317 79.7636 0.749117 79.7266 0.749634L77.743 0.710033C77.7112 0.709517 77.6799 0.702725 77.6508 0.690088C77.6216 0.677451 77.5952 0.659185 77.5731 0.636352C77.551 0.613518 77.5336 0.586509 77.522 0.556957C77.5103 0.527405 77.5044 0.495875 77.5049 0.464105C77.5067 0.403564 77.5308 0.345837 77.5725 0.301927C77.6142 0.258017 77.6708 0.230974 77.7312 0.226115Z" fill="#735CD2"/>
<path opacity="0.64" d="M81.7255 0.146661L83.7089 0.11499C83.8022 0.114967 83.8918 0.151434 83.9585 0.216685C84.0253 0.281936 84.0638 0.370736 84.0658 0.464047C84.0669 0.510223 84.0588 0.556141 84.042 0.599156C84.0252 0.642171 83.9999 0.681395 83.9678 0.714604C83.9357 0.747813 83.8973 0.774395 83.8549 0.792667C83.8125 0.810939 83.7669 0.820532 83.7207 0.821045L81.7373 0.789374C81.6949 0.789387 81.6531 0.780926 81.6141 0.764483C81.5751 0.74804 81.5397 0.723903 81.5101 0.693587C81.4805 0.663271 81.4574 0.627346 81.4419 0.587921C81.4264 0.548496 81.419 0.506387 81.42 0.464047C81.4209 0.38219 81.4531 0.303753 81.5099 0.244773C81.5667 0.185793 81.6437 0.150698 81.7255 0.146661Z" fill="#735CD2"/>
<path opacity="0.64" d="M85.7198 0.0874183L87.7032 0.0635986C87.8084 0.0635986 87.9094 0.105414 87.9838 0.179792C88.0582 0.25417 88.0999 0.355018 88.0999 0.460205C88.0999 0.565392 88.0582 0.66624 87.9838 0.740618C87.9094 0.814996 87.8084 0.856812 87.7032 0.856812L85.7198 0.832992C85.6374 0.808964 85.565 0.758919 85.5135 0.690268C85.462 0.621617 85.4343 0.538079 85.4343 0.452265C85.4343 0.366451 85.462 0.28301 85.5135 0.214359C85.565 0.145708 85.6374 0.0955664 85.7198 0.0715385V0.0874183Z" fill="#735CD2"/>
<path opacity="0.64" d="M89.7144 0.0476777L91.6977 0.027832C91.8145 0.027832 91.9264 0.0742373 92.0089 0.15678C92.0915 0.239323 92.1379 0.351284 92.1379 0.468018C92.1379 0.584751 92.0915 0.696712 92.0089 0.779255C91.9264 0.861798 91.8145 0.908203 91.6977 0.908203L89.7144 0.888357C89.6029 0.888357 89.496 0.844042 89.4171 0.765218C89.3383 0.686393 89.2939 0.579493 89.2939 0.468018C89.2939 0.356543 89.3383 0.249642 89.4171 0.170817C89.496 0.0919926 89.6029 0.0476777 89.7144 0.0476777Z" fill="#735CD2"/>
<path opacity="0.64" d="M93.7088 0.0158691H95.6921C95.8131 0.0158691 95.929 0.0638722 96.0146 0.149429C96.1001 0.234986 96.1482 0.35105 96.1482 0.472046C96.1482 0.593042 96.1001 0.709106 96.0146 0.794663C95.929 0.88022 95.8131 0.928223 95.6921 0.928223H93.7088C93.5889 0.928223 93.4739 0.880638 93.3891 0.795825C93.3043 0.711012 93.2566 0.595961 93.2566 0.476017C93.2566 0.356073 93.3043 0.241022 93.3891 0.156209C93.4739 0.0713958 93.5889 0.0237142 93.7088 0.0237142V0.0158691Z" fill="#735CD2"/>
<path opacity="0.64" d="M97.7031 0.00800864H99.6864C99.8105 0.00800864 99.9296 0.0572614 100.017 0.145041C100.105 0.232821 100.155 0.351911 100.155 0.47605C100.155 0.60019 100.105 0.719279 100.017 0.807059C99.9296 0.894839 99.8105 0.944092 99.6864 0.944092H97.7031C97.58 0.944092 97.462 0.895257 97.375 0.808221C97.288 0.721185 97.239 0.603108 97.239 0.480021C97.2369 0.41812 97.2474 0.356455 97.2698 0.298731C97.2923 0.241006 97.3264 0.188433 97.3698 0.144267C97.4132 0.1001 97.4651 0.0652366 97.5224 0.0418068C97.5797 0.018377 97.6412 0.00689363 97.7031 0.00800864Z" fill="#735CD2"/>
<path opacity="0.64" d="M101.698 0.00794187H103.681C103.801 0.00898805 103.916 0.0575104 104.001 0.142954C104.086 0.228397 104.133 0.343804 104.133 0.464115C104.134 0.523838 104.122 0.583121 104.1 0.638449C104.077 0.693776 104.044 0.744023 104.002 0.786439C103.96 0.828854 103.91 0.862543 103.855 0.885518C103.8 0.908493 103.741 0.92029 103.681 0.920288H101.698C101.576 0.920288 101.459 0.871867 101.372 0.785567C101.286 0.699267 101.238 0.582191 101.238 0.460144C101.238 0.338097 101.286 0.221021 101.372 0.134721C101.459 0.0484209 101.576 0 101.698 0V0.00794187Z" fill="#735CD2"/>
<path opacity="0.64" d="M105.692 0.0198975C106.381 0.0269675 107.068 0.0879644 107.747 0.202359C107.861 0.220245 107.962 0.282531 108.03 0.375523C108.098 0.468515 108.126 0.584596 108.108 0.698221C108.09 0.811846 108.028 0.913706 107.935 0.981404C107.842 1.0491 107.726 1.07706 107.612 1.05917C106.975 0.966121 106.332 0.918356 105.688 0.916323C105.569 0.916323 105.455 0.869158 105.371 0.785094C105.287 0.701029 105.24 0.586996 105.24 0.46811C105.24 0.349224 105.287 0.235191 105.371 0.151127C105.455 0.0670616 105.569 0.0198975 105.688 0.0198975H105.692Z" fill="#735CD2"/>
<path opacity="0.64" d="M109.75 0.702207C110.402 0.917058 111.036 1.1823 111.646 1.49552C111.693 1.51922 111.734 1.55185 111.768 1.59159C111.802 1.63132 111.828 1.67734 111.844 1.72706C111.86 1.77679 111.867 1.82919 111.863 1.88133C111.859 1.93347 111.844 1.98433 111.821 2.03095C111.797 2.07757 111.764 2.11906 111.724 2.15306C111.685 2.18707 111.639 2.21297 111.589 2.22918C111.539 2.24539 111.487 2.25164 111.435 2.24758C111.382 2.24352 111.332 2.22915 111.285 2.20545C110.708 1.91865 110.108 1.67864 109.492 1.48758C109.44 1.47117 109.392 1.44462 109.35 1.40953C109.308 1.37443 109.274 1.33149 109.249 1.28305C109.223 1.23462 109.208 1.18164 109.203 1.12724C109.198 1.07283 109.204 1.01799 109.221 0.965902C109.237 0.913812 109.264 0.865489 109.299 0.823644C109.334 0.781798 109.377 0.747289 109.425 0.722059C109.474 0.696828 109.526 0.681415 109.581 0.676641C109.635 0.671866 109.69 0.677857 109.742 0.694266L109.75 0.702207Z" fill="#735CD2"/>
<path opacity="0.64" d="M113.387 2.58653C113.938 2.99099 114.457 3.43785 114.938 3.92312C114.998 3.98717 115.032 4.07206 115.031 4.15997C115.03 4.24789 114.995 4.33206 114.934 4.39499C114.873 4.45792 114.789 4.49475 114.701 4.49773C114.613 4.50071 114.528 4.46959 114.462 4.41097C113.993 3.96613 113.49 3.55781 112.959 3.18941C112.919 3.16181 112.885 3.12656 112.858 3.08571C112.832 3.04485 112.813 2.99918 112.804 2.9513C112.796 2.90342 112.796 2.85425 112.807 2.80663C112.817 2.75901 112.836 2.71388 112.864 2.67378C112.891 2.63367 112.926 2.59937 112.967 2.57288C113.008 2.54639 113.054 2.52817 113.102 2.51933C113.15 2.51049 113.199 2.5112 113.246 2.52136C113.294 2.53152 113.339 2.55098 113.379 2.57859L113.387 2.58653Z" fill="#735CD2"/>
<path opacity="0.64" d="M116.263 5.48208C116.663 6.03378 117.018 6.61605 117.327 7.2234C117.343 7.25454 117.353 7.28863 117.355 7.32363C117.358 7.35862 117.354 7.39384 117.343 7.42715C117.332 7.46045 117.314 7.49117 117.291 7.5175C117.267 7.54383 117.239 7.56516 117.208 7.58034C117.146 7.61166 117.075 7.61804 117.009 7.59806C116.944 7.57809 116.888 7.53332 116.854 7.47324C116.536 6.90551 116.174 6.36321 115.772 5.85103C115.719 5.78686 115.694 5.70438 115.702 5.62181C115.71 5.53924 115.751 5.4633 115.815 5.41071C115.879 5.35811 115.962 5.33319 116.044 5.34137C116.127 5.34955 116.203 5.39021 116.255 5.45438L116.263 5.48208Z" fill="#735CD2"/>
<path opacity="0.64" d="M118.104 9.09961C118.308 9.74821 118.463 10.4112 118.568 11.083C118.576 11.1267 118.566 11.1717 118.541 11.2081C118.515 11.2446 118.477 11.2695 118.433 11.2774C118.389 11.2853 118.344 11.2754 118.308 11.2502C118.272 11.2249 118.247 11.1861 118.239 11.1425C118.103 10.4995 117.918 9.86817 117.684 9.25427C117.663 9.19955 117.665 9.13885 117.688 9.08538C117.712 9.0319 117.756 8.98996 117.811 8.96868C117.866 8.9478 117.927 8.94941 117.981 8.97313C118.035 8.99686 118.078 9.04084 118.1 9.09564L118.104 9.09961Z" fill="#735CD2"/>
<path opacity="0.64" d="M118.719 13.0862C118.719 13.7566 118.687 14.419 118.663 15.0696C118.662 15.0812 118.656 15.0918 118.647 15.0997C118.639 15.1076 118.627 15.1124 118.616 15.1132C118.604 15.1123 118.594 15.1074 118.586 15.0994C118.578 15.0914 118.573 15.0808 118.572 15.0696L118.505 13.0862C118.505 13.0578 118.516 13.0306 118.536 13.0105C118.556 12.9904 118.583 12.9791 118.612 12.9791C118.64 12.9791 118.667 12.9904 118.688 13.0105C118.708 13.0306 118.719 13.0578 118.719 13.0862Z" fill="#735CD2"/>
</g>
<g opacity="0.64">
<path opacity="0.64" d="M22.3246 42.4158L22.3999 44.3991C22.3999 44.4191 22.392 44.4383 22.3778 44.4524C22.3637 44.4665 22.3446 44.4745 22.3246 44.4745C22.3046 44.4745 22.2855 44.4665 22.2713 44.4524C22.2572 44.4383 22.2493 44.4191 22.2493 44.3991L22.3246 42.4158Z" fill="#735CD2"/>
<path opacity="0.64" d="M22.4555 46.4102L22.5111 48.3935C22.5121 48.4183 22.5081 48.443 22.4994 48.4663C22.4908 48.4896 22.4777 48.511 22.4607 48.5291C22.4437 48.5472 22.4231 48.5617 22.4004 48.5718C22.3777 48.5819 22.3534 48.5873 22.3286 48.5878C22.2787 48.5889 22.2303 48.5704 22.1939 48.5363C22.1575 48.5022 22.1361 48.4552 22.134 48.4054L22.1935 46.4221C22.1935 46.4048 22.1971 46.3875 22.204 46.3716C22.2108 46.3556 22.2208 46.3413 22.2334 46.3295C22.2461 46.3176 22.2611 46.3083 22.2774 46.3024C22.2937 46.2965 22.3112 46.2941 22.3286 46.2952C22.3603 46.295 22.3907 46.3067 22.4142 46.328C22.4377 46.3493 22.4525 46.3787 22.4555 46.4102Z" fill="#735CD2"/>
<path opacity="0.64" d="M22.5663 50.4046L22.606 52.3879C22.606 52.4625 22.5763 52.5342 22.5234 52.587C22.4706 52.6399 22.399 52.6696 22.3243 52.6696C22.2496 52.6696 22.1781 52.6399 22.1252 52.587C22.0724 52.5342 22.0427 52.4625 22.0427 52.3879L22.0824 50.4046C22.0824 50.3404 22.1079 50.279 22.1533 50.2336C22.1987 50.1882 22.2602 50.1627 22.3243 50.1627C22.3885 50.1627 22.45 50.1882 22.4954 50.2336C22.5407 50.279 22.5663 50.3404 22.5663 50.4046Z" fill="#735CD2"/>
<path opacity="0.64" d="M22.6457 54.3991L22.6775 56.3824C22.6775 56.476 22.6403 56.5658 22.5741 56.632C22.5079 56.6983 22.4181 56.7355 22.3245 56.7355C22.2308 56.7355 22.141 56.6983 22.0748 56.632C22.0087 56.5658 21.9714 56.476 21.9714 56.3824L22.0032 54.3991C22.0032 54.3139 22.0371 54.2321 22.0973 54.1719C22.1576 54.1116 22.2393 54.0778 22.3245 54.0778C22.4097 54.0778 22.4914 54.1116 22.5516 54.1719C22.6119 54.2321 22.6457 54.3139 22.6457 54.3991Z" fill="#735CD2"/>
<path opacity="0.64" d="M22.7052 58.3937L22.729 60.3769C22.729 60.4821 22.6872 60.583 22.6128 60.6574C22.5384 60.7317 22.4376 60.7736 22.3324 60.7736C22.2272 60.7736 22.1264 60.7317 22.052 60.6574C21.9776 60.583 21.9358 60.4821 21.9358 60.3769L21.9596 58.3937C21.9836 58.3113 22.0337 58.239 22.1023 58.1875C22.171 58.136 22.2545 58.1082 22.3403 58.1082C22.4262 58.1082 22.5097 58.136 22.5783 58.1875C22.647 58.239 22.697 58.3113 22.7211 58.3937H22.7052Z" fill="#735CD2"/>
<path opacity="0.64" d="M22.7449 62.3881L22.7646 64.3714C22.7646 64.4882 22.7182 64.6002 22.6357 64.6828C22.5531 64.7653 22.4412 64.8116 22.3245 64.8116C22.2077 64.8116 22.0958 64.7653 22.0133 64.6828C21.9307 64.6002 21.8843 64.4882 21.8843 64.3714L21.904 62.3881C21.904 62.2766 21.9484 62.1697 22.0272 62.0908C22.106 62.012 22.213 61.9677 22.3245 61.9677C22.436 61.9677 22.5429 62.012 22.6217 62.0908C22.7006 62.1697 22.7449 62.2766 22.7449 62.3881Z" fill="#735CD2"/>
<path opacity="0.64" d="M22.7766 66.3823V68.3657C22.7766 68.4867 22.7285 68.6027 22.643 68.6883C22.5574 68.7738 22.4415 68.8219 22.3205 68.8219C22.1996 68.8219 22.0834 68.7738 21.9979 68.6883C21.9123 68.6027 21.8643 68.4867 21.8643 68.3657V66.3823C21.8643 66.2624 21.9119 66.1475 21.9967 66.0627C22.0815 65.9779 22.1965 65.9302 22.3165 65.9302C22.4364 65.9302 22.5514 65.9779 22.6362 66.0627C22.721 66.1475 22.7687 66.2624 22.7687 66.3823H22.7766Z" fill="#735CD2"/>
<path opacity="0.64" d="M22.7886 70.377V72.3601C22.7886 72.4843 22.7392 72.6033 22.6514 72.6911C22.5636 72.7789 22.4447 72.8281 22.3205 72.8281C22.1964 72.8281 22.0773 72.7789 21.9895 72.6911C21.9017 72.6033 21.8523 72.4843 21.8523 72.3601V70.377C21.8523 70.2539 21.9012 70.1358 21.9883 70.0488C22.0753 69.9618 22.1933 69.913 22.3165 69.913C22.4396 69.913 22.5576 69.9618 22.6446 70.0488C22.7317 70.1358 22.7806 70.2539 22.7806 70.377H22.7886Z" fill="#735CD2"/>
<path opacity="0.64" d="M22.7845 74.3713V76.3548C22.7845 76.4758 22.7365 76.5918 22.6509 76.6774C22.5654 76.7629 22.4495 76.8109 22.3285 76.8109C22.2076 76.8109 22.0915 76.7629 22.0059 76.6774C21.9204 76.5918 21.8723 76.4758 21.8723 76.3548V74.3713C21.8723 74.3109 21.8842 74.251 21.9074 74.1952C21.9305 74.1394 21.9644 74.0887 22.0071 74.0459C22.0498 74.0032 22.1006 73.9693 22.1564 73.9462C22.2122 73.9231 22.272 73.9111 22.3324 73.9111C22.3928 73.9111 22.4526 73.9231 22.5084 73.9462C22.5642 73.9693 22.615 74.0032 22.6577 74.0459C22.7004 74.0887 22.7343 74.1394 22.7574 74.1952C22.7806 74.251 22.7925 74.3109 22.7925 74.3713H22.7845Z" fill="#735CD2"/>
<path opacity="0.64" d="M22.7726 78.3619C22.7725 79.0059 22.8204 79.6489 22.9156 80.2857C22.934 80.3993 22.9064 80.5156 22.8391 80.609C22.7717 80.7023 22.6701 80.7652 22.5565 80.7836C22.4428 80.802 22.3266 80.7745 22.2332 80.7072C22.1398 80.6399 22.0771 80.5382 22.0587 80.4246C21.9425 79.7444 21.8815 79.0558 21.8762 78.3658C21.8762 78.2469 21.9235 78.133 22.0075 78.0489C22.0916 77.9649 22.2055 77.9176 22.3244 77.9176C22.4433 77.9176 22.5572 77.9649 22.6413 78.0489C22.7254 78.133 22.7726 78.2469 22.7726 78.3658V78.3619Z" fill="#735CD2"/>
<path opacity="0.64" d="M23.348 82.1658C23.539 82.7816 23.7792 83.3812 24.066 83.9587C24.0896 84.0058 24.1036 84.0571 24.1072 84.1096C24.1108 84.1622 24.1039 84.2149 24.0869 84.2648C24.0699 84.3146 24.0432 84.3606 24.0083 84.4C23.9733 84.4394 23.931 84.4715 23.8835 84.4943C23.7902 84.5401 23.6827 84.5475 23.5841 84.5148C23.4854 84.4822 23.4035 84.4121 23.3559 84.3197C23.0444 83.7084 22.7792 83.0747 22.5626 82.4237C22.5286 82.3184 22.5374 82.2041 22.5872 82.1053C22.6369 82.0066 22.7235 81.9314 22.8283 81.896C22.88 81.8764 22.9352 81.8677 22.9904 81.8707C23.0456 81.8736 23.0996 81.8881 23.1489 81.9131C23.1982 81.9381 23.2417 81.9731 23.2767 82.0159C23.3117 82.0588 23.3372 82.1085 23.3518 82.1618L23.348 82.1658Z" fill="#735CD2"/>
<path opacity="0.64" d="M25.0456 85.6329C25.4138 86.1658 25.8222 86.6696 26.2673 87.1401C26.2991 87.1715 26.3243 87.2088 26.3415 87.25C26.3588 87.2912 26.3677 87.3354 26.3677 87.3801C26.3677 87.4247 26.3588 87.4689 26.3415 87.5101C26.3243 87.5513 26.2991 87.5887 26.2673 87.62C26.2032 87.6811 26.1179 87.7152 26.0293 87.7152C25.9407 87.7152 25.8556 87.6811 25.7915 87.62C25.3071 87.1364 24.8601 86.6167 24.4547 86.0653C24.3964 85.9869 24.3716 85.8886 24.3857 85.7919C24.3998 85.6953 24.4517 85.6081 24.53 85.5497C24.6091 85.4912 24.7079 85.4663 24.8052 85.4804C24.9026 85.4945 24.9905 85.5465 25.0497 85.625L25.0456 85.6329Z" fill="#735CD2"/>
<path opacity="0.64" d="M27.7072 88.4451C28.2194 88.8471 28.7619 89.2092 29.3296 89.528C29.3906 89.5637 29.4353 89.6217 29.4545 89.6897C29.4738 89.7578 29.4659 89.8305 29.4326 89.8929C29.3991 89.953 29.3435 89.9978 29.2777 90.0177C29.2119 90.0377 29.1408 90.0313 29.0796 90C28.4722 89.6918 27.8901 89.3363 27.3384 88.9369C27.2722 88.8896 27.2273 88.8179 27.2139 88.7375C27.2005 88.6572 27.2196 88.5748 27.267 88.5085C27.3143 88.4422 27.3861 88.3974 27.4664 88.3841C27.5468 88.3707 27.6291 88.3898 27.6954 88.4371L27.7072 88.4451Z" fill="#735CD2"/>
<path opacity="0.64" d="M31.1026 90.3569C31.7167 90.5917 32.348 90.7786 32.9909 90.9161C33.0121 90.9203 33.0323 90.9288 33.0502 90.9409C33.0681 90.953 33.0833 90.9685 33.0951 90.9866C33.1069 91.0047 33.115 91.025 33.1189 91.0462C33.1228 91.0675 33.1224 91.0893 33.1178 91.1104C33.1082 91.1521 33.0833 91.1887 33.048 91.213C33.0128 91.2372 32.9698 91.2474 32.9274 91.2413C32.2552 91.1386 31.592 90.9833 30.944 90.7772C30.916 90.7683 30.8902 90.7539 30.8679 90.7348C30.8455 90.7158 30.8271 90.6925 30.8138 90.6663C30.8006 90.6401 30.7926 90.6115 30.7904 90.5822C30.7882 90.553 30.792 90.5235 30.8012 90.4957C30.8098 90.4679 30.8238 90.4421 30.8425 90.4198C30.8612 90.3975 30.884 90.3791 30.9099 90.3658C30.9358 90.3525 30.9642 90.3445 30.9932 90.3423C31.0222 90.3401 31.0512 90.3437 31.0788 90.353L31.1026 90.3569Z" fill="#735CD2"/>
<path opacity="0.64" d="M34.9465 91.1781L36.9296 91.2456C36.9412 91.2474 36.9519 91.253 36.9598 91.2617C36.9678 91.2703 36.9726 91.2814 36.9734 91.2931C36.9734 91.3047 36.9688 91.3158 36.9606 91.324C36.9524 91.3322 36.9412 91.3368 36.9296 91.3368C36.2633 91.3606 35.6009 91.3883 34.9465 91.3962C34.9177 91.3963 34.8901 91.3851 34.8694 91.3652C34.8487 91.3452 34.8366 91.3179 34.8355 91.2892C34.835 91.2748 34.8374 91.2604 34.8425 91.2469C34.8476 91.2335 34.8553 91.2213 34.8653 91.2109C34.8753 91.2006 34.8873 91.1922 34.9006 91.1866C34.9139 91.181 34.9282 91.1781 34.9426 91.1781H34.9465Z" fill="#735CD2"/>
</g>
<path opacity="0.15" d="M201.357 48.0048L186.728 56.0809C186.603 56.149 186.459 56.1738 186.319 56.1515C186.179 56.1291 186.05 56.061 185.953 55.9577C185.855 55.8543 185.795 55.7217 185.781 55.5804C185.767 55.439 185.8 55.297 185.875 55.1765L190.77 47.4574L185.808 39.9207C185.728 39.8019 185.69 39.6598 185.701 39.5171C185.711 39.3744 185.77 39.2394 185.866 39.1337C185.963 39.0281 186.092 38.9579 186.233 38.9344C186.374 38.911 186.519 38.9356 186.645 39.0043L201.349 46.8902C201.448 46.9449 201.531 47.0252 201.59 47.1228C201.648 47.2203 201.679 47.3316 201.68 47.4452C201.68 47.5587 201.651 47.6705 201.594 47.7688C201.538 47.8672 201.456 47.9487 201.357 48.0048Z" fill="url(#paint12_linear_5_2354)"/>
<path d="M202.019 41.6817L187.386 49.7579C187.261 49.828 187.117 49.8544 186.976 49.8327C186.834 49.8111 186.705 49.7427 186.607 49.6385C186.509 49.5344 186.449 49.4003 186.436 49.258C186.424 49.1157 186.459 48.9733 186.537 48.8535L191.432 41.1264L186.469 33.5897C186.391 33.4712 186.354 33.3299 186.365 33.1882C186.376 33.0464 186.434 32.9124 186.529 32.8072C186.625 32.702 186.753 32.6317 186.893 32.6075C187.033 32.5833 187.177 32.6064 187.303 32.6734L202.011 40.5592C202.112 40.6133 202.197 40.6938 202.257 40.7922C202.316 40.8906 202.348 41.0031 202.349 41.1181C202.349 41.233 202.319 41.3461 202.261 41.4453C202.203 41.5445 202.119 41.6262 202.019 41.6817Z" fill="url(#paint13_linear_5_2354)"/>
<defs>
<linearGradient id="paint0_linear_5_2354" x1="78.6672" y1="28.9806" x2="96.3862" y2="28.9806" gradientUnits="userSpaceOnUse">
<stop stop-color="#C4EAFC" stop-opacity="0.1"/>
<stop offset="1" stop-color="#FEFEFC"/>
</linearGradient>
<linearGradient id="paint1_linear_5_2354" x1="210920" y1="91539.9" x2="212701" y2="91539.9" gradientUnits="userSpaceOnUse">
<stop stop-color="#C4EAFC" stop-opacity="0.1"/>
<stop offset="1" stop-color="#FEFEFC"/>
</linearGradient>
<linearGradient id="paint2_linear_5_2354" x1="155542" y1="90297.7" x2="156704" y2="89051.4" gradientUnits="userSpaceOnUse">
<stop stop-color="#DEE1E2"/>
<stop offset="1" stop-color="#B4BCBE"/>
</linearGradient>
<linearGradient id="paint3_linear_5_2354" x1="133643" y1="136650" x2="131654" y2="139399" gradientUnits="userSpaceOnUse">
<stop stop-color="#60B05B"/>
<stop offset="0.25" stop-color="#75BC60"/>
<stop offset="0.74" stop-color="#9AD069"/>
<stop offset="1" stop-color="#A8D86D"/>
</linearGradient>
<linearGradient id="paint4_linear_5_2354" x1="190492" y1="112102" x2="187347" y2="115354" gradientUnits="userSpaceOnUse">
<stop stop-color="#FEFEFC"/>
<stop offset="0.09" stop-color="#FEFEFC" stop-opacity="0.96"/>
<stop offset="0.25" stop-color="#FEFEFC" stop-opacity="0.86"/>
<stop offset="0.44" stop-color="#FEFEFD" stop-opacity="0.7"/>
<stop offset="0.68" stop-color="#FFFFFE" stop-opacity="0.47"/>
<stop offset="0.93" stop-color="white" stop-opacity="0.18"/>
<stop offset="1" stop-color="white" stop-opacity="0.1"/>
</linearGradient>
<linearGradient id="paint5_linear_5_2354" x1="184218" y1="108700" x2="181188" y2="111832" gradientUnits="userSpaceOnUse">
<stop stop-color="#FEFEFC"/>
<stop offset="0.09" stop-color="#FEFEFC" stop-opacity="0.96"/>
<stop offset="0.25" stop-color="#FEFEFC" stop-opacity="0.86"/>
<stop offset="0.44" stop-color="#FEFEFD" stop-opacity="0.7"/>
<stop offset="0.68" stop-color="#FFFFFE" stop-opacity="0.47"/>
<stop offset="0.93" stop-color="white" stop-opacity="0.18"/>
<stop offset="1" stop-color="white" stop-opacity="0.1"/>
</linearGradient>
<linearGradient id="paint6_linear_5_2354" x1="1.01566e+06" y1="234772" x2="1.10855e+06" y2="234772" gradientUnits="userSpaceOnUse">
<stop stop-color="#735CD2"/>
<stop offset="1" stop-color="#8F6ACC"/>
</linearGradient>
<linearGradient id="paint7_linear_5_2354" x1="84612.7" y1="67776.5" x2="84883.2" y2="67776.5" gradientUnits="userSpaceOnUse">
<stop stop-color="#FB9835"/>
<stop offset="1" stop-color="#FBBB3C"/>
</linearGradient>
<linearGradient id="paint8_linear_5_2354" x1="82828.6" y1="69395.3" x2="83099.2" y2="69395.3" gradientUnits="userSpaceOnUse">
<stop stop-color="#FB9835"/>
<stop offset="1" stop-color="#FBBB3C"/>
</linearGradient>
<linearGradient id="paint9_linear_5_2354" x1="81670.1" y1="68253" x2="81940.8" y2="68253" gradientUnits="userSpaceOnUse">
<stop stop-color="#FB9835"/>
<stop offset="1" stop-color="#FBBB3C"/>
</linearGradient>
<linearGradient id="paint10_linear_5_2354" x1="286697" y1="114367" x2="278613" y2="106553" gradientUnits="userSpaceOnUse">
<stop stop-color="#2FA2FA"/>
<stop offset="1" stop-color="#43BEFB"/>
</linearGradient>
<linearGradient id="paint11_linear_5_2354" x1="154371" y1="111253" x2="154371" y2="115393" gradientUnits="userSpaceOnUse">
<stop stop-color="#DEE1E2"/>
<stop offset="1" stop-color="#B4BCBE"/>
</linearGradient>
<linearGradient id="paint12_linear_5_2354" x1="21102.3" y1="108480" x2="21562.7" y2="108987" gradientUnits="userSpaceOnUse">
<stop stop-color="#735CD2"/>
<stop offset="1" stop-color="#8F6ACC"/>
</linearGradient>
<linearGradient id="paint13_linear_5_2354" x1="21144.4" y1="108252" x2="21605.1" y2="108759" gradientUnits="userSpaceOnUse">
<stop stop-color="#735CD2"/>
<stop offset="1" stop-color="#8F6ACC"/>
</linearGradient>
</defs>
</svg>
