<svg width="170" height="116" viewBox="0 0 170 116" fill="none" xmlns="http://www.w3.org/2000/svg">
<path opacity="0.36" d="M152.626 100.571C152.657 102.287 152.007 103.946 150.817 105.183C149.627 106.42 147.996 107.135 146.28 107.172L120.159 107.663L33.8917 109.274C32.1767 109.305 30.5197 108.654 29.2843 107.464C28.049 106.274 27.3365 104.642 27.3031 102.927L26.5098 60.9638L26.1131 40.0714C26.0823 38.3564 26.7333 36.6993 27.9233 35.464C29.1133 34.2287 30.7449 33.5161 32.4598 33.4828L61.3492 32.9432L144.848 31.3803C145.698 31.3625 146.543 31.5127 147.334 31.8223C148.126 32.132 148.849 32.595 149.461 33.1847C150.073 33.7744 150.563 34.4794 150.902 35.2589C151.241 36.0384 151.422 36.8771 151.436 37.727L152.297 83.2487L152.626 100.571Z" fill="#EFEFEF"/>
<path d="M147.327 92.8321C147.357 94.5483 146.706 96.2065 145.517 97.4442C144.327 98.6818 142.696 99.3983 140.98 99.4368L114.856 99.9247L28.6005 101.535C26.8852 101.566 25.2278 100.915 23.9918 99.7252C22.7558 98.5353 22.0423 96.9038 22.0079 95.1885L21.2145 53.2248L20.8179 32.3321C20.7881 30.6174 21.4397 28.9609 22.6294 27.7258C23.8191 26.4907 25.45 25.7778 27.1646 25.7434L56.0579 25.2079L139.552 23.6412C140.403 23.6228 141.248 23.7726 142.04 24.082C142.832 24.3914 143.555 24.8542 144.168 25.444C144.781 26.0338 145.271 26.7388 145.61 27.5186C145.949 28.2984 146.131 29.1376 146.145 29.9879L147.002 75.5096L147.327 92.8321Z" fill="#EFEFEF"/>
<path d="M134.538 33.9748L121.109 34.2256L122.122 88.4606L135.551 88.2098L134.538 33.9748Z" fill="url(#paint0_linear_5_2273)"/>
<path d="M105.093 56.0197L91.6643 56.2705L92.2759 89.0181L105.705 88.7673L105.093 56.0197Z" fill="url(#paint1_linear_5_2273)"/>
<path d="M75.1848 52.9963L61.7556 53.2471L62.4341 89.5751L75.8633 89.3243L75.1848 52.9963Z" fill="url(#paint2_linear_5_2273)"/>
<path d="M45.6927 72.0553L32.2637 72.3062L32.5966 90.1333L46.0256 89.8825L45.6927 72.0553Z" fill="url(#paint3_linear_5_2273)"/>
<path d="M40.3457 75.8309C43.3886 75.8309 45.8552 73.3641 45.8552 70.3211C45.8552 67.2782 43.3886 64.8115 40.3457 64.8115C37.3028 64.8115 34.8362 67.2782 34.8362 70.3211C34.8362 73.3641 37.3028 75.8309 40.3457 75.8309Z" fill="url(#paint4_linear_5_2273)"/>
<path opacity="0.56" d="M147.327 92.8318C147.357 94.5479 146.706 96.2062 145.517 97.4438C144.328 98.6814 142.697 99.3979 140.981 99.4364L114.856 99.9243C112.959 95.6538 112.559 90.8677 113.723 86.342C114.886 81.8162 117.544 77.816 121.266 74.9899C124.987 72.1638 129.554 70.6775 134.226 70.7718C138.898 70.8661 143.402 72.5354 147.006 75.5093L147.327 92.8318Z" fill="url(#paint5_linear_5_2273)"/>
<path d="M141.057 76.8632C141.259 77.4306 141.578 77.9494 141.993 78.3859C142.408 78.8224 142.91 79.1671 143.466 79.3975C144.022 79.628 144.621 79.7392 145.223 79.7239C145.825 79.7086 146.417 79.5672 146.961 79.3088C150.622 77.5688 154.44 81.3865 152.691 85.0383C152.432 85.5823 152.291 86.1745 152.276 86.7766C152.261 87.3786 152.372 87.9772 152.602 88.5337C152.833 89.0901 153.177 89.592 153.614 90.007C154.05 90.4219 154.569 90.7406 155.136 90.9426C158.954 92.2996 158.954 97.7004 155.136 99.0574C154.569 99.2593 154.05 99.5781 153.614 99.993C153.177 100.408 152.833 100.91 152.602 101.466C152.372 102.023 152.261 102.621 152.276 103.223C152.291 103.826 152.432 104.418 152.691 104.962C154.431 108.623 150.613 112.44 146.961 110.691C146.417 110.433 145.825 110.291 145.223 110.276C144.621 110.261 144.022 110.372 143.466 110.602C142.91 110.833 142.408 111.178 141.993 111.614C141.578 112.051 141.259 112.569 141.057 113.137C139.7 116.954 134.299 116.954 132.942 113.137C132.74 112.569 132.422 112.051 132.007 111.614C131.592 111.178 131.09 110.833 130.533 110.602C129.977 110.372 129.378 110.261 128.776 110.276C128.174 110.291 127.582 110.433 127.038 110.691C123.377 112.431 119.56 108.613 121.309 104.962C121.567 104.418 121.708 103.826 121.724 103.223C121.739 102.621 121.628 102.023 121.397 101.466C121.167 100.91 120.822 100.408 120.386 99.993C119.949 99.5781 119.43 99.2593 118.863 99.0574C115.045 97.7004 115.045 92.2996 118.863 90.9426C119.43 90.7406 119.949 90.4219 120.386 90.007C120.822 89.592 121.167 89.0901 121.397 88.5337C121.628 87.9772 121.739 87.3786 121.724 86.7766C121.708 86.1745 121.567 85.5823 121.309 85.0383C119.569 81.3774 123.386 77.5598 127.038 79.3088C127.582 79.5672 128.174 79.7086 128.776 79.7239C129.378 79.7392 129.977 79.628 130.533 79.3975C131.09 79.1671 131.592 78.8224 132.007 78.3859C132.422 77.9494 132.74 77.4306 132.942 76.8632C134.299 73.0456 139.7 73.0456 141.057 76.8632Z" fill="#00CF53"/>
<path d="M146.581 85.7467L128.699 103.629" stroke="white" stroke-width="3" stroke-linecap="round" stroke-linejoin="round"/>
<path d="M132.122 92.6039C134.034 92.6039 135.584 91.0541 135.584 89.1422C135.584 87.2303 134.034 85.6804 132.122 85.6804C130.21 85.6804 128.66 87.2303 128.66 89.1422C128.66 91.0541 130.21 92.6039 132.122 92.6039Z" fill="white"/>
<path d="M142.921 104.31C144.833 104.31 146.383 102.76 146.383 100.848C146.383 98.9365 144.833 97.3866 142.921 97.3866C141.009 97.3866 139.46 98.9365 139.46 100.848C139.46 102.76 141.009 104.31 142.921 104.31Z" fill="white"/>
<path opacity="0.21" d="M154.134 75.351L123.86 102.987C122.257 100.582 121.183 97.8644 120.707 95.0138L146.49 71.4717C149.281 72.2153 151.886 73.5369 154.134 75.351Z" fill="url(#paint6_linear_5_2273)"/>
<path opacity="0.21" d="M161.881 91.5152C161.881 91.9595 161.881 92.3918 161.833 92.8202L140.572 112.257C137.349 112.175 134.189 111.341 131.345 109.821L160.235 83.4312C161.325 85.9868 161.885 88.7369 161.881 91.5152Z" fill="url(#paint7_linear_5_2273)"/>
<g opacity="0.27">
<path opacity="0.27" d="M6.15283 95.696C7.61216 91.615 9.38936 87.6547 11.4681 83.8516C11.726 83.3716 12.0234 82.9153 12.2971 82.4433C12.5708 81.9713 12.8446 81.5032 13.154 81.055C13.7688 80.1585 14.3439 79.2344 15.042 78.3815C15.7402 77.5287 16.4226 76.6837 17.1445 75.8547L18.3107 74.6845C18.7073 74.2878 19.1358 73.9507 19.5483 73.5818C21.2567 72.1287 23.2149 70.9983 25.3277 70.2458C27.4943 69.5076 29.802 69.2797 32.0711 69.5795C33.1871 69.7537 34.285 70.0284 35.3515 70.4005C36.4027 70.7575 37.4181 71.17 38.4098 71.5429C39.3765 71.9221 40.3712 72.2258 41.3848 72.4513C41.8766 72.5605 42.3748 72.6388 42.8764 72.6854C43.1223 72.7211 43.3722 72.6854 43.6221 72.7131C43.8703 72.731 44.1195 72.731 44.3678 72.7131C44.8673 72.6878 45.3644 72.6268 45.8553 72.5307L46.593 72.3839C46.839 72.3363 47.077 72.2451 47.319 72.1817C47.8069 72.0547 48.263 71.8404 48.735 71.6659C49.1912 71.4582 49.6363 71.2265 50.0679 70.9717C50.5083 70.7337 50.9127 70.4282 51.3292 70.1466C51.7457 69.865 52.1227 69.5239 52.4956 69.1749C53.2552 68.4837 53.9569 67.7315 54.5938 66.9258C55.8881 65.2557 57.0677 63.4997 58.1243 61.6699C59.2178 59.7585 60.4094 57.9049 61.6943 56.1166C62.3843 55.1843 63.1686 54.3254 64.0346 53.5539C64.9534 52.7482 66.0113 52.1165 67.1564 51.6897C68.3274 51.2688 69.5716 51.0907 70.8136 51.1662C72.0662 51.2513 73.2848 51.6101 74.3836 52.2173C75.4158 52.7915 76.3703 53.4952 77.2238 54.3116C78.0608 55.105 78.8105 55.8984 79.5444 56.7195C81.0002 58.3379 82.3725 59.9524 83.9472 61.1582C84.6961 61.7488 85.5344 62.2161 86.4305 62.5425C87.3014 62.85 88.2267 62.973 89.1477 62.9035C90.9803 62.7806 92.6977 61.8167 94.1535 60.4482C95.6305 59.0018 96.9289 57.3838 98.021 55.6287C99.1753 53.8596 100.227 51.9952 101.27 50.1189C103.348 46.3585 105.348 42.5068 107.577 38.7583C109.763 34.9534 112.318 31.3726 115.205 28.068C118.136 24.7915 121.579 21.8761 125.546 19.8689C126.531 19.3598 127.551 18.9185 128.596 18.548L129.39 18.2584C129.648 18.1531 129.913 18.0657 130.183 17.9968L131.77 17.5406C133.908 16.9997 136.095 16.6793 138.299 16.5846L139.12 16.541C139.394 16.541 139.667 16.541 139.945 16.541L141.587 16.5608L143.226 16.6758C143.495 16.6996 143.769 16.7116 144.042 16.7393L144.856 16.8424C147.018 17.103 149.16 17.5125 151.266 18.068C153.372 18.6115 155.435 19.2977 157.47 20.0514C159.505 20.805 161.48 21.6818 163.44 22.5981C161.433 21.8048 159.402 21.0511 157.351 20.3926C155.3 19.7342 153.217 19.1629 151.115 18.7266C149.022 18.2759 146.902 17.958 144.768 17.7746L143.975 17.7072C143.705 17.6874 143.44 17.6834 143.182 17.6754L141.595 17.6198L140.008 17.6634C139.743 17.6634 139.477 17.6635 139.215 17.6913L138.422 17.7626C136.308 17.9205 134.216 18.2928 132.178 18.8734L130.667 19.3493C130.414 19.4252 130.167 19.5167 129.925 19.6231L129.195 19.9206C128.214 20.3028 127.26 20.7507 126.339 21.2613C122.652 23.3312 119.375 26.0574 116.668 29.3057C113.945 32.5831 111.527 36.1031 109.445 39.8214C107.303 43.5343 105.371 47.3819 103.317 51.2098C102.293 53.1257 101.218 55.0296 100.02 56.89C98.832 58.8106 97.4178 60.5819 95.8078 62.1658C94.9486 62.9874 93.9793 63.6856 92.9279 64.2403C91.8299 64.8175 90.6262 65.1655 89.3896 65.2636C88.1474 65.3628 86.898 65.2036 85.7204 64.7956C84.5756 64.3921 83.5039 63.8054 82.5471 63.0583C80.6907 61.6144 79.2706 59.8849 77.8386 58.2983C76.4066 56.7116 74.9944 55.1764 73.3284 54.276C72.5276 53.8222 71.6364 53.5512 70.7185 53.4827C69.798 53.4253 68.8752 53.5533 68.0052 53.8594C66.2598 54.4663 64.8041 55.8746 63.5506 57.497C62.2936 59.2054 61.1245 60.9768 60.048 62.8044C58.9186 64.7021 57.661 66.5203 56.2837 68.2465C55.5669 69.1269 54.7802 69.9481 53.9314 70.7021C53.0764 71.4743 52.1369 72.1475 51.1309 72.7091C50.6245 72.9903 50.1043 73.2459 49.5721 73.4747C49.0363 73.6887 48.4895 73.8741 47.9339 74.03C47.6523 74.1014 47.3785 74.1967 47.0929 74.2483L46.2401 74.399C45.6684 74.4969 45.0904 74.5552 44.5105 74.5735C42.1662 74.6607 39.8814 73.9745 37.8663 73.1534C36.8429 72.7567 35.883 72.3243 34.8754 71.9634C33.909 71.6014 32.9138 71.3215 31.9004 71.1264C29.8729 70.8013 27.7978 70.9465 25.8354 71.5508C23.8487 72.1969 21.9945 73.1953 20.3614 74.4981C19.9647 74.8353 19.5204 75.1368 19.1396 75.5057L17.9775 76.5845C17.2516 77.3778 16.5057 78.1196 15.8433 78.9645C15.1809 79.8094 14.5384 80.6544 13.8958 81.5152C13.5785 81.9436 13.3007 82.4036 12.9992 82.8479C12.6978 83.2922 12.3964 83.7364 12.1187 84.1965L11.2936 85.5849C11.0199 86.045 10.7383 86.5052 10.5003 86.9812L9.73466 88.4053C9.47683 88.8774 9.22291 89.3534 8.99284 89.8413C8.52081 90.8092 8.02108 91.7691 7.57681 92.7528L6.15283 95.696Z" fill="#735CD2"/>
</g>
<path d="M6.15283 91.8523C7.61216 87.7712 9.38936 83.8109 11.4681 80.0078C11.726 79.5279 12.0234 79.0716 12.2971 78.5995C12.5708 78.1275 12.8446 77.6594 13.154 77.2112C13.7688 76.3147 14.3439 75.3906 15.042 74.5378C15.7402 73.6849 16.4226 72.84 17.1445 72.0109L18.3107 70.8209C18.7073 70.4243 19.1358 70.091 19.5483 69.7181C21.2568 68.2662 23.2151 67.1372 25.3277 66.3861C27.4943 65.648 29.802 65.4201 32.0711 65.7198C33.1871 65.894 34.285 66.1688 35.3515 66.5409C36.4027 66.8979 37.4181 67.3104 38.4098 67.6793C39.3758 68.0616 40.3706 68.3666 41.3848 68.5916C41.8766 68.7008 42.3748 68.7789 42.8764 68.8256C43.1223 68.8613 43.3722 68.8257 43.6221 68.8535C43.8704 68.8693 44.1195 68.8693 44.3678 68.8535C44.8673 68.8281 45.3644 68.7672 45.8553 68.671L46.593 68.5242C46.839 68.4766 47.077 68.3854 47.319 68.3179C47.7998 68.1728 48.2725 68.002 48.735 67.8062C49.1832 67.5801 49.6435 67.3818 50.0679 67.112C50.5026 66.858 50.9236 66.5813 51.3292 66.2831C51.7259 65.9697 52.1227 65.6643 52.4956 65.3152C53.2552 64.624 53.9569 63.8718 54.5938 63.0661C55.889 61.3953 57.0687 59.6378 58.1243 57.8062C59.2177 55.8947 60.4093 54.0411 61.6943 52.2529C62.3833 51.3197 63.1676 50.4609 64.0346 49.6904C64.9534 48.8846 66.0113 48.2528 67.1564 47.826C68.3274 47.405 69.5716 47.227 70.8136 47.3024C72.0662 47.3876 73.2848 47.7463 74.3836 48.3536C75.4158 48.9277 76.3703 49.6317 77.2238 50.4481C78.0608 51.2414 78.8105 52.0347 79.5444 52.8558C81.0002 54.4702 82.3725 56.0886 83.9472 57.2945C84.697 57.8836 85.5351 58.3509 86.4305 58.679C87.3014 58.9865 88.2267 59.1093 89.1477 59.0398C90.9803 58.9168 92.6977 57.9529 94.1535 56.5844C95.6305 55.1381 96.9289 53.5201 98.021 51.765C99.1753 49.9958 100.227 48.1314 101.27 46.2552C103.348 42.4948 105.348 38.6393 107.577 34.8947C109.762 31.0892 112.317 27.5084 115.205 24.2045C118.136 20.928 121.579 18.0124 125.546 16.0013C126.532 15.4951 127.551 15.0552 128.596 14.6844L129.39 14.3908C129.648 14.2872 129.913 14.1999 130.183 14.1291L131.77 13.6769C133.908 13.1359 136.095 12.8155 138.299 12.7208L139.12 12.6772C139.394 12.6772 139.667 12.6772 139.945 12.6772L141.587 12.7011L143.226 12.8161C143.495 12.8399 143.769 12.8519 144.042 12.8796L144.856 12.9827C147.018 13.2433 149.16 13.6528 151.266 14.2083C153.372 14.7518 155.435 15.438 157.47 16.1917C159.505 16.9453 161.48 17.8221 163.44 18.7384C161.433 17.9292 159.403 17.1941 157.351 16.5329C155.292 15.8903 153.217 15.3032 151.115 14.8669C149.022 14.4143 146.902 14.0964 144.768 13.9149L143.975 13.8434C143.705 13.8434 143.44 13.8237 143.182 13.8157L141.595 13.7601L140.008 13.7998C139.743 13.7998 139.477 13.7999 139.215 13.8316L138.422 13.9029C136.308 14.0608 134.216 14.4331 132.178 15.0137L130.667 15.4896C130.414 15.5655 130.167 15.657 129.925 15.7634L129.195 16.0609C128.215 16.4434 127.261 16.8898 126.339 17.3976C122.653 19.4701 119.376 22.1976 116.668 25.446C113.945 28.7234 111.527 32.2434 109.445 35.9618C107.303 39.6706 105.371 43.5222 103.317 47.3501C102.293 49.266 101.218 51.1699 100.02 53.0303C98.8329 54.9504 97.4187 56.7204 95.8078 58.3021C94.9498 59.1262 93.9803 59.826 92.9279 60.3807C91.8292 60.9561 90.6258 61.304 89.3896 61.4039C88.1474 61.5032 86.898 61.3439 85.7204 60.936C84.5756 60.5324 83.5039 59.9457 82.5471 59.1986C80.6907 57.7547 79.2706 56.0253 77.8386 54.4386C76.4066 52.8519 74.9944 51.3127 73.3284 50.4123C72.527 49.96 71.6361 49.6892 70.7185 49.6189C69.798 49.5616 68.8752 49.6898 68.0052 49.9958C66.2598 50.6027 64.8041 52.011 63.5506 53.6294C62.2945 55.3398 61.1255 57.1124 60.048 58.9406C58.9176 60.8377 57.6601 62.6561 56.2837 64.383C55.5658 65.2624 54.7792 66.0834 53.9314 66.8384C53.0773 67.6106 52.1377 68.2826 51.1309 68.8415C50.6253 69.1243 50.1051 69.38 49.5721 69.6071C49.037 69.8242 48.4901 70.011 47.9339 70.1665C47.6523 70.2379 47.3785 70.333 47.0929 70.3846L46.2401 70.5352C45.6681 70.6312 45.0902 70.6895 44.5105 70.7098C42.1662 70.797 39.8814 70.1108 37.8663 69.2858C36.8429 68.8891 35.883 68.4607 34.8754 68.0958C33.9089 67.7351 32.9137 67.4564 31.9004 67.2627C29.8729 66.9376 27.7978 67.083 25.8354 67.6873C23.8487 68.3334 21.9945 69.3316 20.3614 70.6344C19.9647 70.9716 19.5204 71.2732 19.1396 71.6381L17.9775 72.721C17.2516 73.5143 16.5057 74.2561 15.8433 75.101C15.1809 75.9459 14.5384 76.7908 13.8958 77.6476C13.5785 78.0799 13.3007 78.5401 12.9992 78.9844C12.6978 79.4287 12.3964 79.8729 12.1187 80.333L11.2936 81.7173C11.0199 82.1814 10.7383 82.6377 10.5003 83.1176L9.73466 84.5416C9.47683 85.0137 9.22291 85.4897 8.99284 85.9776C8.52081 86.9455 8.02108 87.9054 7.57681 88.8852L6.15283 91.8523Z" fill="#735CD2"/>
<path d="M70.1949 54.9027C73.2379 54.9027 75.7046 52.4361 75.7046 49.3931C75.7046 46.3502 73.2379 43.8833 70.1949 43.8833C67.152 43.8833 64.6853 46.3502 64.6853 49.3931C64.6853 52.4361 67.152 54.9027 70.1949 54.9027Z" fill="url(#paint8_linear_5_2273)"/>
<path d="M128.636 21.8284C131.679 21.8284 134.146 19.3617 134.146 16.3188C134.146 13.2759 131.679 10.8091 128.636 10.8091C125.593 10.8091 123.127 13.2759 123.127 16.3188C123.127 19.3617 125.593 21.8284 128.636 21.8284Z" fill="url(#paint9_linear_5_2273)"/>
<path opacity="0.56" d="M56.054 25.2002C55.7876 32.8521 52.5603 40.1017 47.0524 45.4202C41.5445 50.7386 34.1864 53.7103 26.5298 53.7087C24.7442 53.7096 22.9623 53.5462 21.2066 53.2208L20.8099 32.3284C20.7791 30.6131 21.43 28.9556 22.6199 27.7197C23.8097 26.4837 25.4413 25.7701 27.1566 25.7357L56.054 25.2002Z" fill="url(#paint10_linear_5_2273)"/>
<path d="M40.5005 35.5651C37.604 39.5525 33.4637 42.4634 28.7313 43.8396C26.3438 44.5287 23.8594 44.8221 21.377 44.7083L20.4448 44.6368C19.4073 44.54 18.3776 44.3731 17.3627 44.1371C16.1921 43.8596 15.047 43.4841 13.9395 43.0145C13.4357 42.8003 12.9359 42.5742 12.4361 42.3203C8.93599 40.5601 5.96877 37.8982 3.84024 34.6091C2.04254 31.84 0.882493 28.7059 0.444132 25.4336C0.00576976 22.1614 0.299988 18.8326 1.30546 15.6879C1.38233 15.456 1.50842 15.2434 1.67501 15.0647C1.8416 14.8859 2.04483 14.7451 2.27079 14.6521C2.49675 14.5591 2.74017 14.5159 2.98433 14.5256C3.2285 14.5353 3.46759 14.5977 3.68548 14.7083L6.37502 16.0687L16.8907 21.3922L24.0664 25.0335L30.8336 28.4607L39.8858 33.0463C40.1066 33.1564 40.3008 33.3134 40.4548 33.5063C40.6088 33.6991 40.719 33.9233 40.7775 34.1631C40.836 34.4028 40.8416 34.6525 40.7938 34.8946C40.7459 35.1367 40.6458 35.3656 40.5005 35.5651Z" fill="url(#paint11_linear_5_2273)"/>
<path d="M43.6736 29.2978C43.5979 29.5306 43.4726 29.7441 43.3062 29.9236C43.1398 30.1032 42.9364 30.2446 42.7101 30.3377C42.4837 30.4309 42.2397 30.4738 41.9952 30.4634C41.7506 30.4531 41.5113 30.3897 41.2936 30.2777L31.2778 25.2042L24.5068 21.7769L24.4354 21.7413C24.1257 21.5812 23.872 21.3309 23.7077 21.0235C23.5434 20.7161 23.4762 20.3662 23.5152 20.0198L25.7245 2.33997C25.7761 1.93735 25.9692 1.56635 26.2694 1.29309C26.5695 1.01983 26.957 0.862238 27.3627 0.848575C27.5108 0.847368 27.6587 0.863195 27.8031 0.896028C29.4464 1.2983 31.0371 1.89077 32.5432 2.6613C33.1263 2.9588 33.6895 3.27224 34.2369 3.61734C38.4501 6.2308 41.668 10.1785 43.3781 14.8323C45.0882 19.486 45.1921 24.5781 43.6736 29.2978Z" fill="url(#paint12_linear_5_2273)"/>
<path d="M22.6184 2.22109L20.7304 17.2944C20.6977 17.5646 20.6001 17.8229 20.4461 18.0473C20.2921 18.2717 20.0864 18.4555 19.8461 18.5832C19.6058 18.7109 19.3381 18.7788 19.0659 18.781C18.7938 18.7831 18.5253 18.7194 18.2831 18.5954L17.3509 18.1195L6.83533 12.7922L5.10595 11.9235C4.88896 11.8127 4.6982 11.6566 4.5466 11.4659C4.39499 11.2751 4.28603 11.054 4.22702 10.8176C4.16801 10.5812 4.16037 10.335 4.20456 10.0953C4.24874 9.85572 4.34382 9.62831 4.48326 9.42849C5.44639 8.09843 6.55602 6.88098 7.79134 5.79903C11.1495 2.84151 15.3216 0.965448 19.7626 0.416136C20.1117 0.364569 20.4686 0.328954 20.8137 0.305154C21.0651 0.287081 21.3172 0.325176 21.552 0.416717C21.7868 0.508258 21.9984 0.650859 22.1712 0.834301C22.344 1.01774 22.4736 1.23749 22.551 1.47734C22.6284 1.71718 22.6515 1.97124 22.6184 2.22109Z" fill="url(#paint13_linear_5_2273)"/>
<g opacity="0.1">
<path opacity="0.1" d="M16.8987 21.4041L13.9513 43.0265C13.4476 42.8123 12.9477 42.5862 12.4479 42.3323C8.94784 40.5721 5.98059 37.91 3.85205 34.6209L6.38297 16.0808L16.8987 21.4041Z" fill="#FEFEFE"/>
<path opacity="0.1" d="M19.7625 0.432129L17.3507 18.1356L6.83496 12.7924L7.79099 5.79917C11.1512 2.84739 15.3232 0.976943 19.7625 0.432129Z" fill="#FEFEFE"/>
<path opacity="0.1" d="M30.8416 28.4725L28.7432 43.8396C26.3556 44.5287 23.8713 44.8221 21.3889 44.7083L24.0744 25.0334L30.8416 28.4725Z" fill="#FEFEFE"/>
<path opacity="0.1" d="M34.2449 3.61734L31.2857 25.2042L24.5146 21.7769L27.3706 0.848575C27.5187 0.847368 27.6664 0.863195 27.8108 0.896028C29.4541 1.2983 31.0449 1.89077 32.5511 2.6613C33.1342 2.9588 33.6975 3.27224 34.2449 3.61734Z" fill="#FEFEFE"/>
</g>
<g opacity="0.64">
<path opacity="0.64" d="M44.0703 2.61007L45.9821 2.55444C45.9959 2.55525 46.0092 2.56092 46.0193 2.57034C46.0294 2.57975 46.0359 2.59228 46.0377 2.606C46.0382 2.6131 46.0373 2.6204 46.035 2.62712C46.0326 2.63385 46.029 2.63993 46.0241 2.64515C46.0193 2.65037 46.0134 2.65452 46.0069 2.65736C46.0004 2.66019 45.9933 2.66164 45.9862 2.66162L44.0703 2.61007Z" fill="#735CD2"/>
<path opacity="0.64" d="M47.8826 2.51085L49.7948 2.47522C49.8127 2.47414 49.8305 2.47668 49.8473 2.48277C49.8641 2.48886 49.8795 2.4982 49.8925 2.51046C49.9055 2.52272 49.9158 2.53761 49.9229 2.55403C49.9299 2.57044 49.9336 2.58805 49.9335 2.60592C49.9341 2.62363 49.9311 2.64125 49.9248 2.65781C49.9185 2.67437 49.9091 2.68965 49.8969 2.70254C49.8848 2.71543 49.8703 2.72569 49.8541 2.73294C49.8379 2.74019 49.8205 2.74424 49.8028 2.74475L47.8905 2.70506C47.8649 2.70403 47.8407 2.69314 47.8229 2.67466C47.8052 2.65617 47.7954 2.63154 47.7954 2.60592C47.7969 2.58249 47.8065 2.56029 47.8223 2.54299C47.8382 2.52568 47.8594 2.51441 47.8826 2.51085Z" fill="#735CD2"/>
<path opacity="0.64" d="M51.71 2.43551L53.622 2.39579C53.6501 2.39526 53.6781 2.40023 53.7043 2.41051C53.7305 2.4208 53.7544 2.43613 53.7746 2.45566C53.7949 2.47518 53.811 2.49863 53.8223 2.52443C53.8335 2.55023 53.8396 2.57786 53.8401 2.606C53.8401 2.66253 53.8183 2.71699 53.7791 2.75769C53.7399 2.7984 53.6864 2.82229 53.6299 2.82434L51.718 2.78462C51.6713 2.78359 51.627 2.76433 51.5944 2.73096C51.5618 2.69759 51.5434 2.65267 51.5435 2.606C51.5444 2.56173 51.5623 2.51949 51.5932 2.48782C51.6242 2.45614 51.6658 2.43751 51.71 2.43551Z" fill="#735CD2"/>
<path opacity="0.64" d="M55.5339 2.36806L57.4462 2.34424C57.5166 2.34424 57.5842 2.37226 57.634 2.4221C57.6839 2.47195 57.7119 2.5395 57.7119 2.60999C57.7119 2.68047 57.6839 2.74802 57.634 2.79787C57.5842 2.84771 57.5166 2.87573 57.4462 2.87573L55.5339 2.85191C55.4697 2.85191 55.4083 2.8264 55.3629 2.78102C55.3175 2.73564 55.292 2.67416 55.292 2.60999C55.292 2.54581 55.3175 2.48414 55.3629 2.43876C55.4083 2.39338 55.4697 2.36806 55.5339 2.36806Z" fill="#735CD2"/>
<path opacity="0.64" d="M59.358 2.3202L61.2697 2.29637C61.311 2.29531 61.3521 2.3026 61.3906 2.31768C61.429 2.33276 61.464 2.35529 61.4936 2.38413C61.5232 2.41298 61.5467 2.44739 61.5627 2.48547C61.5788 2.52354 61.5871 2.56446 61.5871 2.60578C61.5877 2.64695 61.5799 2.68787 61.5647 2.7261C61.5494 2.76434 61.5268 2.79912 61.498 2.8286C61.4693 2.85807 61.4352 2.88172 61.3973 2.89796C61.3595 2.91419 61.3188 2.92282 61.2777 2.92334L59.3619 2.89951C59.2854 2.89744 59.2128 2.86562 59.1595 2.81077C59.1062 2.75593 59.0764 2.6823 59.0764 2.60578C59.0774 2.531 59.1072 2.45967 59.1597 2.40642C59.2122 2.35317 59.2833 2.32224 59.358 2.3202Z" fill="#735CD2"/>
<path opacity="0.64" d="M63.1821 2.27287L65.0978 2.24905C65.1452 2.24852 65.1923 2.25734 65.2363 2.275C65.2803 2.29266 65.3203 2.31893 65.3542 2.35208C65.3881 2.38523 65.4152 2.42469 65.4338 2.46829C65.4525 2.51188 65.4624 2.55859 65.4629 2.60599C65.4629 2.70141 65.4254 2.79304 65.3587 2.86126C65.292 2.92947 65.2011 2.96899 65.1057 2.97107L63.19 2.94725C63.1009 2.94517 63.0162 2.90835 62.9539 2.8446C62.8916 2.78085 62.8567 2.6951 62.8567 2.60599C62.8577 2.51928 62.892 2.4364 62.9526 2.37435C63.0131 2.31231 63.0954 2.27592 63.1821 2.27287Z" fill="#735CD2"/>
<path opacity="0.64" d="M67.0099 2.22522H68.9217C69.0269 2.22522 69.1278 2.26704 69.2022 2.34143C69.2765 2.41582 69.3184 2.51668 69.3184 2.62189C69.3184 2.72709 69.2765 2.82795 69.2022 2.90234C69.1278 2.97673 69.0269 3.01855 68.9217 3.01855H67.0099C66.9259 2.99572 66.8517 2.94596 66.7988 2.87678C66.7459 2.8076 66.7173 2.72291 66.7173 2.63583C66.7173 2.54875 66.7459 2.46407 66.7988 2.39489C66.8517 2.32571 66.9259 2.27595 67.0099 2.25311V2.22522Z" fill="#735CD2"/>
<path opacity="0.64" d="M70.8337 2.20129H72.7455C72.853 2.20112 72.9565 2.24218 73.0347 2.31595C73.1129 2.38972 73.1599 2.4906 73.166 2.59793C73.1694 2.65369 73.1611 2.70967 73.1414 2.76197C73.1217 2.81426 73.0912 2.86172 73.0519 2.90141C73.0126 2.9411 72.9654 2.97208 72.9132 2.99224C72.8611 3.0124 72.8052 3.02128 72.7494 3.01839H70.8376C70.7324 3.01839 70.6315 2.97657 70.5571 2.90218C70.4827 2.8278 70.4409 2.72694 70.4409 2.62175C70.4377 2.56803 70.4453 2.51435 70.4636 2.46372C70.4818 2.41308 70.5103 2.36651 70.547 2.32718C70.5838 2.28785 70.6281 2.25644 70.6774 2.2348C70.7267 2.21316 70.7799 2.20174 70.8337 2.20129Z" fill="#735CD2"/>
<path opacity="0.64" d="M74.6572 2.17773H76.5694C76.6774 2.18807 76.7776 2.23824 76.8506 2.31856C76.9236 2.39888 76.9641 2.50348 76.9641 2.61202C76.9641 2.72057 76.9236 2.82517 76.8506 2.90549C76.7776 2.98581 76.6774 3.03617 76.5694 3.04651H74.6533C74.5463 3.03622 74.4469 2.98643 74.3746 2.90685C74.3023 2.82726 74.2622 2.72361 74.2622 2.61609C74.2622 2.50857 74.3023 2.40473 74.3746 2.32515C74.4469 2.24556 74.5463 2.19577 74.6533 2.18548L74.6572 2.17773Z" fill="#735CD2"/>
<path opacity="0.64" d="M78.4853 2.1698H80.3975C80.5076 2.18024 80.6098 2.23134 80.6842 2.31314C80.7586 2.39494 80.7998 2.50145 80.7998 2.61202C80.7998 2.7226 80.7586 2.82931 80.6842 2.9111C80.6098 2.9929 80.5076 3.04401 80.3975 3.05444H78.4853C78.3763 3.04406 78.2751 2.99332 78.2014 2.91227C78.1277 2.83121 78.0869 2.72565 78.0869 2.61609C78.0869 2.50653 78.1277 2.40079 78.2014 2.31973C78.2751 2.23867 78.3763 2.18813 78.4853 2.17774V2.1698Z" fill="#735CD2"/>
<path opacity="0.64" d="M82.309 2.16187H84.221C84.3321 2.17235 84.4353 2.22383 84.5104 2.30637C84.5855 2.3889 84.627 2.49656 84.627 2.60815C84.627 2.71975 84.5855 2.82721 84.5104 2.90975C84.4353 2.99228 84.3321 3.04396 84.221 3.05444H82.309C82.1979 3.04396 82.0947 2.99228 82.0196 2.90975C81.9445 2.82721 81.9028 2.71975 81.9028 2.60815C81.9028 2.49656 81.9445 2.3889 82.0196 2.30637C82.0947 2.22383 82.1979 2.17235 82.309 2.16187Z" fill="#735CD2"/>
<path opacity="0.64" d="M86.1174 2.1659H88.0291C88.1382 2.17628 88.2396 2.227 88.3133 2.30804C88.387 2.38907 88.4277 2.4946 88.4277 2.60413C88.4277 2.71366 88.387 2.81918 88.3133 2.90022C88.2396 2.98126 88.1382 3.03197 88.0291 3.04236H86.1174C86.0073 3.03192 85.9051 2.98083 85.8307 2.89906C85.7563 2.81728 85.7151 2.7108 85.7151 2.60026C85.7151 2.48971 85.7563 2.38303 85.8307 2.30126C85.9051 2.21949 86.0073 2.16839 86.1174 2.15796V2.1659Z" fill="#735CD2"/>
<path opacity="0.64" d="M89.9569 2.17371H91.8726C91.9796 2.184 92.079 2.23379 92.1513 2.31338C92.2236 2.39296 92.2637 2.49661 92.2637 2.60413C92.2637 2.71165 92.2236 2.8153 92.1513 2.89488C92.079 2.97447 91.9796 3.02426 91.8726 3.03455H89.9569C89.8422 3.03455 89.7322 2.98896 89.6511 2.90786C89.57 2.82677 89.5244 2.71688 89.5244 2.60219C89.5254 2.48745 89.5713 2.37764 89.6521 2.29614C89.7328 2.21463 89.8422 2.16783 89.9569 2.16577V2.17371Z" fill="#735CD2"/>
<path opacity="0.64" d="M93.7847 2.18959H95.6967C95.8045 2.18959 95.9081 2.23246 95.9843 2.30871C96.0606 2.38496 96.1033 2.48831 96.1033 2.59614C96.1033 2.70397 96.0606 2.80751 95.9843 2.88376C95.9081 2.96001 95.8045 3.00269 95.6967 3.00269H93.7847C93.6807 2.99255 93.5843 2.94408 93.5141 2.86672C93.4439 2.78936 93.405 2.68878 93.405 2.58433C93.405 2.47987 93.4439 2.3791 93.5141 2.30174C93.5843 2.22438 93.6807 2.1759 93.7847 2.16577V2.18959Z" fill="#735CD2"/>
<path opacity="0.64" d="M97.6482 2.32442C98.2977 2.39893 98.9417 2.51567 99.5761 2.67361C99.6724 2.70066 99.7549 2.76298 99.8071 2.8483C99.8594 2.93363 99.8774 3.03551 99.8577 3.13359C99.8307 3.22908 99.7688 3.31095 99.6843 3.36309C99.5999 3.41523 99.4991 3.43382 99.4016 3.41519C98.7954 3.27262 98.1806 3.16936 97.5611 3.10589C97.4579 3.09391 97.3633 3.04187 97.2981 2.96102C97.2328 2.88017 97.202 2.77703 97.2121 2.67361C97.2231 2.56968 97.2746 2.47419 97.3556 2.40808C97.4365 2.34198 97.5403 2.31056 97.6444 2.32054L97.6482 2.32442Z" fill="#735CD2"/>
<path opacity="0.64" d="M101.444 3.27228C102.054 3.51004 102.647 3.78972 103.218 4.10941C103.29 4.15529 103.342 4.22684 103.363 4.30953C103.384 4.39223 103.374 4.47995 103.333 4.55499C103.292 4.63003 103.224 4.68682 103.143 4.71386C103.062 4.74089 102.974 4.73619 102.896 4.70068C102.346 4.41063 101.776 4.15879 101.191 3.94686C101.144 3.93192 101.102 3.90772 101.065 3.87596C101.029 3.84419 100.999 3.80538 100.977 3.76185C100.956 3.71831 100.944 3.67094 100.941 3.62255C100.939 3.57416 100.946 3.52591 100.963 3.48035C100.979 3.4348 101.005 3.39301 101.038 3.35752C101.071 3.32204 101.11 3.29341 101.155 3.27364C101.199 3.25386 101.246 3.24318 101.295 3.24225C101.343 3.24133 101.392 3.25034 101.437 3.26841L101.444 3.27228Z" fill="#735CD2"/>
<path opacity="0.64" d="M104.852 5.18431C105.37 5.58544 105.852 6.03157 106.292 6.51727C106.339 6.57389 106.363 6.64627 106.359 6.71986C106.354 6.79346 106.322 6.86276 106.268 6.91336C106.215 6.96395 106.144 6.99207 106.07 6.99219C105.996 6.9923 105.925 6.96437 105.871 6.91394C105.442 6.46362 104.973 6.05209 104.471 5.68422C104.404 5.63477 104.36 5.56072 104.347 5.47852C104.335 5.39632 104.356 5.31271 104.406 5.2459C104.455 5.1791 104.529 5.1346 104.611 5.12233C104.693 5.11005 104.777 5.13099 104.844 5.18044L104.852 5.18431Z" fill="#735CD2"/>
<path opacity="0.64" d="M107.47 8.09185C107.809 8.65535 108.083 9.25571 108.287 9.88114C108.297 9.91109 108.301 9.94269 108.298 9.97412C108.296 10.0056 108.287 10.0361 108.273 10.0642C108.258 10.0923 108.239 10.1171 108.214 10.1374C108.19 10.1577 108.162 10.1731 108.132 10.1826C108.073 10.2008 108.009 10.1958 107.953 10.1686C107.897 10.1414 107.853 10.0938 107.831 10.0357C107.625 9.45103 107.352 8.89208 107.018 8.36963C106.981 8.3102 106.969 8.23864 106.984 8.17049C107 8.10235 107.042 8.04301 107.101 8.00545C107.16 7.96789 107.231 7.95513 107.299 7.96981C107.368 7.98449 107.427 8.02545 107.466 8.0839L107.47 8.09185Z" fill="#735CD2"/>
<path opacity="0.64" d="M108.66 11.8088C108.66 12.134 108.679 12.4673 108.66 12.7806L108.64 13.7364C108.638 13.7823 108.618 13.8258 108.585 13.8576C108.551 13.8894 108.507 13.907 108.461 13.907C108.418 13.9041 108.376 13.885 108.345 13.8535C108.315 13.8221 108.297 13.7803 108.295 13.7364L108.275 12.7806C108.275 12.4593 108.247 12.1538 108.231 11.8444C108.235 11.7923 108.257 11.7434 108.295 11.7067C108.332 11.67 108.381 11.648 108.433 11.6451C108.485 11.6422 108.537 11.6585 108.578 11.6908C108.619 11.7231 108.646 11.7692 108.656 11.8206L108.66 11.8088Z" fill="#735CD2"/>
<path opacity="0.64" d="M108.609 15.6485L108.569 17.5643C108.568 17.5763 108.565 17.5881 108.56 17.599C108.555 17.6098 108.548 17.6197 108.539 17.6278C108.53 17.6359 108.52 17.6421 108.509 17.6462C108.498 17.6503 108.486 17.6522 108.474 17.6516C108.462 17.6522 108.45 17.6504 108.439 17.6462C108.428 17.6421 108.418 17.6356 108.409 17.6274C108.401 17.6193 108.394 17.6096 108.389 17.5988C108.385 17.5879 108.382 17.5761 108.382 17.5643L108.343 15.6485C108.343 15.6135 108.356 15.5796 108.381 15.5544C108.405 15.5292 108.438 15.5146 108.474 15.5135C108.508 15.5145 108.542 15.5284 108.567 15.5527C108.592 15.5769 108.607 15.6097 108.609 15.6445V15.6485Z" fill="#735CD2"/>
<path opacity="0.64" d="M108.521 19.4763L108.473 21.186L108.426 19.4763C108.426 19.4633 108.431 19.4506 108.439 19.4411C108.448 19.4315 108.46 19.4258 108.473 19.4248C108.486 19.4248 108.498 19.4298 108.507 19.4388C108.516 19.4477 108.521 19.4596 108.521 19.4723V19.4763Z" fill="#735CD2"/>
</g>
<g opacity="0.64">
<path opacity="0.64" d="M169.417 80.5713L169.338 78.6592C169.338 78.6381 169.346 78.6181 169.361 78.6032C169.376 78.5883 169.396 78.58 169.417 78.58C169.439 78.58 169.459 78.5883 169.474 78.6032C169.488 78.6181 169.497 78.6381 169.497 78.6592L169.417 80.5713Z" fill="#735CD2"/>
<path opacity="0.64" d="M169.27 76.7475L169.207 74.8355C169.201 74.8061 169.202 74.7758 169.209 74.7467C169.216 74.7177 169.23 74.6905 169.249 74.6673C169.268 74.6442 169.292 74.6255 169.319 74.6127C169.346 74.5999 169.375 74.5931 169.405 74.5931C169.435 74.5931 169.465 74.5999 169.492 74.6127C169.519 74.6255 169.543 74.6442 169.562 74.6673C169.581 74.6905 169.594 74.7177 169.602 74.7467C169.609 74.7758 169.61 74.8061 169.604 74.8355L169.544 76.7475C169.544 76.7661 169.539 76.7844 169.532 76.8014C169.524 76.8183 169.513 76.8335 169.499 76.8461C169.486 76.8587 169.47 76.8683 169.452 76.8746C169.435 76.8808 169.416 76.8834 169.397 76.8823C169.363 76.8803 169.331 76.8652 169.307 76.8401C169.283 76.815 169.27 76.782 169.27 76.7475Z" fill="#735CD2"/>
<path opacity="0.64" d="M169.16 72.9234L169.116 71.0116C169.111 70.9699 169.115 70.9276 169.128 70.8876C169.14 70.8476 169.161 70.8107 169.189 70.7794C169.217 70.748 169.252 70.7229 169.29 70.7058C169.328 70.6886 169.37 70.6798 169.412 70.6798C169.454 70.6798 169.495 70.6886 169.533 70.7058C169.572 70.7229 169.606 70.748 169.634 70.7794C169.662 70.8107 169.683 70.8476 169.695 70.8876C169.708 70.9276 169.712 70.9699 169.707 71.0116L169.664 72.9234C169.656 72.9848 169.626 73.0413 169.58 73.0822C169.533 73.1231 169.473 73.1458 169.412 73.1458C169.35 73.1458 169.29 73.1231 169.244 73.0822C169.197 73.0413 169.167 72.9848 169.16 72.9234Z" fill="#735CD2"/>
<path opacity="0.64" d="M169.08 69.0957L169.049 67.1838C169.043 67.133 169.049 67.0816 169.065 67.0329C169.08 66.9843 169.106 66.9396 169.14 66.9016C169.175 66.8636 169.217 66.8331 169.263 66.8123C169.31 66.7915 169.36 66.7808 169.412 66.7808C169.463 66.7808 169.513 66.7915 169.56 66.8123C169.607 66.8331 169.649 66.8636 169.683 66.9016C169.717 66.9396 169.743 66.9843 169.759 67.0329C169.775 67.0816 169.78 67.133 169.775 67.1838L169.743 69.0957C169.734 69.1773 169.695 69.2528 169.634 69.3076C169.573 69.3623 169.494 69.3926 169.412 69.3926C169.33 69.3926 169.25 69.3623 169.189 69.3076C169.128 69.2528 169.089 69.1773 169.08 69.0957Z" fill="#735CD2"/>
<path opacity="0.64" d="M169.021 65.2717V63.3598C169.021 63.2546 169.063 63.1537 169.137 63.0793C169.211 63.005 169.312 62.9631 169.417 62.9631C169.523 62.9631 169.623 63.005 169.698 63.0793C169.772 63.1537 169.814 63.2546 169.814 63.3598L169.794 65.2717C169.794 65.3769 169.752 65.4779 169.678 65.5523C169.604 65.6267 169.503 65.6683 169.398 65.6683C169.296 65.6632 169.2 65.6194 169.13 65.5455C169.06 65.4717 169.021 65.3735 169.021 65.2717Z" fill="#735CD2"/>
<path opacity="0.64" d="M168.985 61.4479V59.5359C168.985 59.4788 168.995 59.4223 169.017 59.3693C169.038 59.3164 169.07 59.2683 169.11 59.2278C169.15 59.1872 169.198 59.1548 169.251 59.1329C169.304 59.1109 169.36 59.0997 169.417 59.0997C169.532 59.0997 169.643 59.145 169.725 59.226C169.806 59.307 169.853 59.417 169.854 59.532V61.4439C169.844 61.5499 169.794 61.6483 169.715 61.7199C169.636 61.7915 169.534 61.8311 169.427 61.8311C169.321 61.8311 169.218 61.7915 169.139 61.7199C169.06 61.6483 169.011 61.5499 169.001 61.4439L168.985 61.4479Z" fill="#735CD2"/>
<path opacity="0.64" d="M168.969 57.6161V55.7001C168.963 55.638 168.971 55.5753 168.99 55.5161C169.01 55.4569 169.042 55.4025 169.084 55.3563C169.126 55.3102 169.177 55.2733 169.234 55.2481C169.291 55.2228 169.353 55.2097 169.415 55.2097C169.478 55.2097 169.539 55.2228 169.596 55.2481C169.654 55.2733 169.705 55.3102 169.747 55.3563C169.789 55.4025 169.821 55.4569 169.84 55.5161C169.86 55.5753 169.867 55.638 169.862 55.7001V57.6161C169.862 57.7329 169.815 57.8448 169.733 57.9274C169.65 58.01 169.538 58.0564 169.421 58.0564C169.304 58.0564 169.193 58.01 169.11 57.9274C169.027 57.8448 168.981 57.7329 168.981 57.6161H168.969Z" fill="#735CD2"/>
<path opacity="0.64" d="M168.969 53.7962V51.8842C168.969 51.7684 169.015 51.6575 169.097 51.5756C169.179 51.4938 169.29 51.448 169.406 51.448C169.521 51.448 169.632 51.4938 169.714 51.5756C169.796 51.6575 169.842 51.7684 169.842 51.8842V53.7962C169.848 53.8578 169.841 53.92 169.821 53.9787C169.802 54.0374 169.77 54.0913 169.728 54.1371C169.687 54.1829 169.636 54.2194 169.579 54.2444C169.523 54.2694 169.462 54.2823 169.4 54.2823C169.338 54.2823 169.276 54.2694 169.22 54.2444C169.163 54.2194 169.112 54.1829 169.071 54.1371C169.029 54.0913 168.998 54.0374 168.978 53.9787C168.958 53.92 168.951 53.8578 168.957 53.7962H168.969Z" fill="#735CD2"/>
<path opacity="0.64" d="M168.981 49.9722L169.001 48.0605C169.001 47.9553 169.043 47.8544 169.117 47.78C169.192 47.7056 169.293 47.6638 169.398 47.6638C169.503 47.6638 169.604 47.7056 169.678 47.78C169.753 47.8544 169.795 47.9553 169.795 48.0605V49.9722C169.796 50.0286 169.785 50.0846 169.765 50.1371C169.744 50.1895 169.712 50.2372 169.673 50.2775C169.633 50.3177 169.586 50.3498 169.534 50.3716C169.482 50.3934 169.426 50.4045 169.37 50.4045C169.314 50.405 169.258 50.3946 169.206 50.3735C169.153 50.3525 169.106 50.3213 169.066 50.2819C169.026 50.2425 168.994 50.1956 168.972 50.1438C168.95 50.0921 168.938 50.0364 168.938 49.9802L168.981 49.9722Z" fill="#735CD2"/>
<path opacity="0.64" d="M169.021 46.1485C169.021 45.8272 169.021 45.5059 169.021 45.2124C169.007 44.9092 168.975 44.6073 168.926 44.308C168.911 44.2128 168.934 44.1154 168.99 44.0368C169.045 43.9583 169.13 43.9048 169.225 43.8877C169.32 43.8706 169.417 43.8913 169.497 43.9454C169.577 43.9995 169.632 44.0826 169.652 44.1771C169.719 44.5053 169.763 44.838 169.783 45.1727C169.802 45.5138 169.783 45.8311 169.802 46.1485C169.802 46.2537 169.761 46.3546 169.686 46.4289C169.612 46.5033 169.511 46.5452 169.406 46.5452C169.301 46.5452 169.2 46.5033 169.125 46.4289C169.051 46.3546 169.009 46.2537 169.009 46.1485H169.021Z" fill="#735CD2"/>
<path opacity="0.64" d="M168.398 42.5705C168.144 42.0156 167.82 41.4957 167.434 41.0235C167.381 40.9625 167.355 40.883 167.361 40.8027C167.367 40.7223 167.405 40.6476 167.466 40.595C167.527 40.5424 167.606 40.5162 167.687 40.5222C167.767 40.5281 167.842 40.5658 167.894 40.6268C168.335 41.126 168.708 41.6808 169.005 42.2771C169.042 42.3567 169.047 42.4476 169.018 42.5306C168.989 42.6136 168.929 42.6821 168.85 42.7214C168.772 42.7607 168.681 42.7679 168.597 42.7412C168.513 42.7145 168.443 42.656 168.402 42.5785L168.398 42.5705Z" fill="#735CD2"/>
<path opacity="0.64" d="M166.102 39.7663C165.602 39.4027 165.058 39.104 164.483 38.8775C164.457 38.8679 164.433 38.8531 164.413 38.8339C164.392 38.8148 164.376 38.7917 164.365 38.7661C164.354 38.7405 164.348 38.713 164.348 38.6851C164.348 38.6572 164.353 38.6295 164.364 38.6038C164.384 38.5543 164.423 38.5142 164.471 38.4914C164.52 38.4686 164.575 38.4648 164.626 38.4808C165.252 38.686 165.849 38.9742 166.399 39.3378C166.431 39.3549 166.459 39.3785 166.482 39.4071C166.504 39.4357 166.52 39.4688 166.529 39.504C166.538 39.5392 166.54 39.5758 166.534 39.6117C166.528 39.6476 166.515 39.6818 166.495 39.7122C166.475 39.7427 166.449 39.7686 166.418 39.7884C166.388 39.8082 166.354 39.8215 166.318 39.8273C166.282 39.8331 166.245 39.8314 166.21 39.8223C166.175 39.8131 166.142 39.7968 166.113 39.7742L166.102 39.7663Z" fill="#735CD2"/>
<path opacity="0.64" d="M162.674 38.4251L162.21 38.3893C162.052 38.3893 161.889 38.3893 161.734 38.3893H160.774C160.759 38.3893 160.745 38.3864 160.731 38.3806C160.717 38.3747 160.705 38.3661 160.694 38.3554C160.684 38.3447 160.676 38.332 160.671 38.318C160.665 38.3041 160.663 38.2894 160.663 38.2745C160.663 38.2447 160.675 38.216 160.696 38.1945C160.716 38.1731 160.745 38.1605 160.774 38.1595C161.417 38.1595 162.043 38.1357 162.702 38.1595C162.741 38.1615 162.779 38.1787 162.806 38.2075C162.834 38.2363 162.849 38.2743 162.849 38.314C162.847 38.3536 162.829 38.391 162.801 38.4183C162.772 38.4456 162.734 38.4607 162.694 38.4607H162.674V38.4251Z" fill="#735CD2"/>
<path opacity="0.64" d="M158.862 38.3419L156.95 38.3181C156.933 38.3172 156.916 38.3097 156.904 38.2972C156.891 38.2848 156.884 38.2683 156.883 38.2508C156.883 38.2329 156.89 38.2156 156.903 38.203C156.915 38.1903 156.932 38.1832 156.95 38.1832L158.862 38.1596C158.874 38.1591 158.887 38.1609 158.898 38.1652C158.91 38.1696 158.92 38.1763 158.929 38.1848C158.938 38.1933 158.945 38.2037 158.95 38.215C158.955 38.2263 158.957 38.2385 158.957 38.2508C158.957 38.275 158.948 38.2981 158.931 38.3152C158.913 38.3323 158.89 38.3419 158.866 38.3419H158.862Z" fill="#735CD2"/>
<path opacity="0.64" d="M155.038 38.2903L153.126 38.2587L155.038 38.2269C155.048 38.2278 155.058 38.2323 155.065 38.2395C155.073 38.2468 155.077 38.2564 155.078 38.2666C155.078 38.2772 155.074 38.2871 155.066 38.2945C155.059 38.302 155.049 38.3062 155.038 38.3062V38.2903Z" fill="#735CD2"/>
</g>
<defs>
<linearGradient id="paint0_linear_5_2273" x1="99572.1" y1="248256" x2="99717" y2="256012" gradientUnits="userSpaceOnUse">
<stop stop-color="#DEE1E2"/>
<stop offset="1" stop-color="#B4BCBE"/>
</linearGradient>
<linearGradient id="paint1_linear_5_2273" x1="96682.8" y1="149264" x2="96770.2" y2="153947" gradientUnits="userSpaceOnUse">
<stop stop-color="#DEE1E2"/>
<stop offset="1" stop-color="#B4BCBE"/>
</linearGradient>
<linearGradient id="paint2_linear_5_2273" x1="95963.2" y1="166365" x2="96060.3" y2="171560" gradientUnits="userSpaceOnUse">
<stop stop-color="#DEE1E2"/>
<stop offset="1" stop-color="#B4BCBE"/>
</linearGradient>
<linearGradient id="paint3_linear_5_2273" x1="93319" y1="80553.2" x2="93366.7" y2="83102.7" gradientUnits="userSpaceOnUse">
<stop stop-color="#DEE1E2"/>
<stop offset="1" stop-color="#B4BCBE"/>
</linearGradient>
<linearGradient id="paint4_linear_5_2273" x1="103326" y1="88196.7" x2="103632" y2="88196.7" gradientUnits="userSpaceOnUse">
<stop stop-color="#FB9835"/>
<stop offset="1" stop-color="#FBBB3C"/>
</linearGradient>
<linearGradient id="paint5_linear_5_2273" x1="246542" y1="140662" x2="246482" y2="139143" gradientUnits="userSpaceOnUse">
<stop stop-color="#DEE1E2"/>
<stop offset="1" stop-color="#B4BCBE"/>
</linearGradient>
<linearGradient id="paint6_linear_5_2273" x1="242707" y1="149646" x2="240247" y2="152287" gradientUnits="userSpaceOnUse">
<stop stop-color="#FEFEFC"/>
<stop offset="1" stop-color="#C4EAFC" stop-opacity="0.1"/>
</linearGradient>
<linearGradient id="paint7_linear_5_2273" x1="222611" y1="137899" x2="220463" y2="140203" gradientUnits="userSpaceOnUse">
<stop stop-color="#FEFEFC"/>
<stop offset="1" stop-color="#C4EAFC" stop-opacity="0.1"/>
</linearGradient>
<linearGradient id="paint8_linear_5_2273" x1="104187" y1="87594.4" x2="104493" y2="87594.4" gradientUnits="userSpaceOnUse">
<stop stop-color="#FB9835"/>
<stop offset="1" stop-color="#FBBB3C"/>
</linearGradient>
<linearGradient id="paint9_linear_5_2273" x1="105867" y1="86641.6" x2="106173" y2="86641.6" gradientUnits="userSpaceOnUse">
<stop stop-color="#FB9835"/>
<stop offset="1" stop-color="#FBBB3C"/>
</linearGradient>
<linearGradient id="paint10_linear_5_2273" x1="246262" y1="132650" x2="243702" y2="134450" gradientUnits="userSpaceOnUse">
<stop stop-color="#DEE1E2"/>
<stop offset="1" stop-color="#B4BCBE"/>
</linearGradient>
<linearGradient id="paint11_linear_5_2273" x1="280716" y1="140095" x2="280498" y2="141678" gradientUnits="userSpaceOnUse">
<stop stop-color="#2FA2FA"/>
<stop offset="1" stop-color="#37D3FB"/>
</linearGradient>
<linearGradient id="paint12_linear_5_2273" x1="147050" y1="136776" x2="148187" y2="136776" gradientUnits="userSpaceOnUse">
<stop stop-color="#735CD2"/>
<stop offset="1" stop-color="#8F6ACC"/>
</linearGradient>
<linearGradient id="paint13_linear_5_2273" x1="127933" y1="85527.2" x2="127206" y2="84800.9" gradientUnits="userSpaceOnUse">
<stop stop-color="#FB9835"/>
<stop offset="1" stop-color="#FBBB3C"/>
</linearGradient>
</defs>
</svg>
