<svg width="140" height="144" viewBox="0 0 140 144" fill="none" xmlns="http://www.w3.org/2000/svg">
<path d="M51.1378 118.048L42.2485 143.277H49.7019L61.5125 124.299" fill="url(#paint0_linear_5_2194)"/>
<path d="M103.367 118.048L112.256 143.277H104.803L92.9957 124.299" fill="url(#paint1_linear_5_2194)"/>
<path d="M123.308 81.8648C123.324 93.6847 118.788 105.057 110.641 113.621C102.494 122.184 91.362 127.282 79.5559 127.854C78.7969 127.893 78.0307 127.911 77.2645 127.911C70.7341 127.907 64.2794 126.514 58.3286 123.824C52.3778 121.134 47.0672 117.209 42.7493 112.31C38.4315 107.411 35.2051 101.649 33.2844 95.4077C31.3637 89.1661 30.7926 82.5874 31.6091 76.1082C32.4255 69.629 34.6109 63.3975 38.0199 57.8275C41.429 52.2575 45.9837 47.4763 51.382 43.8014C56.7802 40.1264 62.8984 37.6417 69.3304 36.5122C75.7624 35.3827 82.3612 35.6344 88.6885 37.2503C90.4468 37.699 92.1767 38.2525 93.8689 38.9079C102.538 42.2612 109.989 48.1588 115.243 55.8258C120.497 63.4928 123.309 72.5702 123.308 81.8648Z" fill="url(#paint2_linear_5_2194)"/>
<path d="M77.2642 116.86C96.5913 116.86 112.259 101.192 112.259 81.8647C112.259 62.5375 96.5913 46.8698 77.2642 46.8698C57.937 46.8698 42.2693 62.5375 42.2693 81.8647C42.2693 101.192 57.937 116.86 77.2642 116.86Z" fill="white"/>
<path d="M77.2648 106.502C90.8719 106.502 101.903 95.4718 101.903 81.8648C101.903 68.2577 90.8719 57.2271 77.2648 57.2271C63.6577 57.2271 52.6269 68.2577 52.6269 81.8648C52.6269 95.4718 63.6577 106.502 77.2648 106.502Z" fill="url(#paint3_linear_5_2194)"/>
<path d="M77.2652 96.8329C85.5318 96.8329 92.2335 90.1313 92.2335 81.8646C92.2335 73.5979 85.5318 66.8964 77.2652 66.8964C68.9985 66.8964 62.2972 73.5979 62.2972 81.8646C62.2972 90.1313 68.9985 96.8329 77.2652 96.8329Z" fill="white"/>
<path d="M78.9798 32.2453C79.6501 32.2453 80.1933 31.7021 80.1933 31.0319C80.1933 30.3617 79.6501 29.8183 78.9798 29.8183C78.3095 29.8183 77.7662 30.3617 77.7662 31.0319C77.7662 31.7021 78.3095 32.2453 78.9798 32.2453Z" fill="#735CD2"/>
<g opacity="0.19">
<path opacity="0.19" d="M135.027 43.3937L130.946 57.9144C130.911 58.0379 130.837 58.1464 130.734 58.2228C130.631 58.2992 130.506 58.3391 130.378 58.3362C130.249 58.3334 130.126 58.2878 130.026 58.2069C129.927 58.126 129.858 58.0142 129.829 57.8893L127.967 49.8522L119.973 48.2626C119.847 48.2379 119.732 48.1717 119.648 48.0745C119.564 47.9774 119.515 47.8549 119.508 47.7265C119.501 47.5981 119.538 47.4712 119.612 47.366C119.686 47.2607 119.793 47.1831 119.916 47.1456L134.3 42.6885C134.399 42.6576 134.505 42.654 134.606 42.6781C134.706 42.7021 134.799 42.7529 134.873 42.8251C134.948 42.8973 135.001 42.9883 135.028 43.0883C135.055 43.1884 135.055 43.2939 135.027 43.3937Z" fill="url(#paint4_linear_5_2194)"/>
<path opacity="0.19" d="M9.20996 129.243C11.2816 127.019 13.3711 124.812 15.4785 122.624C17.5764 120.418 19.6923 118.242 21.8081 116.058C23.9239 113.874 26.0432 111.701 28.1733 109.535C30.3034 107.369 32.4227 105.192 34.5672 103.041C38.8632 98.7447 43.1199 94.4128 47.4553 90.1526C51.7907 85.8923 56.0689 81.5891 60.4294 77.3575C60.6097 77.182 60.8294 77.0522 61.0702 76.9791C61.311 76.9059 61.5658 76.8915 61.8133 76.9371C62.0608 76.9827 62.2939 77.0869 62.4928 77.241C62.6918 77.3951 62.8509 77.5947 62.9569 77.823L68.1443 89.1502C69.0142 91.0333 69.8557 92.9343 70.7113 94.8281L73.2638 100.51L70.7578 99.9977L77.6924 93.6646L84.6663 87.3745C89.3203 83.1679 93.9921 79.0151 98.6712 74.8443C101.005 72.7572 103.365 70.7022 105.717 68.6365C108.069 66.5708 110.421 64.5016 112.795 62.4574C117.527 58.3546 122.278 54.2735 127.093 50.2567C122.693 54.7245 118.236 59.1244 113.758 63.5028C111.527 65.7045 109.272 67.874 107.023 70.0507C104.775 72.2274 102.527 74.4112 100.254 76.5664C95.725 80.8875 91.2033 85.2193 86.6316 89.4974L79.7902 95.9415L72.9093 102.332C72.7571 102.474 72.5784 102.584 72.3835 102.656C72.1886 102.729 71.9814 102.762 71.7736 102.754C71.5658 102.747 71.3615 102.698 71.1725 102.612C70.9834 102.525 70.8133 102.402 70.6718 102.25C70.5594 102.127 70.4665 101.988 70.3962 101.838L67.8006 96.1742C66.9414 94.284 66.0608 92.4044 65.2159 90.507L60.1036 79.144L62.6383 79.6237C58.2778 83.8517 53.8565 88.0189 49.4566 92.2075C45.0568 96.3962 40.6068 100.531 36.1819 104.695C33.9694 106.775 31.7247 108.822 29.498 110.888C27.2712 112.954 25.0337 115.012 22.7854 117.057C20.5372 119.101 18.2997 121.156 16.0335 123.182C13.7674 125.208 11.4904 127.235 9.20996 129.243Z" fill="url(#paint5_linear_5_2194)"/>
</g>
<path d="M10.7079 121.55C12.7462 119.287 14.8034 117.046 16.8798 114.826C18.9419 112.589 21.0363 110.387 23.1271 108.178L26.2631 104.87L29.428 101.587C31.5402 99.4035 33.6344 97.2017 35.7646 95.0322C37.8947 92.8627 40.0105 90.6861 42.1478 88.5273C44.2851 86.3685 46.4188 84.2098 48.5632 82.0581C52.8593 77.7621 57.171 73.4828 61.498 69.2202C61.9108 68.8147 62.4675 68.5895 63.0461 68.5942C63.6247 68.5989 64.1778 68.8331 64.5839 69.2453C64.7551 69.4218 64.8966 69.6249 65.0027 69.8467L65.0207 69.886C66.7714 73.6522 68.4826 77.4364 70.2118 81.2097L75.3383 92.5692L71.8263 91.8532L78.7824 85.5451L85.7706 79.2694C90.4462 75.1046 95.1407 70.9612 99.8545 66.8394C102.207 64.7737 104.587 62.7367 106.961 60.6925C109.334 58.6483 111.701 56.5969 114.121 54.5849C116.541 52.573 118.9 50.5324 121.32 48.5419C123.74 46.5514 126.153 44.5465 128.599 42.5811C126.451 44.8627 124.273 47.1182 122.065 49.3474C119.881 51.5956 117.658 53.8045 115.449 56.0277C113.24 58.2509 111.006 60.4455 108.776 62.6436C106.546 64.8417 104.322 67.0471 102.07 69.2238C97.5811 73.5914 93.0655 77.9292 88.5237 82.2371L81.6966 88.6812L74.8372 95.111C74.4109 95.5086 73.8445 95.7208 73.262 95.7014C72.6795 95.6819 72.1284 95.4323 71.7296 95.0072C71.5692 94.8354 71.4365 94.6397 71.336 94.4272V94.3986L66.1591 83.0642C64.455 79.2765 62.7331 75.496 61.054 71.6975L64.5732 72.3635C60.1889 76.5664 55.7818 80.7431 51.3521 84.8936C49.1372 86.9724 46.9165 89.0452 44.6897 91.1121C42.4629 93.179 40.2206 95.2447 37.9628 97.3091C35.7288 99.3677 33.4662 101.398 31.2215 103.445L27.8456 106.506L24.4409 109.542C22.1712 111.565 19.9086 113.591 17.6102 115.585C15.3118 117.579 13.0314 119.584 10.7079 121.55Z" fill="url(#paint6_linear_5_2194)"/>
<path d="M132.781 38.7754L128.596 53.2676C128.56 53.3909 128.485 53.4988 128.381 53.5743C128.277 53.6498 128.151 53.6885 128.023 53.6844C127.895 53.6803 127.772 53.6336 127.673 53.5517C127.575 53.4697 127.506 53.357 127.479 53.2318L125.689 45.1837L117.705 43.537C117.58 43.5099 117.467 43.4421 117.385 43.3442C117.302 43.2464 117.254 43.124 117.248 42.996C117.243 42.8681 117.28 42.7417 117.353 42.6369C117.427 42.532 117.533 42.4545 117.655 42.4164L132.072 38.063C132.17 38.0368 132.274 38.037 132.372 38.0636C132.471 38.0902 132.56 38.1422 132.632 38.2144C132.704 38.2866 132.756 38.3765 132.782 38.475C132.808 38.5735 132.807 38.6771 132.781 38.7754Z" fill="url(#paint7_linear_5_2194)"/>
<path opacity="0.13" d="M110.041 125.502C106.457 124.509 103.307 122.349 101.091 119.362C99.9755 117.858 99.1156 116.18 98.5452 114.397L98.3519 113.72C98.1468 112.963 97.9949 112.193 97.8972 111.415C97.7841 110.515 97.748 109.607 97.7897 108.701C97.8076 108.289 97.8364 107.878 97.8829 107.455C98.2076 104.521 99.3086 101.727 101.073 99.3606C102.556 97.364 104.465 95.7222 106.662 94.5538C108.858 93.3855 111.286 92.7199 113.771 92.6051C113.956 92.5979 114.14 92.6311 114.31 92.7022C114.481 92.7733 114.634 92.8807 114.759 93.0169C114.884 93.1532 114.978 93.315 115.034 93.4912C115.091 93.6673 115.108 93.8536 115.085 94.0371L114.827 96.2889L113.832 105.117L113.144 111.139L112.5 116.82L111.641 124.414C111.62 124.596 111.56 124.772 111.465 124.929C111.37 125.086 111.242 125.221 111.09 125.324C110.938 125.428 110.766 125.497 110.585 125.528C110.403 125.558 110.218 125.55 110.041 125.502Z" fill="url(#paint8_linear_5_2194)"/>
<path d="M115.382 125.906C111.798 124.912 108.649 122.752 106.432 119.767C105.317 118.261 104.456 116.584 103.883 114.801L103.689 114.125C103.486 113.367 103.334 112.597 103.235 111.819C103.123 110.919 103.087 110.011 103.127 109.105C103.149 108.694 103.177 108.278 103.224 107.86C103.67 103.898 105.515 100.227 108.427 97.5044C111.339 94.7822 115.126 93.1884 119.109 93.0097C119.294 93.0027 119.478 93.0358 119.648 93.1069C119.819 93.178 119.973 93.2854 120.098 93.4216C120.223 93.5577 120.317 93.7194 120.374 93.8955C120.431 94.0717 120.448 94.2581 120.426 94.4417L120.168 96.6971L119.169 105.522L118.482 111.547L117.841 117.225L116.982 124.822C116.96 125.003 116.899 125.179 116.804 125.335C116.708 125.491 116.581 125.625 116.429 125.728C116.277 125.831 116.105 125.9 115.925 125.931C115.744 125.962 115.559 125.953 115.382 125.906Z" fill="url(#paint9_linear_5_2194)"/>
<path opacity="0.13" d="M124.006 128.889C123.821 128.897 123.637 128.864 123.466 128.793C123.295 128.722 123.142 128.615 123.017 128.478C122.891 128.342 122.798 128.18 122.742 128.003C122.686 127.827 122.669 127.64 122.693 127.457L123.645 119.051L124.286 113.373V113.312C124.317 113.051 124.427 112.807 124.601 112.61C124.775 112.414 125.004 112.275 125.259 112.213L138.323 109.127C138.621 109.058 138.934 109.097 139.206 109.237C139.478 109.378 139.692 109.61 139.809 109.893C139.847 109.998 139.874 110.105 139.891 110.215C140.038 111.482 140.038 112.761 139.891 114.028C139.834 114.518 139.762 114.998 139.662 115.46C138.927 119.125 136.987 122.439 134.149 124.873C131.312 127.307 127.741 128.721 124.006 128.889Z" fill="url(#paint10_linear_5_2194)"/>
<path d="M120.638 126.486C120.453 126.494 120.268 126.461 120.097 126.39C119.926 126.319 119.772 126.212 119.647 126.076C119.522 125.94 119.427 125.778 119.371 125.601C119.314 125.425 119.297 125.238 119.32 125.054L120.276 116.648L120.917 110.97V110.91C120.948 110.649 121.057 110.404 121.231 110.207C121.405 110.011 121.636 109.872 121.891 109.811L134.954 106.728C135.252 106.658 135.565 106.697 135.837 106.836C136.11 106.976 136.323 107.208 136.44 107.491C136.478 107.595 136.505 107.703 136.519 107.813C136.667 109.08 136.667 110.359 136.519 111.626C136.461 112.116 136.386 112.596 136.286 113.058C135.553 116.722 133.613 120.036 130.777 122.47C127.941 124.903 124.371 126.318 120.638 126.486Z" fill="url(#paint11_linear_5_2194)"/>
<path opacity="0.13" d="M136.39 101.229L125.241 103.857C125.042 103.905 124.834 103.904 124.635 103.855C124.436 103.805 124.252 103.708 124.098 103.572C123.944 103.436 123.826 103.265 123.753 103.073C123.679 102.882 123.653 102.675 123.677 102.472L123.77 101.688L124.769 92.8628L124.93 91.4308C124.951 91.2482 125.011 91.0723 125.106 90.9149C125.201 90.7576 125.329 90.6224 125.481 90.5185C125.632 90.4147 125.804 90.3446 125.986 90.313C126.167 90.2814 126.352 90.289 126.53 90.3353C127.722 90.6655 128.872 91.129 129.96 91.7171C132.929 93.3144 135.349 95.7681 136.905 98.7591C137.03 98.9919 137.152 99.2353 137.263 99.4752C137.337 99.6465 137.373 99.8319 137.368 100.018C137.363 100.205 137.317 100.388 137.234 100.555C137.151 100.722 137.032 100.869 136.886 100.986C136.74 101.102 136.571 101.185 136.39 101.229Z" fill="url(#paint12_linear_5_2194)"/>
<path d="M134.227 104.512L123.075 107.143C122.876 107.191 122.668 107.189 122.469 107.14C122.271 107.09 122.087 106.993 121.934 106.857C121.781 106.721 121.663 106.55 121.589 106.359C121.516 106.168 121.49 105.961 121.514 105.758L121.607 104.974L122.606 96.1492L122.767 94.6956C122.79 94.5148 122.851 94.341 122.947 94.1859C123.042 94.0308 123.17 93.8979 123.321 93.7962C123.473 93.6944 123.644 93.6263 123.823 93.5962C124.003 93.5661 124.187 93.5747 124.363 93.6216C125.556 93.9518 126.708 94.4154 127.797 95.0036C130.767 96.5997 133.187 99.0537 134.742 102.045C134.867 102.278 134.986 102.522 135.1 102.761C135.175 102.932 135.211 103.118 135.206 103.304C135.202 103.491 135.156 103.674 135.073 103.841C134.989 104.008 134.87 104.155 134.724 104.271C134.578 104.387 134.408 104.469 134.227 104.512Z" fill="url(#paint13_linear_5_2194)"/>
<g opacity="0.1">
<path opacity="0.1" d="M119.176 105.511L103.12 109.109C103.141 108.697 103.17 108.282 103.216 107.863C103.541 104.93 104.64 102.136 106.402 99.7685L120.161 96.686L119.176 105.511Z" fill="#FEFEFE"/>
<path opacity="0.1" d="M134.743 102.027L121.608 104.974L122.606 96.149L127.797 94.9855C130.767 96.5817 133.188 99.0356 134.743 102.027Z" fill="#FEFEFE"/>
<path opacity="0.1" d="M117.848 117.214L106.446 119.767C105.331 118.261 104.47 116.584 103.896 114.801L118.496 111.533L117.848 117.214Z" fill="#FEFEFE"/>
<path opacity="0.1" d="M136.291 113.09L120.274 116.67L120.915 110.992L136.445 107.512C136.484 107.616 136.51 107.724 136.524 107.834C136.673 109.101 136.673 110.38 136.524 111.647C136.467 112.134 136.392 112.614 136.291 113.09Z" fill="#FEFEFE"/>
</g>
<path opacity="0.15" d="M47.8798 23.9578C47.8798 24.4698 47.8797 24.9674 47.8188 25.465C47.4661 31.1668 45.0826 36.5536 41.1 40.6492C37.1174 44.7447 31.7994 47.2781 26.1097 47.7901C25.3937 47.8617 24.6776 47.8903 23.9437 47.8903C23.7253 47.8903 23.5034 47.8903 23.285 47.8903C19.5646 47.7972 15.9175 46.8362 12.6344 45.0836C9.15741 43.2023 6.19401 40.4982 4.00302 37.2076C2.15381 34.4315 0.911812 31.2961 0.358493 28.0068C0.121415 26.7171 0.00159175 25.4087 0.000489946 24.0974V23.9685C-0.000877965 20.3001 0.840922 16.6806 2.46088 13.3893C4.08085 10.098 6.43562 7.2231 9.34334 4.98659C12.2511 2.75009 15.634 1.21177 19.2307 0.490568C22.8275 -0.230635 26.5419 -0.115446 30.087 0.827158H30.1049C35.1983 2.19045 39.6997 5.19618 42.9108 9.37826C46.122 13.5603 47.8635 18.6851 47.8655 23.9578H47.8798Z" fill="#735CD2"/>
<path d="M22.2122 24.3856L19.9703 27.6058L18.7 29.4259L13.5688 36.7926C13.552 36.818 13.5324 36.8414 13.5104 36.8624C13.4727 36.9001 13.4254 36.9268 13.3737 36.9396C13.322 36.9525 13.2677 36.951 13.2168 36.9354C13.1897 36.9262 13.1647 36.9117 13.1432 36.8928C13.1218 36.8739 13.1043 36.8508 13.0919 36.8251C13.0756 36.7931 13.0652 36.7585 13.061 36.7229L12.5435 31.663C12.5433 31.6469 12.54 31.6309 12.5338 31.616C12.5304 31.6012 12.5249 31.5871 12.5176 31.5738C12.5127 31.5599 12.505 31.5472 12.4949 31.5365C12.4936 31.5323 12.4915 31.5285 12.4887 31.5251C12.486 31.5218 12.4825 31.519 12.4786 31.517C12.4675 31.5036 12.4537 31.4925 12.4381 31.4846C12.4094 31.4638 12.3764 31.45 12.3415 31.4441C12.3066 31.4382 12.2708 31.4404 12.2369 31.4505L7.3085 32.7175C7.05056 32.7808 6.90618 32.5001 7.07002 32.2649L14.0344 22.2653L14.4465 21.6748L15.7102 19.8578C15.7497 19.7898 15.814 19.7398 15.8897 19.7183C15.9654 19.6968 16.0464 19.7055 16.1158 19.7426L19.1445 21.8516L20.1601 22.554L21.6201 23.5663L22.183 23.9589C22.2134 23.9847 22.2383 24.0163 22.2563 24.0519C22.2743 24.0875 22.2849 24.1263 22.2876 24.1661C22.2904 24.2058 22.2851 24.2458 22.2721 24.2834C22.2592 24.3211 22.2388 24.3559 22.2122 24.3856Z" fill="url(#paint14_linear_5_2194)"/>
<path d="M22.212 24.3856L13.5686 36.7959C13.4064 37.0295 13.0933 36.9889 13.0641 36.7277L12.5417 31.6663C12.5395 31.6304 12.5294 31.5955 12.512 31.5641C12.4946 31.5326 12.4704 31.5055 12.4412 31.4846L19.146 21.8564L22.1796 23.9654C22.2395 24.0169 22.2766 24.09 22.2826 24.1688C22.2887 24.2475 22.2633 24.3255 22.212 24.3856Z" fill="url(#paint15_linear_5_2194)"/>
<path d="M40.6262 32.7175L35.6913 31.4505C35.6574 31.4407 35.6217 31.4387 35.5868 31.4446C35.552 31.4505 35.519 31.4641 35.4902 31.4845C35.4748 31.4897 35.4616 31.5 35.4528 31.5137L35.4366 31.5397C35.4315 31.5433 35.4271 31.5479 35.4238 31.5532C35.4204 31.5584 35.4182 31.5643 35.4172 31.5705C35.4098 31.5838 35.4043 31.5979 35.4009 31.6127C35.3995 31.6283 35.3995 31.6441 35.4009 31.6597L34.8753 36.7196C34.8753 36.7407 34.8753 36.7569 34.8656 36.7731C34.8572 36.8026 34.8441 36.8306 34.8266 36.8559C34.8001 36.8879 34.7661 36.913 34.7277 36.9289C34.6747 36.9441 34.6185 36.9441 34.5655 36.9289C34.4858 36.9039 34.4171 36.8524 34.3708 36.7828L29.0335 29.1209L27.8104 27.3689L25.7193 24.3855C25.678 24.3313 25.6548 24.2654 25.6531 24.1973C25.6513 24.1291 25.6711 24.0622 25.7095 24.0059C25.7223 23.991 25.737 23.9779 25.7533 23.967L26.0259 23.7788L27.1712 22.9806L28.7821 21.8564L31.8125 19.7475C31.8817 19.7099 31.9629 19.701 32.0387 19.7225C32.1145 19.744 32.1789 19.7943 32.218 19.8626L33.0065 20.9982L33.2871 21.4006L40.8615 32.2697C41.0253 32.4968 40.8777 32.7807 40.6262 32.7175Z" fill="url(#paint16_linear_5_2194)"/>
<path d="M35.489 31.483C35.4765 31.4919 35.4651 31.5022 35.4549 31.5138C35.4549 31.5138 35.4436 31.53 35.4371 31.5381C35.4299 31.5485 35.4234 31.5593 35.4176 31.5705C35.4101 31.5836 35.4052 31.5979 35.403 31.6127C35.3968 31.6277 35.3935 31.6436 35.3933 31.6598L34.8693 36.7212C34.8693 36.7407 34.8693 36.7553 34.8596 36.7748C34.8509 36.8037 34.8377 36.831 34.8206 36.8559C34.7929 36.8869 34.7585 36.9113 34.72 36.9273C34.6671 36.9432 34.6107 36.9432 34.5578 36.9273C34.4773 36.9039 34.4078 36.8527 34.3615 36.7829L29.0259 29.1209L27.806 27.3673L25.7181 24.3856C25.6775 24.3316 25.6548 24.2664 25.6531 24.1989C25.6513 24.1315 25.6707 24.0651 25.7084 24.0092C25.7218 23.9944 25.7364 23.9808 25.7522 23.9686L26.0263 23.7788L27.17 22.9807L28.7826 21.8564L30.9515 24.9679L31.8292 26.2301L35.489 31.483Z" fill="url(#paint17_linear_5_2194)"/>
<path d="M19.9702 27.6057L18.6999 29.4259C17.5452 28.7372 16.5455 27.8171 15.7637 26.7232C14.8211 25.407 14.2277 23.8732 14.0392 22.2652L14.4512 21.6747C14.8881 23.0041 15.6083 24.2228 16.5619 25.2467C17.5156 26.2707 18.6801 27.0755 19.975 27.6057H19.9702Z" fill="url(#paint18_linear_5_2194)"/>
<path d="M33.2842 21.3908C33.2378 23.1047 32.7336 24.775 31.8242 26.2284C31.1022 27.3801 30.148 28.3686 29.0225 29.1307L27.7993 27.3786C29.0834 26.7617 30.2157 25.8692 31.1155 24.7647C32.0153 23.6602 32.6605 22.3708 33.0052 20.9885L33.2842 21.3908Z" fill="url(#paint19_linear_5_2194)"/>
<path d="M33.2842 18.6622C33.2846 19.0717 33.2586 19.4808 33.2064 19.887C33.1604 20.2559 33.0916 20.6216 33.0004 20.982C32.6655 22.3279 32.0451 23.586 31.1812 24.671C30.3173 25.756 29.2302 26.6425 27.9935 27.2703C26.7568 27.8981 25.3996 28.2525 24.0138 28.3096C22.6281 28.3666 21.2463 28.1249 19.9622 27.6009C18.6688 27.0702 17.5058 26.2652 16.5536 25.2416C15.6013 24.2179 14.8825 22.9999 14.4465 21.6715C14.2548 21.0911 14.12 20.4935 14.0442 19.887C13.9912 19.4809 13.9652 19.0717 13.9663 18.6622C13.9663 16.0996 14.9843 13.642 16.7963 11.83C18.6083 10.018 21.066 9 23.6285 9C26.1911 9 28.6487 10.018 30.4607 11.83C32.2728 13.642 33.2907 16.0996 33.2907 18.6622H33.2842Z" fill="url(#paint20_linear_5_2194)"/>
<path d="M24.0776 13.6121L25.4127 16.318C25.4488 16.3909 25.5021 16.4539 25.568 16.5017C25.6338 16.5494 25.7102 16.5805 25.7907 16.5922L28.7757 17.0253C28.8685 17.0386 28.9558 17.0777 29.0275 17.1381C29.0992 17.1986 29.1526 17.2779 29.1815 17.3671C29.2104 17.4563 29.2137 17.5519 29.191 17.6429C29.1683 17.7339 29.1205 17.8167 29.0531 17.8819L26.8938 19.9908C26.8356 20.0474 26.792 20.1173 26.7669 20.1944C26.7417 20.2716 26.7357 20.3537 26.7495 20.4337L27.2588 23.4122C27.2747 23.5043 27.2644 23.5991 27.2292 23.6857C27.1941 23.7723 27.1353 23.8474 27.0597 23.9024C26.9841 23.9574 26.8947 23.9902 26.8014 23.997C26.7082 24.0038 26.6149 23.9845 26.5321 23.9411L23.8618 22.5378C23.7899 22.4994 23.7097 22.4794 23.6282 22.4794C23.5467 22.4794 23.4665 22.4994 23.3946 22.5378L20.7244 23.9411C20.6416 23.9845 20.5483 24.0038 20.455 23.997C20.3618 23.9902 20.2723 23.9574 20.1967 23.9024C20.1211 23.8474 20.0624 23.7723 20.0272 23.6857C19.992 23.5991 19.9818 23.5043 19.9976 23.4122L20.507 20.4386C20.5207 20.3586 20.5147 20.2765 20.4896 20.1993C20.4644 20.1221 20.4208 20.0523 20.3626 19.9957L18.2018 17.8868C18.1349 17.8212 18.0877 17.7383 18.0654 17.6473C18.0432 17.5564 18.0468 17.461 18.0758 17.372C18.1048 17.283 18.158 17.2038 18.2296 17.1434C18.3012 17.083 18.3881 17.0438 18.4808 17.0302L21.4657 16.5971C21.5462 16.5853 21.6227 16.5543 21.6885 16.5065C21.7543 16.4588 21.8076 16.3958 21.8437 16.3229L23.1789 13.617C23.2198 13.5329 23.2835 13.4621 23.3626 13.4123C23.4418 13.3625 23.5332 13.3359 23.6267 13.3354C23.7202 13.3349 23.8119 13.3605 23.8916 13.4094C23.9713 13.4583 24.0357 13.5285 24.0776 13.6121Z" fill="white"/>
<path opacity="0.21" d="M31.7162 14.2917L13.6192 30.8171C12.6601 29.3786 12.016 27.7535 11.7291 26.0485L27.141 11.9718C28.812 12.4154 30.3709 13.2059 31.7162 14.2917Z" fill="url(#paint21_linear_5_2194)"/>
<path opacity="0.21" d="M36.3446 23.9578C36.3446 24.2228 36.3445 24.4805 36.3159 24.7383L23.6035 36.3519C21.675 36.3029 19.7847 35.8039 18.0832 34.8948L35.3601 19.114C36.0139 20.645 36.3489 22.2931 36.3446 23.9578Z" fill="url(#paint22_linear_5_2194)"/>
<g opacity="0.57">
<path opacity="0.57" d="M78.7752 30.8169L78.7145 29.6965C78.714 29.6885 78.715 29.6805 78.7176 29.673C78.7202 29.6654 78.7243 29.6584 78.7296 29.6524C78.735 29.6465 78.7415 29.6416 78.7487 29.6381C78.7558 29.6346 78.7637 29.6325 78.7717 29.6321C78.7882 29.6311 78.8044 29.6364 78.817 29.6471C78.8296 29.6578 78.8377 29.673 78.8395 29.6894L78.7752 30.8169Z" fill="#735CD2"/>
<path opacity="0.57" d="M78.6244 27.6774L78.5814 26.5568C78.5776 26.529 78.5798 26.5006 78.5879 26.4737C78.5959 26.4468 78.6097 26.4219 78.6282 26.4007C78.6467 26.3796 78.6694 26.3626 78.6949 26.351C78.7205 26.3394 78.7483 26.3334 78.7764 26.3334C78.8044 26.3334 78.8322 26.3394 78.8578 26.351C78.8833 26.3626 78.9062 26.3796 78.9247 26.4007C78.9431 26.4219 78.9568 26.4468 78.9649 26.4737C78.9729 26.5006 78.9751 26.529 78.9713 26.5568L78.9285 27.6774C78.9229 27.7137 78.9045 27.7469 78.8766 27.7708C78.8487 27.7947 78.8131 27.8079 78.7764 27.8079C78.7396 27.8079 78.7041 27.7947 78.6763 27.7708C78.6484 27.7469 78.63 27.7137 78.6244 27.6774Z" fill="#735CD2"/>
<path opacity="0.57" d="M78.5065 24.552C78.4767 24.1969 78.4119 23.8455 78.3131 23.5031C78.2913 23.4281 78.3002 23.3475 78.3378 23.279C78.3754 23.2105 78.4386 23.1598 78.5136 23.1379C78.5887 23.1161 78.6693 23.1249 78.7378 23.1625C78.8063 23.2001 78.857 23.2633 78.8789 23.3383C78.9669 23.7214 79.0161 24.1125 79.0257 24.5054C79.0295 24.5747 79.0056 24.6428 78.9593 24.6945C78.9129 24.7462 78.8478 24.7773 78.7785 24.7811C78.7092 24.7849 78.6412 24.761 78.5895 24.7147C78.5378 24.6683 78.5068 24.6034 78.503 24.5341L78.5065 24.552Z" fill="#735CD2"/>
<path opacity="0.57" d="M77.4861 21.7951C77.2805 21.5098 77.0468 21.246 76.7882 21.0076C76.7518 20.9754 76.7224 20.9362 76.7017 20.8922C76.6809 20.8483 76.6692 20.8005 76.6676 20.7519C76.6659 20.7034 76.6742 20.655 76.6919 20.6097C76.7095 20.5644 76.7361 20.5232 76.7702 20.4886C76.8023 20.4527 76.8414 20.4238 76.885 20.4034C76.9286 20.3831 76.976 20.3716 77.0242 20.37C77.0723 20.3683 77.1203 20.3763 77.1652 20.3936C77.2102 20.411 77.2511 20.4372 77.2856 20.4707C77.565 20.753 77.8158 21.0623 78.0339 21.3942C78.0796 21.4708 78.095 21.5618 78.0771 21.6492C78.0592 21.7366 78.0094 21.8141 77.9373 21.8667C77.8655 21.9091 77.7812 21.9252 77.6989 21.9121C77.6165 21.8991 77.5412 21.8577 77.4861 21.7951Z" fill="#735CD2"/>
<path opacity="0.57" d="M75.2232 19.9765C74.9044 19.8366 74.5721 19.7299 74.2315 19.6579C74.1748 19.651 74.1202 19.6323 74.0711 19.603C74.022 19.5738 73.9794 19.5347 73.9463 19.4881C73.9131 19.4416 73.89 19.3886 73.8784 19.3326C73.8669 19.2767 73.867 19.2189 73.879 19.163C73.8909 19.1071 73.9145 19.0544 73.948 19.0081C73.9815 18.9617 74.0242 18.9229 74.0735 18.894C74.1229 18.8651 74.1777 18.8469 74.2345 18.8403C74.2913 18.8338 74.3488 18.8392 74.4034 18.8561C74.7924 18.9519 75.1713 19.0849 75.5347 19.2534C75.5822 19.275 75.6249 19.3058 75.6604 19.344C75.6959 19.3822 75.7233 19.4271 75.7413 19.4761C75.7593 19.525 75.7674 19.5771 75.7651 19.6292C75.7628 19.6813 75.7503 19.7324 75.728 19.7796C75.6844 19.8702 75.6079 19.9409 75.5143 19.9774C75.4206 20.014 75.3167 20.0136 75.2232 19.9765Z" fill="#735CD2"/>
<path opacity="0.57" d="M72.3315 19.5433H71.2072C71.0914 19.5433 70.9804 19.4973 70.8985 19.4154C70.8166 19.3335 70.7705 19.2224 70.7705 19.1066C70.7701 19.0494 70.7808 18.9927 70.8023 18.9397C70.8239 18.8868 70.8558 18.8386 70.896 18.798C70.9363 18.7574 70.9843 18.7252 71.0371 18.7032C71.0899 18.6812 71.1465 18.6699 71.2037 18.6699H72.3315C72.4392 18.6797 72.5392 18.7294 72.6121 18.8092C72.685 18.889 72.7254 18.9931 72.7254 19.1012C72.7254 19.2092 72.685 19.3134 72.6121 19.3932C72.5392 19.4731 72.4392 19.5227 72.3315 19.5326V19.5433Z" fill="#735CD2"/>
<path opacity="0.57" d="M69.1734 19.5576H68.0527C67.9941 19.5581 67.936 19.547 67.8818 19.5249C67.8275 19.5028 67.7781 19.4702 67.7365 19.4289C67.6949 19.3876 67.662 19.3385 67.6395 19.2844C67.617 19.2303 67.6052 19.1723 67.6052 19.1137C67.6052 18.9951 67.6524 18.8812 67.7363 18.7973C67.8203 18.7134 67.934 18.6663 68.0527 18.6663H69.1734C69.2353 18.6607 69.2976 18.6681 69.3565 18.688C69.4153 18.7078 69.4695 18.7398 69.5154 18.7817C69.5612 18.8237 69.5978 18.8747 69.6229 18.9315C69.6479 18.9884 69.6608 19.0498 69.6608 19.1119C69.6608 19.174 69.6479 19.2355 69.6229 19.2924C69.5978 19.3492 69.5612 19.4003 69.5154 19.4422C69.4695 19.4841 69.4153 19.516 69.3565 19.5359C69.2976 19.5557 69.2353 19.5632 69.1734 19.5576Z" fill="#735CD2"/>
<path opacity="0.57" d="M66.0332 19.5505H64.9125C64.804 19.5406 64.7032 19.4905 64.6297 19.41C64.5562 19.3296 64.5154 19.2245 64.5154 19.1155C64.5154 19.0065 64.5562 18.9015 64.6297 18.821C64.7032 18.7405 64.804 18.6905 64.9125 18.6806H66.0332C66.0941 18.6751 66.1555 18.6823 66.2134 18.7019C66.2714 18.7214 66.3247 18.7528 66.3699 18.7941C66.4151 18.8353 66.4512 18.8855 66.4758 18.9415C66.5005 18.9975 66.5132 19.0579 66.5132 19.1191C66.5132 19.1803 66.5005 19.2408 66.4758 19.2968C66.4512 19.3527 66.4151 19.403 66.3699 19.4442C66.3247 19.4855 66.2714 19.5168 66.2134 19.5363C66.1555 19.5559 66.0941 19.5632 66.0332 19.5577V19.5505Z" fill="#735CD2"/>
<path opacity="0.57" d="M62.895 19.5291H61.7741C61.6739 19.5196 61.5808 19.4731 61.513 19.3986C61.4452 19.3241 61.4077 19.2271 61.4077 19.1263C61.4077 19.0256 61.4452 18.9286 61.513 18.8541C61.5808 18.7796 61.6739 18.7331 61.7741 18.7236H62.895C62.953 18.7182 63.0114 18.725 63.0666 18.7435C63.1219 18.762 63.1727 18.7918 63.2158 18.8311C63.2588 18.8703 63.2933 18.9182 63.3168 18.9715C63.3403 19.0248 63.3525 19.0824 63.3525 19.1407C63.3525 19.1989 63.3403 19.2566 63.3168 19.3099C63.2933 19.3632 63.2588 19.411 63.2158 19.4503C63.1727 19.4895 63.1219 19.5193 63.0666 19.5378C63.0114 19.5563 62.953 19.5631 62.895 19.5578V19.5291Z" fill="#735CD2"/>
<path opacity="0.57" d="M59.7538 19.4862L58.6334 19.4611C58.5384 19.4611 58.4472 19.4234 58.3801 19.3563C58.313 19.2892 58.2754 19.1981 58.2754 19.1032C58.2754 19.0083 58.313 18.9172 58.3801 18.85C58.4472 18.7829 58.5384 18.7453 58.6334 18.7453L59.7538 18.7202C59.8026 18.7173 59.8514 18.7243 59.8974 18.741C59.9433 18.7577 59.9854 18.7836 60.0209 18.8171C60.0565 18.8506 60.0848 18.8911 60.1041 18.936C60.1235 18.9809 60.1334 19.0293 60.1333 19.0781C60.1368 19.1272 60.13 19.1765 60.1136 19.2228C60.0971 19.2692 60.0713 19.3117 60.0377 19.3476C60.0041 19.3836 59.9635 19.4122 59.9183 19.4317C59.8732 19.4512 59.8245 19.4613 59.7753 19.4611L59.7538 19.4862Z" fill="#735CD2"/>
<path opacity="0.57" d="M56.6149 19.4183L55.4906 19.3825C55.455 19.3816 55.4199 19.3736 55.3874 19.359C55.355 19.3444 55.3257 19.3236 55.3014 19.2976C55.2771 19.2716 55.2582 19.241 55.2458 19.2076C55.2334 19.1742 55.2278 19.1388 55.2292 19.1032C55.231 19.0345 55.2591 18.969 55.3077 18.9203C55.3563 18.8717 55.4218 18.8436 55.4906 18.8418L56.6149 18.806C56.6903 18.8141 56.7601 18.8499 56.8108 18.9064C56.8616 18.9629 56.8895 19.0362 56.8895 19.1121C56.8895 19.1881 56.8616 19.2613 56.8108 19.3179C56.7601 19.3744 56.6903 19.4101 56.6149 19.4183Z" fill="#735CD2"/>
<path opacity="0.57" d="M53.4722 19.3214L52.3516 19.2785C52.3116 19.2727 52.2752 19.2526 52.2488 19.2221C52.2224 19.1915 52.2079 19.1524 52.2079 19.112C52.2079 19.0717 52.2224 19.0326 52.2488 19.0021C52.2752 18.9715 52.3116 18.9515 52.3516 18.9456L53.4722 18.9026C53.4998 18.9012 53.5274 18.9053 53.5533 18.9146C53.5793 18.9239 53.6033 18.9383 53.6236 18.957C53.644 18.9757 53.6604 18.9982 53.6719 19.0233C53.6834 19.0484 53.6898 19.0755 53.6908 19.1031C53.6918 19.1583 53.6714 19.2117 53.6341 19.2524C53.5968 19.2931 53.5453 19.3178 53.4902 19.3214H53.4722Z" fill="#735CD2"/>
<path opacity="0.57" d="M50.3312 19.189L49.2108 19.1281C49.1929 19.1281 49.2108 19.1281 49.2108 19.1281L50.3312 19.0672C50.3414 19.0662 50.3517 19.0673 50.3614 19.0704C50.3712 19.0735 50.3801 19.0786 50.3878 19.0853C50.3955 19.092 50.4018 19.1002 50.4062 19.1094C50.4106 19.1186 50.4131 19.1286 50.4135 19.1388C50.4145 19.149 50.4135 19.1592 50.4104 19.169C50.4073 19.1787 50.4022 19.1878 50.3955 19.1955C50.3888 19.2032 50.3806 19.2094 50.3714 19.2138C50.3622 19.2183 50.3522 19.2207 50.342 19.2212L50.3312 19.189Z" fill="#735CD2"/>
</g>
<g opacity="0.57">
<path opacity="0.57" d="M27.3936 76.0077L26.2732 76.0721C26.2649 76.0726 26.2566 76.0715 26.2488 76.0686C26.2409 76.0658 26.2338 76.0613 26.2278 76.0556C26.2217 76.0499 26.2169 76.0431 26.2136 76.0354C26.2103 76.0278 26.2087 76.0196 26.2087 76.0113C26.2082 76.0033 26.2094 75.9953 26.212 75.9877C26.2147 75.9802 26.2186 75.9732 26.2239 75.9672C26.2293 75.9612 26.2358 75.9564 26.243 75.9529C26.2502 75.9494 26.2581 75.9474 26.2661 75.947L27.3936 76.0077Z" fill="#735CD2"/>
<path opacity="0.57" d="M24.2542 76.1651L23.1338 76.2081C23.106 76.2119 23.0777 76.2097 23.0508 76.2016C23.0239 76.1935 22.9989 76.1798 22.9777 76.1613C22.9565 76.1428 22.9397 76.12 22.9281 76.0944C22.9164 76.0689 22.9104 76.0411 22.9104 76.013C22.9104 75.9849 22.9164 75.9572 22.9281 75.9316C22.9397 75.9061 22.9565 75.8833 22.9777 75.8648C22.9989 75.8463 23.0239 75.8326 23.0508 75.8245C23.0777 75.8164 23.106 75.8142 23.1338 75.8179L24.2542 75.8609C24.2743 75.8614 24.2941 75.8658 24.3125 75.874C24.3308 75.8823 24.3472 75.8941 24.3609 75.9087C24.3746 75.9234 24.3851 75.9407 24.392 75.9595C24.3989 75.9784 24.402 75.9984 24.4011 76.0184C24.3993 76.0568 24.3833 76.0931 24.3562 76.1202C24.329 76.1474 24.2926 76.1634 24.2542 76.1651Z" fill="#735CD2"/>
<path opacity="0.57" d="M21.1009 76.2656C20.7079 76.256 20.3169 76.2069 19.9338 76.1188C19.8578 76.1017 19.7917 76.0552 19.75 75.9894C19.7084 75.9235 19.6947 75.8439 19.7118 75.7679C19.7289 75.6919 19.7755 75.6259 19.8413 75.5842C19.9071 75.5426 19.9867 75.5288 20.0626 75.5458H20.0805C20.4229 75.6446 20.7744 75.7094 21.1296 75.7392C21.1989 75.743 21.2638 75.7742 21.3102 75.826C21.3565 75.8777 21.3804 75.9456 21.3766 76.015C21.3728 76.0843 21.3416 76.1492 21.2899 76.1956C21.2382 76.2419 21.1702 76.2658 21.1009 76.262V76.2656Z" fill="#735CD2"/>
<path opacity="0.57" d="M17.9857 75.2918C17.6537 75.0736 17.3443 74.8229 17.0619 74.5435C17.0276 74.5101 17.0001 74.4703 16.9812 74.4264C16.9622 74.3824 16.9521 74.3351 16.9515 74.2872C16.9508 74.2393 16.9596 74.1918 16.9773 74.1474C16.995 74.1029 17.0214 74.0623 17.0548 74.0279C17.0882 73.9936 17.1279 73.9662 17.1719 73.9473C17.2159 73.9283 17.2632 73.9183 17.3111 73.9176C17.3589 73.917 17.4064 73.9257 17.4509 73.9434C17.4954 73.9611 17.536 73.9874 17.5703 74.0208C17.8097 74.2773 18.0736 74.5099 18.358 74.7153C18.4046 74.7754 18.4307 74.8487 18.4329 74.9246C18.435 75.0005 18.4131 75.0751 18.3701 75.1377C18.3271 75.2003 18.2652 75.2476 18.1935 75.2728C18.1219 75.2979 18.044 75.2995 17.9713 75.2775L17.9857 75.2918Z" fill="#735CD2"/>
<path opacity="0.57" d="M15.8308 72.7857C15.6629 72.4208 15.5297 72.0409 15.4334 71.6509C15.416 71.5481 15.4383 71.4425 15.4956 71.3555C15.5529 71.2685 15.6411 71.2065 15.7423 71.1819C15.8436 71.1574 15.9504 71.1722 16.0412 71.2233C16.1319 71.2745 16.2 71.3582 16.2315 71.4576C16.3034 71.7982 16.4102 72.1305 16.55 72.4492C16.5768 72.541 16.5696 72.6393 16.5297 72.7261C16.4899 72.813 16.4201 72.8826 16.3332 72.9222C16.2462 72.9618 16.148 72.9687 16.0564 72.9417C15.9647 72.9146 15.8858 72.8554 15.8343 72.775L15.8308 72.7857Z" fill="#735CD2"/>
<path opacity="0.57" d="M15.2589 69.5637V68.4396C15.2585 68.3825 15.2694 68.3257 15.2909 68.2727C15.3125 68.2197 15.3442 68.1716 15.3844 68.131C15.4247 68.0904 15.4727 68.0582 15.5255 68.0362C15.5783 68.0142 15.6349 68.0028 15.6921 68.0028C15.8076 68.0028 15.9185 68.0482 16.0009 68.1293C16.0833 68.2103 16.1305 68.3205 16.1324 68.4361V69.5601C16.1225 69.6677 16.0729 69.7678 15.993 69.8407C15.9132 69.9135 15.809 69.954 15.701 69.954C15.5929 69.954 15.4887 69.9135 15.4089 69.8407C15.3291 69.7678 15.2794 69.6677 15.2696 69.5601L15.2589 69.5637Z" fill="#735CD2"/>
<path opacity="0.57" d="M15.2437 66.4097V65.2892C15.2382 65.2273 15.2455 65.1649 15.2654 65.1061C15.2853 65.0472 15.3172 64.993 15.3591 64.9472C15.401 64.9013 15.452 64.8647 15.5089 64.8397C15.5657 64.8146 15.6273 64.8016 15.6894 64.8016C15.7516 64.8016 15.813 64.8146 15.8698 64.8397C15.9267 64.8647 15.9777 64.9013 16.0196 64.9472C16.0615 64.993 16.0934 65.0472 16.1133 65.1061C16.1332 65.1649 16.1405 65.2273 16.135 65.2892V66.4097C16.1405 66.4716 16.1332 66.5339 16.1133 66.5928C16.0934 66.6517 16.0615 66.7058 16.0196 66.7517C15.9777 66.7975 15.9267 66.8341 15.8698 66.8592C15.813 66.8843 15.7516 66.8972 15.6894 66.8972C15.6273 66.8972 15.5657 66.8843 15.5089 66.8592C15.452 66.8341 15.401 66.7975 15.3591 66.7517C15.3172 66.7058 15.2853 66.6517 15.2654 66.5928C15.2455 66.5339 15.2382 66.4716 15.2437 66.4097Z" fill="#735CD2"/>
<path opacity="0.57" d="M15.2509 63.27V62.1494C15.2608 62.0408 15.3108 61.9399 15.3913 61.8664C15.4717 61.7929 15.5768 61.7521 15.6858 61.7521C15.7948 61.7521 15.8999 61.7929 15.9803 61.8664C16.0608 61.9399 16.111 62.0408 16.1209 62.1494V63.27C16.1264 63.3309 16.1191 63.3923 16.0995 63.4503C16.08 63.5082 16.0485 63.5615 16.0073 63.6066C15.966 63.6518 15.9159 63.6879 15.8599 63.7126C15.8039 63.7373 15.7435 63.75 15.6823 63.75C15.6211 63.75 15.5605 63.7373 15.5045 63.7126C15.4486 63.6879 15.3984 63.6518 15.3572 63.6066C15.3159 63.5615 15.2846 63.5082 15.2651 63.4503C15.2455 63.3923 15.2382 63.3309 15.2437 63.27H15.2509Z" fill="#735CD2"/>
<path opacity="0.57" d="M15.2724 60.1303V59.0099C15.2819 58.9096 15.3284 58.8165 15.4029 58.7487C15.4773 58.6809 15.5745 58.6433 15.6752 58.6433C15.7759 58.6433 15.8729 58.6809 15.9474 58.7487C16.0219 58.8165 16.0685 58.9096 16.078 59.0099V60.1303C16.0684 60.2343 16.0202 60.3309 15.943 60.4013C15.8659 60.4716 15.7653 60.5105 15.6609 60.5105C15.5565 60.5105 15.4559 60.4716 15.3787 60.4013C15.3016 60.3309 15.2534 60.2343 15.2438 60.1303H15.2724Z" fill="#735CD2"/>
<path opacity="0.57" d="M15.3154 56.9905L15.3404 55.8699C15.3584 55.7908 15.4029 55.7201 15.4663 55.6695C15.5297 55.6189 15.6084 55.5914 15.6895 55.5914C15.7706 55.5914 15.8493 55.6189 15.9127 55.6695C15.9761 55.7201 16.0203 55.7908 16.0383 55.8699L16.0635 56.9905C16.0635 57.0897 16.0241 57.1849 15.9539 57.2551C15.8838 57.3252 15.7887 57.3647 15.6895 57.3647C15.5903 57.3647 15.495 57.3252 15.4248 57.2551C15.3547 57.1849 15.3154 57.0897 15.3154 56.9905Z" fill="#735CD2"/>
<path opacity="0.57" d="M15.3833 53.851L15.419 52.7268C15.4266 52.6605 15.4585 52.5993 15.5083 52.5549C15.5582 52.5104 15.6227 52.4859 15.6895 52.4859C15.7563 52.4859 15.8206 52.5104 15.8704 52.5549C15.9203 52.5993 15.9521 52.6605 15.9598 52.7268L15.9956 53.851C15.9875 53.9265 15.9516 53.9962 15.8951 54.0469C15.8386 54.0977 15.7654 54.1257 15.6895 54.1257C15.6135 54.1257 15.5402 54.0977 15.4837 54.0469C15.4272 53.9962 15.3915 53.9265 15.3833 53.851Z" fill="#735CD2"/>
<path opacity="0.57" d="M15.4795 50.7113L15.5223 49.5871C15.5251 49.5437 15.5446 49.5031 15.5767 49.4737C15.6087 49.4443 15.6507 49.4285 15.6941 49.4296C15.7359 49.4304 15.7759 49.4472 15.8058 49.4765C15.8357 49.5057 15.8534 49.5452 15.8552 49.5871L15.8982 50.7113C15.8992 50.7386 15.8947 50.7657 15.8851 50.7913C15.8756 50.8168 15.8611 50.8403 15.8425 50.8602C15.8239 50.8802 15.8014 50.8962 15.7766 50.9075C15.7518 50.9188 15.725 50.9251 15.6978 50.926C15.6426 50.9271 15.5892 50.9068 15.5485 50.8695C15.5079 50.8322 15.4832 50.7806 15.4795 50.7255V50.7113Z" fill="#735CD2"/>
<path opacity="0.57" d="M15.6136 47.568L15.6745 46.4473C15.6745 46.4473 15.6745 46.4473 15.6923 46.4473L15.7531 47.568C15.7541 47.5781 15.7531 47.5884 15.75 47.5981C15.7469 47.6079 15.7418 47.6168 15.7351 47.6245C15.7284 47.6322 15.7202 47.6385 15.711 47.6429C15.7018 47.6473 15.6917 47.6499 15.6815 47.6503C15.6714 47.6513 15.6612 47.6502 15.6515 47.6471C15.6418 47.644 15.6328 47.6389 15.6251 47.6322C15.6174 47.6255 15.6112 47.6173 15.6068 47.6081C15.6023 47.5989 15.5997 47.5889 15.5992 47.5787L15.6136 47.568Z" fill="#735CD2"/>
</g>
<path d="M48.0806 20.3239C48.7509 20.3239 49.2941 19.7805 49.2941 19.1103C49.2941 18.44 48.7509 17.8966 48.0806 17.8966C47.4104 17.8966 46.8668 18.44 46.8668 19.1103C46.8668 19.7805 47.4104 20.3239 48.0806 20.3239Z" fill="#735CD2"/>
<path d="M28.6088 77.2251C29.2791 77.2251 29.8227 76.6817 29.8227 76.0114C29.8227 75.3412 29.2791 74.798 28.6088 74.798C27.9385 74.798 27.3952 75.3412 27.3952 76.0114C27.3952 76.6817 27.9385 77.2251 28.6088 77.2251Z" fill="#735CD2"/>
<defs>
<linearGradient id="paint0_linear_5_2194" x1="167331" y1="168642" x2="167331" y2="171089" gradientUnits="userSpaceOnUse">
<stop stop-color="#DEE1E2"/>
<stop offset="1" stop-color="#EFEFEF"/>
</linearGradient>
<linearGradient id="paint1_linear_5_2194" x1="170083" y1="168642" x2="170083" y2="171089" gradientUnits="userSpaceOnUse">
<stop stop-color="#DEE1E2"/>
<stop offset="1" stop-color="#EFEFEF"/>
</linearGradient>
<linearGradient id="paint2_linear_5_2194" x1="601480" y1="291378" x2="573096" y2="319232" gradientUnits="userSpaceOnUse">
<stop stop-color="#DEE1E2"/>
<stop offset="1" stop-color="#EFEFEF"/>
</linearGradient>
<linearGradient id="paint3_linear_5_2194" x1="431459" y1="342502" x2="431459" y2="292005" gradientUnits="userSpaceOnUse">
<stop stop-color="#DEE1E2"/>
<stop offset="1" stop-color="#EFEFEF"/>
</linearGradient>
<linearGradient id="paint4_linear_5_2194" x1="99031.1" y1="55476.5" x2="99696.7" y2="55503.8" gradientUnits="userSpaceOnUse">
<stop stop-color="#735CD2"/>
<stop offset="1" stop-color="#8F6ACC"/>
</linearGradient>
<linearGradient id="paint5_linear_5_2194" x1="724159" y1="266681" x2="762829" y2="269053" gradientUnits="userSpaceOnUse">
<stop stop-color="#735CD2"/>
<stop offset="1" stop-color="#8F6ACC"/>
</linearGradient>
<linearGradient id="paint6_linear_5_2194" x1="724497" y1="264912" x2="763576" y2="267307" gradientUnits="userSpaceOnUse">
<stop stop-color="#735CD2"/>
<stop offset="1" stop-color="#8F6ACC"/>
</linearGradient>
<linearGradient id="paint7_linear_5_2194" x1="98797" y1="55931" x2="99463" y2="55963.1" gradientUnits="userSpaceOnUse">
<stop stop-color="#735CD2"/>
<stop offset="1" stop-color="#8F6ACC"/>
</linearGradient>
<linearGradient id="paint8_linear_5_2194" x1="-55736.7" y1="172912" x2="-57122.7" y2="172938" gradientUnits="userSpaceOnUse">
<stop stop-color="#2FA2FA"/>
<stop offset="1" stop-color="#37D3FB"/>
</linearGradient>
<linearGradient id="paint9_linear_5_2194" x1="-55269.9" y1="172876" x2="-56656" y2="172902" gradientUnits="userSpaceOnUse">
<stop stop-color="#2FA2FA"/>
<stop offset="1" stop-color="#37D3FB"/>
</linearGradient>
<linearGradient id="paint10_linear_5_2194" x1="-12850.6" y1="157340" x2="-12580.8" y2="158066" gradientUnits="userSpaceOnUse">
<stop stop-color="#735CD2"/>
<stop offset="1" stop-color="#8F6ACC"/>
</linearGradient>
<linearGradient id="paint11_linear_5_2194" x1="-13016.6" y1="157229" x2="-12746.7" y2="157955" gradientUnits="userSpaceOnUse">
<stop stop-color="#735CD2"/>
<stop offset="1" stop-color="#8F6ACC"/>
</linearGradient>
<linearGradient id="paint12_linear_5_2194" x1="-3757.59" y1="121833" x2="-3491.49" y2="121258" gradientUnits="userSpaceOnUse">
<stop stop-color="#FB9835"/>
<stop offset="1" stop-color="#FBBB3C"/>
</linearGradient>
<linearGradient id="paint13_linear_5_2194" x1="-3842.02" y1="121968" x2="-3575.76" y2="121392" gradientUnits="userSpaceOnUse">
<stop stop-color="#FB9835"/>
<stop offset="1" stop-color="#FBBB3C"/>
</linearGradient>
<linearGradient id="paint14_linear_5_2194" x1="3350.76" y1="8358.43" x2="2015.92" y2="9542" gradientUnits="userSpaceOnUse">
<stop stop-color="#735CD2"/>
<stop offset="1" stop-color="#8F6ACC"/>
</linearGradient>
<linearGradient id="paint15_linear_5_2194" x1="1680.92" y1="7959.64" x2="2277.86" y2="7959.64" gradientUnits="userSpaceOnUse">
<stop stop-color="#735CD2"/>
<stop offset="1" stop-color="#8F6ACC"/>
</linearGradient>
<linearGradient id="paint16_linear_5_2194" x1="3975.66" y1="8137.29" x2="5107.99" y2="9360.95" gradientUnits="userSpaceOnUse">
<stop stop-color="#735CD2"/>
<stop offset="1" stop-color="#8F6ACC"/>
</linearGradient>
<linearGradient id="paint17_linear_5_2194" x1="2494.01" y1="7954.2" x2="3090.46" y2="7954.2" gradientUnits="userSpaceOnUse">
<stop stop-color="#735CD2"/>
<stop offset="1" stop-color="#8F6ACC"/>
</linearGradient>
<linearGradient id="paint18_linear_5_2194" x1="1187.14" y1="4058.94" x2="1187.14" y2="4276.28" gradientUnits="userSpaceOnUse">
<stop stop-color="#735CD2"/>
<stop offset="1" stop-color="#8F6ACC"/>
</linearGradient>
<linearGradient id="paint19_linear_5_2194" x1="1569.65" y1="4261.9" x2="1569.65" y2="4490.21" gradientUnits="userSpaceOnUse">
<stop stop-color="#735CD2"/>
<stop offset="1" stop-color="#8F6ACC"/>
</linearGradient>
<linearGradient id="paint20_linear_5_2194" x1="3284.24" y1="10227.7" x2="5994.71" y2="7516.09" gradientUnits="userSpaceOnUse">
<stop stop-color="#FB9835"/>
<stop offset="1" stop-color="#FBBB3C"/>
</linearGradient>
<linearGradient id="paint21_linear_5_2194" x1="124105" y1="59499.9" x2="123130" y2="60546.3" gradientUnits="userSpaceOnUse">
<stop stop-color="#FEFEFC"/>
<stop offset="1" stop-color="#C4EAFC" stop-opacity="0.1"/>
</linearGradient>
<linearGradient id="paint22_linear_5_2194" x1="113745" y1="54831.2" x2="112894" y2="55744.1" gradientUnits="userSpaceOnUse">
<stop stop-color="#FEFEFC"/>
<stop offset="1" stop-color="#C4EAFC" stop-opacity="0.1"/>
</linearGradient>
</defs>
</svg>
