<svg width="38" height="33" viewBox="0 0 38 33" fill="none" xmlns="http://www.w3.org/2000/svg">
<path d="M11.5818 29.0192C10.1939 27.9265 8.71402 26.8797 7.70012 25.4065C5.57058 22.8077 3.92996 19.7955 2.81105 16.6324C2.13184 14.5751 1.90215 12.3701 1.02605 10.3915C0.113873 8.95428 1.18355 7.38584 2.75527 6.92975C3.45418 6.79521 4.68793 6.1324 3.20152 6.60818C1.86934 7.586 1.74137 5.71896 3.10637 5.60084C4.03824 5.47615 4.38277 4.7149 4.06449 4.02584C3.06371 3.37287 6.49262 2.65428 4.76668 1.67975C2.96855 -0.259474 7.28012 -0.633536 6.21699 1.57146C5.96434 3.26459 9.22918 1.25975 8.47121 3.21537C9.2423 4.15381 11.3587 3.42865 11.3029 4.74771C12.4251 4.82646 12.8123 5.76818 13.8623 5.84037C14.955 6.33256 16.9336 6.72303 17.3043 7.9535C16.2215 8.8099 13.7114 6.18162 13.5932 8.55725C13.9214 12.0649 13.8361 15.6776 15.119 19.0179C15.7261 21.0391 17.1961 22.6305 18.525 24.2055C19.7981 25.7477 21.5175 26.8338 23.2762 27.7493C24.8151 28.4744 26.4754 28.9568 28.1554 29.2587C28.8346 28.7369 30.0389 26.8043 31.0988 27.618C31.1513 28.5368 28.9921 29.5343 30.9971 29.4359C32.175 29.0815 32.9921 30.3448 33.9633 29.2029C34.8558 30.2628 37.6777 28.5269 37.0411 30.6893C36.1814 31.2439 34.928 30.9092 34.065 31.6737C32.6442 30.965 31.5155 32.307 29.9438 32.1397C28.1981 32.4514 26.4229 32.5793 24.6511 32.5793C21.7471 32.3497 18.7809 32.2545 16.0214 31.2439C14.4661 30.7911 12.9468 29.9051 11.5818 29.0192ZM14.0329 30.0823C15.5521 30.7386 17.0386 31.4309 18.7021 31.6409C21.3436 32.0084 24.0736 32.5728 26.7248 32.0576C25.5239 31.5162 24.2836 32.2676 23.0892 31.6704C21.6553 31.9789 20.1164 31.5917 18.6595 31.4014C17.0025 30.6631 15.2142 30.1545 13.6621 29.1964C11.7229 28.4876 14.6662 30.1053 15.1879 30.2365C16.3987 30.9256 13.8557 29.8822 13.4948 29.5967C12.4809 29.0257 12.3496 29.1472 13.3931 29.7247C13.6031 29.8461 13.8131 29.9773 14.0329 30.0823ZM11.1421 28.038C12.6154 28.5827 11.1356 27.0012 10.4629 27.093C10.1643 26.5746 9.32105 26.2465 9.91496 25.9676C8.84527 26.3383 8.79277 24.5566 8.29074 24.8093C7.15871 24.4516 7.85105 23.1851 6.50246 22.4074C6.38105 21.5871 5.16371 20.8783 4.77652 19.6413C4.6059 19.008 3.40168 17.1935 4.13996 18.8833C4.76996 20.5108 5.87574 21.9054 6.79777 23.2966C7.51309 24.6222 8.35965 26.0069 9.65902 26.8338C10.0987 27.2604 10.522 27.9068 11.1421 28.038ZM6.89949 23.3819C7.16855 23.861 6.95199 23.1588 6.89949 23.3819ZM12.9042 28.691C13.2323 28.5466 12.435 28.5072 12.9042 28.691ZM13.7048 28.9831C13.6228 28.5794 13.3406 29.2095 13.7048 28.9831ZM14.7056 29.3998C15.1814 28.947 13.9706 29.1143 14.7056 29.3998ZM16.4184 30.3547C16.7104 29.9281 15.4931 30.1939 16.4184 30.3547ZM13.1273 28.061C13.8656 27.5819 12.1725 28.0544 13.1273 28.061ZM13.8787 28.4351C13.8557 28.1824 13.6096 28.5466 13.8787 28.4351ZM17.6292 30.7747C18.2329 31.1553 21.15 31.6081 19.3223 30.9322C19.0171 30.9978 15.9328 30.0593 17.6292 30.7747ZM11.6737 26.1382C11.6146 25.8855 10.7386 25.8593 11.6737 26.1382ZM13.4193 27.1554C13.8754 26.8404 12.4776 26.9126 13.4193 27.1554ZM14.8893 28.0577C15.539 27.8116 13.8295 27.8116 14.8893 28.0577ZM10.9617 25.3638C11.6704 25.9052 13.8164 25.4327 12.0445 25.039C11.2406 24.6091 9.42277 24.3171 10.6598 25.2982L10.9617 25.3638ZM15.8836 28.3694C16.1789 27.8674 14.6465 28.0807 15.8836 28.3694ZM14.3873 27.1783C16.1165 27.6672 12.9337 26.0824 13.9607 26.9979L14.1904 27.1029L14.3873 27.1783ZM17.3864 28.9109C19.0237 28.9273 15.9065 28.6877 17.3864 28.9109ZM10.3317 24.4155C10.2693 24.1104 9.92809 24.4418 10.3317 24.4155ZM20.1557 30.4662C20.2017 29.915 19.6242 30.8764 20.1557 30.4662ZM13.1273 26.1283C13.0289 25.8396 12.6154 26.1152 13.1273 26.1283ZM10.4892 24.2252C11.4276 24.1694 9.19965 23.8118 10.4892 24.2252ZM7.35887 22.204C7.24074 21.7512 6.33512 21.3935 7.35887 22.204ZM15.5718 27.4146C15.4898 27.4572 15.4012 27.2177 15.5718 27.4146ZM20.684 30.5515C20.6676 30.2529 20.4051 30.6664 20.684 30.5515ZM15.119 26.9487C15.2109 26.5615 14.3184 26.8305 15.119 26.9487ZM11.3128 24.5337C12.0117 24.4582 10.1906 24.0612 11.3128 24.5337ZM17.7539 28.5368C18.8432 28.1037 16.6907 28.3268 17.7539 28.5368ZM14.4037 26.2629C15.6604 26.4237 12.9075 25.4065 14.1281 26.171L14.4037 26.2629ZM18.7711 28.9503C19.9457 28.248 19.5586 30.5942 20.7628 29.1472C21.9506 28.2808 19.7357 30.2201 21.1992 29.3014C22.259 28.5926 23.8209 29.6361 24.8086 29.9773C25.5173 29.9412 26.2096 30.5909 26.9381 30.1972C28.3392 29.8198 24.195 29.6361 25.2811 28.9667C23.9981 29.3407 23.0498 28.5204 22.4198 27.7001C20.9793 27.3687 19.3157 26.6337 18.5971 25.3572C18.3051 24.8782 19.0204 25.4262 18.3445 24.6419C17.4782 23.8708 17.0451 22.9947 16.4643 22.0563C15.7687 21.6855 15.6867 20.5929 15.6178 22.0202C15.6243 21.1212 14.7778 20.5141 14.5711 20.7668C14.5678 19.9005 15.4767 20.3337 14.8401 19.6938C14.7023 18.7947 14.2528 17.8596 14.1182 16.8457C13.9082 16.3568 14.0887 15.3101 13.3996 16.4158C13.1503 17.5872 13.3176 14.9787 13.7081 15.8383C14.22 14.9622 13.5243 15.064 13.4948 15.1854C13.8295 14.4438 13.7048 13.3938 13.4062 13.7941C13.5834 13.0099 13.6884 10.9066 13.1404 11.2807C13.4718 10.4604 13.7704 7.52693 12.33 8.64584C11.7459 8.65568 10.7386 8.85584 10.2595 9.09537C11.7557 9.91896 10.1086 9.39396 9.49824 9.26271C9.41949 10.0272 8.81574 9.69584 8.06105 9.7024C9.26527 9.85006 7.47371 10.9329 6.78465 10.5129C5.88559 10.9427 7.55902 12.0124 6.80105 12.3438C6.89293 12.8426 5.42621 12.1633 5.54105 13.3151C4.67152 12.9476 5.42293 14.6801 5.85605 14.096C7.3359 14.4963 6.89949 15.4118 6.93559 16.278C6.69277 16.7833 5.74449 15.0902 6.72559 15.169C5.95121 13.9122 5.86918 14.7162 5.22934 15.2969C5.08168 15.3396 6.86668 16.1271 5.74449 16.5176C6.73215 16.6718 6.76168 17.5347 6.96184 18.0794C7.55574 18.6963 7.43434 17.3969 8.14309 18.1385C7.69355 17.4757 5.76418 16.2747 7.31621 16.6587C7.30637 15.9926 7.03402 15.4544 7.51308 15.4676C7.98558 14.6144 7.01762 17.5741 8.08074 16.488C8.37605 16.3601 8.44824 15.6349 8.97652 16.5569C9.74434 17.3116 9.25543 17.8596 8.16933 17.1672C8.36293 17.8268 9.61965 18.0597 9.3834 19.0901C9.63277 19.9957 9.98387 19.661 10.289 19.6085C10.5286 20.4879 10.6631 19.8415 10.6762 19.4215C11.7721 19.6577 11.5162 20.3041 11.8575 20.7569C12.6121 21.0982 10.7779 18.4469 12.074 19.9596C13.439 21.1901 12.5859 21.7052 11.362 21.5083C12.1364 21.446 12.3857 22.5551 13.3537 22.5157C14.2364 22.9357 14.8368 24.5501 13.3143 23.8774C12.7861 23.4016 10.9157 22.8143 12.4448 23.7199C13.8557 24.3729 14.9746 24.7633 16.3364 25.5837C17.3076 26.2793 17.7309 27.0733 18.0984 27.2308C17.2814 27.6213 15.6342 26.9191 16.8581 26.7026C16.0936 26.5647 15.2371 26.1776 15.9689 27.1291C16.589 27.6476 18.1706 27.5951 18.4561 27.6508C18.2165 28.1791 17.8031 28.2218 18.4659 28.2612C17.7276 28.6615 18.7021 28.7238 18.7711 28.9503ZM17.2617 24.6846C16.8121 24.2154 16.6973 23.336 17.1829 24.1005C17.429 24.199 17.9803 25.5377 17.2617 24.6846ZM22.1803 27.8083C22.4592 27.7887 22.1868 28.0216 22.1803 27.8083ZM16.5529 23.5329C16.7137 24.0808 16.5332 22.8208 16.5529 23.5329ZM16.064 22.8733C16.7761 23.1851 15.4964 21.784 16.064 22.8733ZM10.1381 18.7849C10.4695 18.6963 10.3021 19.3526 10.1381 18.7849ZM14.8532 21.341C15.0928 21.9841 15.0567 20.5765 14.8532 21.341ZM11.5228 19.0244C12.015 19.4215 11.2898 18.6012 11.5228 19.0244ZM14.3807 19.9399C13.8459 18.7422 14.7614 19.2837 14.4989 20.1368L14.3807 19.9399ZM9.4523 16.6554C9.21277 16.2616 8.81902 15.1066 8.94371 14.7555C9.05855 15.3297 10.1643 17.2263 9.48512 15.5397C8.73699 14.1288 10.3809 15.9991 10.5515 16.3502C10.6303 16.7013 10.0889 16.2551 10.4564 17.0754C9.78699 16.1402 10.0626 17.5938 9.4523 16.6554ZM7.9298 15.6054C8.27762 16.2321 7.99215 14.6899 7.9298 15.6054ZM8.6123 15.8416C9.16684 16.803 8.94043 15.1493 8.6123 15.8416ZM6.96512 14.5652C6.39746 14.0008 5.9873 13.4824 6.99137 14.2141C7.37855 14.2305 6.13168 13.0329 7.08324 13.8335C8.0873 14.0172 7.57871 15.4774 6.96512 14.5652ZM7.83137 14.5422C8.15949 14.2174 8.00527 14.8638 7.83137 14.5422ZM8.36293 14.7129C8.96996 15.1066 7.86418 13.7777 8.36293 14.7129ZM7.30637 13.7022C5.65918 12.2355 9.37684 14.4701 7.57543 13.9746L7.30637 13.7022ZM12.0281 16.4454C11.3128 16.0188 11.8378 13.4332 12.0806 15.2018C12.7729 14.9787 12.0412 16.114 12.5596 16.1041C12.4809 16.8194 12.2479 17.0787 12.0281 16.4454ZM13.777 17.479C13.9246 18.0105 13.8459 16.698 13.777 17.479ZM13.4718 17.1771C13.5506 16.8457 13.4817 17.5708 13.4718 17.1771ZM7.62793 13.2199C6.56809 11.7597 10.7057 14.6997 8.30715 13.5907C8.05449 13.5218 7.75262 13.4988 7.62793 13.2199ZM10.9945 15.0016C11.2176 15.2051 10.8928 13.7712 10.9945 15.0016ZM13.5473 16.6422C13.7442 15.9401 13.5637 17.1049 13.5473 16.6422ZM7.79199 12.6621C8.42199 12.5276 10.4006 13.7679 8.58277 13.0165C8.37934 12.7901 7.94949 12.8918 7.79199 12.6621ZM13.1962 15.356C13.2618 14.096 13.5736 14.6046 13.1995 15.5365L13.1962 15.356ZM8.25793 12.2224C8.51387 11.8451 7.57543 10.5227 8.39246 11.7466C8.74684 12.0255 9.41293 12.2158 8.8223 12.334C9.75418 13.1543 8.59918 12.5571 8.25793 12.2224ZM12.9304 14.9622C13.1076 13.5283 13.0846 15.8022 12.9304 14.9622ZM7.72308 10.9001C7.91996 10.8147 7.82808 11.1593 7.72308 10.9001ZM8.94043 11.6252C9.52121 12.3569 9.25543 10.9657 8.94043 11.6252ZM12.3759 13.5349C12.4415 13.9024 12.3759 13.2822 12.3759 13.5349ZM12.179 13.0952C12.622 13.7187 11.7032 11.9172 12.179 13.0952ZM11.887 12.3241C12.1593 12.9344 11.805 11.8385 11.887 12.3241ZM12.3628 11.5497C12.0346 10.9722 12.7762 9.00678 12.8582 10.2274C12.5137 11.1757 12.7598 11.7072 12.9993 10.4341C13.4456 9.43006 12.9042 12.4094 12.3628 11.5497ZM12.8517 8.62615C12.9961 8.45225 12.8845 8.83943 12.8517 8.62615ZM12.0346 24.7437C12.0576 24.8519 11.8411 24.573 12.0346 24.7437ZM13.7179 25.5968C14.6564 25.8396 14.6498 25.4524 13.8032 25.3376C13.3471 24.9143 11.91 24.4647 13.1962 25.2851C13.2848 25.4983 13.5539 25.4918 13.7179 25.5968ZM10.3907 23.3852C10.9059 23.7724 12.3365 24.4746 11.1257 23.5329C11.5326 23.0604 10.3448 22.8077 10.7386 22.4894C9.73449 21.8758 9.94777 21.9316 10.65 21.9513C9.44574 21.4132 10.8239 21.4526 10.7582 21.1769C10.2923 21.0851 8.45152 20.3566 9.53433 21.236C8.43183 20.6749 9.27184 21.446 8.93715 21.364C7.8084 21.0555 9.94121 22.2237 8.75996 21.9316C9.40637 22.4435 10.499 23.2441 9.0323 22.473C8.84527 22.7519 10.0856 23.1752 10.3907 23.3852ZM12.1528 24.3991C14.2954 25.0882 11.1028 23.5526 12.1528 24.3991ZM21.1762 29.8625C21.2025 29.4359 20.8809 30.2267 21.1762 29.8625ZM22.1015 30.2529C22.597 29.7739 22.1212 31.0175 22.9218 30.1348C22.9317 29.5048 22.8989 29.1307 22.0031 29.8986C21.757 30.0364 21.6454 30.6172 22.1015 30.2529ZM7.38512 21.0096C7.2309 20.4124 6.31871 20.4157 7.38512 21.0096ZM8.37277 21.6593C8.00527 21.049 7.06027 21.108 8.37277 21.6593ZM14.0067 25.0554C14.5579 25.5443 16.5332 25.413 14.6728 25.1144C14.4004 24.7076 12.9271 24.806 14.0067 25.0554ZM21.7504 29.8362C22.5937 29.1275 20.9301 30.1545 21.7504 29.8362ZM23.5092 31.047C23.5157 30.8206 23.145 31.1454 23.5092 31.047ZM23.5125 30.7287C24.4509 29.7345 22.6036 30.7878 23.5125 30.7287ZM4.94715 18.9719C4.1498 17.8333 4.45168 17.3215 3.68059 16.3896C3.53293 15.6776 2.35824 14.0632 3.07355 15.7727C3.72652 16.7735 3.92012 18.3222 4.94715 18.9719ZM23.2171 30.4137C24.9431 29.2981 22.5117 29.9281 23.2171 30.4137ZM24.5329 30.9289C25.3992 30.1873 23.9882 30.7747 24.5329 30.9289ZM7.0898 19.7496C7.33918 19.3821 6.45324 19.7037 7.0898 19.7496ZM24.2606 30.5745C25.0973 30.0364 24.067 30.1184 24.1096 30.6237L24.2606 30.5745ZM12.914 23.4246C12.8845 23.0604 12.4711 23.4541 12.914 23.4246ZM13.6162 23.8282C13.3898 23.3754 13.2717 23.8971 13.6162 23.8282ZM25.6026 30.9387C26.6756 30.1643 24.9529 30.7911 25.3795 31.0864L25.6026 30.9387ZM25.1892 30.7418C26.0653 30.0101 24.2704 31.0667 25.1892 30.7418ZM27.2859 32.1364C27.8732 31.7459 26.5739 32.0117 27.2859 32.1364ZM7.62793 19.4838C8.41215 19.661 10.7648 21.4165 9.37684 19.6052C8.6648 19.3952 9.09137 17.6562 8.36621 17.9646C8.85184 18.7783 8.76652 19.1229 7.74277 18.611C6.4598 17.9843 7.0209 18.9194 7.27355 19.1787C6.9323 19.2607 7.72965 19.4772 7.62793 19.4838ZM4.05137 16.6587C4.19246 16.0779 2.75527 13.4594 3.37215 15.3462C3.59527 15.7432 3.5723 16.4913 4.05137 16.6587ZM10.6171 20.7077C10.5975 20.6585 10.2136 20.3697 10.6171 20.7077ZM11.6114 20.9407C11.6114 20.3238 10.5121 20.688 11.6114 20.9407ZM20.2411 26.3777C20.077 25.9577 19.5914 26.3712 20.2411 26.3777ZM20.6545 26.6829C20.5954 26.4466 20.4182 26.7288 20.6545 26.6829ZM24.0768 28.8354C24.405 28.5926 23.6667 28.8058 24.0768 28.8354ZM5.83637 17.1147C6.77809 16.7505 4.82902 16.8555 5.83637 17.1147ZM19.4831 25.7116C19.47 25.1013 18.8826 25.8626 19.4831 25.7116ZM5.46559 16.2485C6.06934 16.0451 4.90449 16.114 5.46559 16.2485ZM7.21777 17.0983C7.20793 16.8982 7.03402 17.1738 7.21777 17.0983ZM28.6181 30.2201C29.3957 30.0626 31.1677 30.6172 31.4532 30.0134C30.5082 29.9904 28.1882 29.3473 28.08 30.1643L28.2867 30.1972L28.6181 30.2201ZM7.77559 17.2394C7.79199 16.6226 7.29652 17.2165 7.77559 17.2394ZM3.16543 14.0402C2.95543 12.8655 2.36809 13.863 3.16543 14.0402ZM4.26465 14.3158C4.27777 13.9385 3.2573 13.9779 4.26465 14.3158ZM4.89137 14.6243C4.75027 14.8113 4.7109 14.4799 4.89137 14.6243ZM8.84855 17.1607C9.03558 16.9901 8.40558 17.036 8.84855 17.1607ZM4.47465 13.9287C4.36637 13.0394 3.20152 13.7974 4.47465 13.9287ZM2.22043 12.4652C2.18762 12.0551 2.00059 12.6194 2.22043 12.4652ZM2.55512 12.2126C2.49934 11.7269 2.26637 12.2749 2.55512 12.2126ZM4.40902 13.3183C5.19324 13.0099 2.98168 12.6818 4.24824 13.2593L4.40902 13.3183ZM29.212 28.6385C29.714 28.1791 28.5754 28.4974 29.212 28.6385ZM32.2078 30.1939C32.408 29.6 31.7025 30.2693 32.2078 30.1939ZM4.59605 12.3471C4.68137 11.7729 3.9759 12.4619 4.59605 12.3471ZM1.96121 10.5818C1.82012 9.77131 1.8398 8.34397 3.19496 8.82631C1.38699 9.18725 4.4484 11.074 4.06121 9.58428C4.82246 9.62037 5.54762 9.13475 5.15059 9.87303C6.65012 9.70896 7.68699 8.40959 9.13402 8.59006C10.2628 8.43912 11.4932 8.32756 12.7073 7.87475C13.7048 7.80256 14.6662 6.72631 14.1215 6.08975C12.7598 5.9749 11.3325 6.14553 9.82965 6.44412C8.16277 6.79193 6.64684 7.44818 4.96355 7.73365C3.32293 7.9535 5.29168 8.34068 4.82246 8.426C3.96605 8.72131 5.84293 8.92475 4.7109 9.23647C4.01199 9.10193 3.28355 8.8624 3.58215 8.1274C2.01043 8.33084 0.629023 8.98381 1.87262 10.5818H1.96121ZM5.74777 8.6524C6.11527 7.29396 7.7198 9.76803 6.35152 8.83287C6.18746 8.70818 5.9184 8.60975 5.74777 8.6524ZM5.81996 7.99287C6.35152 7.59912 6.10215 8.216 5.81996 7.99287ZM6.4959 8.006C6.54512 7.38256 8.04137 8.3374 6.74199 8.22912L6.4959 8.006ZM7.41793 7.63193C7.7559 7.23818 7.51637 7.98303 7.41793 7.63193ZM7.65418 7.47443C8.21527 6.7985 10.8337 7.04459 8.91746 7.40881C8.40559 7.02162 8.01184 7.6385 7.65418 7.47443ZM11.0732 6.94943C12.7729 7.6024 10.9879 5.10537 11.0732 6.94943ZM12.0445 6.94287C12.3989 6.01428 13.4226 6.56881 12.2086 6.75584C12.2348 6.85428 12.1725 7.2349 12.0445 6.94287ZM4.21543 11.8713C5.27527 11.2216 3.08996 11.3069 4.21543 11.8713ZM4.99965 12.0879C5.37043 11.6941 4.19246 11.9271 4.99965 12.0879ZM2.68965 10.4505C3.29668 9.98459 1.97434 10.2733 2.68965 10.4505ZM33.9764 30.0232C33.9928 29.4818 33.5138 30.2661 33.9764 30.0232ZM30.7969 27.8543C30.8888 27.2308 30.39 27.9068 30.7969 27.8543ZM34.8525 30.2332C35.6991 30.2365 37.4185 29.9707 35.5744 29.9707C35.2856 30.0134 33.8911 30.0068 34.8525 30.2332ZM5.68871 11.7072C6.37449 11.6613 6.76168 10.9526 5.55418 10.9919C3.68715 10.7983 7.20137 11.6318 5.31465 11.3922C5.06199 11.5596 5.6723 11.7532 5.68871 11.7072ZM6.29246 12.0124C6.22027 11.5727 6.07918 12.2454 6.29246 12.0124ZM7.00777 10.1027C7.30309 9.73521 6.59434 10.0043 7.00777 10.1027ZM4.7273 6.29646C5.95121 5.87975 7.62137 5.41381 8.19887 6.4999C7.61152 5.79443 7.96262 5.09553 8.51715 6.1324C9.30137 7.17912 9.69512 5.65662 9.18324 5.30553C9.76402 6.0274 10.4268 6.36865 9.57371 5.35146C10.5023 4.23584 7.71652 5.49912 7.08324 5.486C6.78137 5.62053 3.9398 6.20787 4.7273 6.29646ZM5.4459 4.9249C6.1448 4.3999 7.85762 5.2399 6.7584 4.40318C6.65012 4.30475 4.34668 5.03646 5.4459 4.9249ZM7.98887 5.0299C8.8059 5.04959 7.63777 3.93396 8.60902 4.43928C8.44824 3.91756 7.47699 3.81912 7.00121 3.6124C6.73215 4.08818 7.5459 5.03646 7.98887 5.0299ZM5.89215 2.7199C6.17434 2.33928 5.39668 2.91678 5.89215 2.7199ZM6.92902 2.96928C8.2448 2.79537 6.59434 2.4049 6.66324 2.95615L6.92902 2.96928ZM4.9898 1.45334C4.06449 0.242558 6.73215 1.65678 5.79043 0.390214C4.99965 -0.239786 4.2384 1.09896 4.9898 1.45334ZM16.8712 7.85178C17.2945 7.10037 15.119 6.83787 16.5857 7.586C16.7236 7.63193 16.6907 7.90428 16.8712 7.85178Z" fill="#809DBE"/>
</svg>
