<svg width="40" height="40" viewBox="0 0 40 40" fill="none" xmlns="http://www.w3.org/2000/svg">
<path d="M19.9975 0.416199C8.955 0.416199 0 9.4062 0 20.4962C0 29.3662 5.73 36.8912 13.68 39.5487C14.68 39.7337 15.045 39.1137 15.045 38.5812C15.045 38.1037 15.0275 36.8412 15.0175 35.1662C9.455 36.3787 8.28 32.4737 8.28 32.4737C7.3725 30.1537 6.06 29.5362 6.06 29.5362C4.2425 28.2912 6.195 28.3162 6.195 28.3162C8.2025 28.4587 9.2575 30.3862 9.2575 30.3862C11.0425 33.4537 13.94 32.5687 15.08 32.0537C15.26 30.7562 15.7775 29.8712 16.35 29.3687C11.91 28.8612 7.24 27.1387 7.24 19.4462C7.24 17.2537 8.02 15.4612 9.3 14.0562C9.0925 13.5487 8.4075 11.5062 9.495 8.7437C9.495 8.7437 11.175 8.2037 14.995 10.8012C16.59 10.3562 18.3 10.1337 20.0025 10.1262C21.7 10.1362 23.4125 10.3562 25.01 10.8037C28.8275 8.2062 30.505 8.7462 30.505 8.7462C31.595 11.5112 30.91 13.5512 30.705 14.0587C31.9875 15.4637 32.76 17.2562 32.76 19.4487C32.76 27.1612 28.085 28.8587 23.63 29.3562C24.3475 29.9762 24.9875 31.2012 24.9875 33.0737C24.9875 35.7587 24.9625 37.9237 24.9625 38.5812C24.9625 39.1187 25.3225 39.7437 26.3375 39.5462C34.275 36.8862 40 29.3637 40 20.4962C40 9.4062 31.045 0.416199 19.9975 0.416199Z" fill="#000000"/>
</svg>
