<svg width="34" height="34" viewBox="0 0 34 34" fill="none" xmlns="http://www.w3.org/2000/svg">
<path d="M0.53125 0.265625V33.4688H33.7344V0.265625H0.53125ZM18.0941 28.5581C17.604 29.554 16.6685 30.2082 15.5845 30.524C13.9188 30.9065 12.3255 30.6885 11.1403 29.9771C10.3472 29.4905 9.72772 28.7414 9.30723 27.8784L11.836 26.3298C11.858 26.3391 11.9244 26.4592 12.0132 26.6143C12.3356 27.1546 12.6137 27.5371 13.1604 27.8056C13.6975 27.9889 14.8766 28.106 15.3319 27.161C15.61 26.6802 15.5215 25.1348 15.5215 23.4249C15.5213 20.7381 15.5337 18.0625 15.5337 15.4062H18.644C18.644 18.3281 18.6599 21.0954 18.644 23.9466C18.6506 25.6944 18.8023 27.2526 18.0941 28.5581ZM30.9966 27.6795C29.9155 31.3775 23.8879 31.4975 21.4792 29.0543C20.9703 28.4792 20.6513 28.1788 20.3477 27.515C21.6277 26.7787 21.6277 26.7787 22.8732 26.0581C23.5498 27.098 24.1753 27.6699 25.3008 27.9039C26.8276 28.0904 28.3637 27.5658 28.0192 25.9441C27.6651 24.6197 24.8928 24.2975 23.006 22.8812C21.0906 21.5948 20.6417 18.4689 22.2158 16.6828C22.7404 16.0222 23.635 15.5292 24.5738 15.2923L25.5534 15.1656C27.4343 15.1276 28.6099 15.6243 29.473 16.588C29.7131 16.8313 29.9091 17.0938 30.2757 17.6625C29.2737 18.301 29.2769 18.2949 27.8418 19.2241C27.5352 18.5637 27.0265 18.1494 26.4889 17.9693C25.6543 17.7164 24.6019 17.9913 24.3836 18.8732C24.3079 19.1449 24.3235 19.3978 24.4439 19.8467C24.782 20.6178 25.9168 20.953 26.9346 21.4208C29.8647 22.6092 30.8542 23.8834 31.0975 25.4001C31.3318 26.7059 31.0409 27.553 30.9966 27.6795Z" fill="#809DBE"/>
</svg>
