<svg xmlns="http://www.w3.org/2000/svg" xmlns:xlink="http://www.w3.org/1999/xlink" width="500" zoomAndPan="magnify" viewBox="0 0 375 374.999991" height="500" preserveAspectRatio="xMidYMid meet" version="1.2"><defs><clipPath id="adf18ea86b"><path d="M 37.5 37.5 L 337.5 37.5 L 337.5 337.5 L 37.5 337.5 Z M 37.5 37.5 "/></clipPath><clipPath id="cfdb8575eb"><path d="M 54.75 37.5 L 320.25 37.5 C 324.824219 37.5 329.210938 39.316406 332.449219 42.550781 C 335.683594 45.789062 337.5 50.175781 337.5 54.75 L 337.5 320.25 C 337.5 324.824219 335.683594 329.210938 332.449219 332.449219 C 329.210938 335.683594 324.824219 337.5 320.25 337.5 L 54.75 337.5 C 50.175781 337.5 45.789062 335.683594 42.550781 332.449219 C 39.316406 329.210938 37.5 324.824219 37.5 320.25 L 37.5 54.75 C 37.5 50.175781 39.316406 45.789062 42.550781 42.550781 C 45.789062 39.316406 50.175781 37.5 54.75 37.5 Z M 54.75 37.5 "/></clipPath><clipPath id="76a19609a9"><path d="M 102 64.75 L 322 64.75 L 322 123 L 102 123 Z M 102 64.75 "/></clipPath></defs><g id="f8d5035de7"><g clip-rule="nonzero" clip-path="url(#adf18ea86b)"><g clip-rule="nonzero" clip-path="url(#cfdb8575eb)"><path style=" stroke:none;fill-rule:nonzero;fill:#f1efeb;fill-opacity:1;" d="M 37.5 37.5 L 337.5 37.5 L 337.5 337.5 L 37.5 337.5 Z M 37.5 37.5 "/></g></g><g clip-rule="nonzero" clip-path="url(#76a19609a9)"><path style=" stroke:none;fill-rule:evenodd;fill:#43beb3;fill-opacity:1;" d="M 102.984375 122.628906 L 273.003906 122.628906 L 321.929688 64.75 L 151.90625 64.75 Z M 102.984375 122.628906 "/></g><path style=" stroke:none;fill-rule:evenodd;fill:#051322;fill-opacity:1;" d="M 77.882812 216.300781 L 247.902344 216.300781 L 296.828125 158.429688 L 126.804688 158.429688 Z M 77.882812 216.300781 "/><path style=" stroke:none;fill-rule:evenodd;fill:#43beb3;fill-opacity:1;" d="M 52.78125 309.980469 L 222.808594 309.980469 L 271.726562 252.101562 L 101.703125 252.101562 Z M 52.78125 309.980469 "/></g></svg>