<svg xmlns="http://www.w3.org/2000/svg" xmlns:xlink="http://www.w3.org/1999/xlink" width="500" zoomAndPan="magnify" viewBox="0 0 375 374.999991" height="500" preserveAspectRatio="xMidYMid meet" version="1.2"><defs><clipPath id="d7149e1cb7"><path d="M 9.03125 112.886719 L 365.722656 112.886719 L 365.722656 274.21875 L 9.03125 274.21875 Z M 9.03125 112.886719 "/></clipPath><clipPath id="80d4bcacc3"><path d="M 26.28125 112.886719 L 348.140625 112.886719 C 352.714844 112.886719 357.101562 114.703125 360.335938 117.941406 C 363.574219 121.175781 365.390625 125.5625 365.390625 130.136719 L 365.390625 256.96875 C 365.390625 261.542969 363.574219 265.929688 360.335938 269.167969 C 357.101562 272.402344 352.714844 274.21875 348.140625 274.21875 L 26.28125 274.21875 C 21.707031 274.21875 17.320312 272.402344 14.082031 269.167969 C 10.847656 265.929688 9.03125 261.542969 9.03125 256.96875 L 9.03125 130.136719 C 9.03125 125.5625 10.847656 121.175781 14.082031 117.941406 C 17.320312 114.703125 21.707031 112.886719 26.28125 112.886719 Z M 26.28125 112.886719 "/></clipPath><clipPath id="1a21d3e589"><path d="M 46 132.347656 L 156.875 132.347656 L 156.875 162 L 46 162 Z M 46 132.347656 "/></clipPath><clipPath id="c2efef86b2"><path d="M 21.125 225 L 132 225 L 132 254.597656 L 21.125 254.597656 Z M 21.125 225 "/></clipPath></defs><g id="1f100cac95"><g clip-rule="nonzero" clip-path="url(#d7149e1cb7)"><g clip-rule="nonzero" clip-path="url(#80d4bcacc3)"><path style=" stroke:none;fill-rule:nonzero;fill:#f1efeb;fill-opacity:1;" d="M 9.03125 112.886719 L 365.09375 112.886719 L 365.09375 274.21875 L 9.03125 274.21875 Z M 9.03125 112.886719 "/></g></g><g clip-rule="nonzero" clip-path="url(#1a21d3e589)"><path style=" stroke:none;fill-rule:evenodd;fill:#43beb3;fill-opacity:1;" d="M 46.894531 161.199219 L 131.644531 161.199219 L 156.03125 132.347656 L 71.277344 132.347656 Z M 46.894531 161.199219 "/></g><path style=" stroke:none;fill-rule:evenodd;fill:#051322;fill-opacity:1;" d="M 34.382812 207.890625 L 119.128906 207.890625 L 143.519531 179.042969 L 58.765625 179.042969 Z M 34.382812 207.890625 "/><g clip-rule="nonzero" clip-path="url(#c2efef86b2)"><path style=" stroke:none;fill-rule:evenodd;fill:#43beb3;fill-opacity:1;" d="M 21.871094 254.585938 L 106.621094 254.585938 L 131.007812 225.738281 L 46.253906 225.738281 Z M 21.871094 254.585938 "/></g><g style="fill:#282b48;fill-opacity:1;"><g transform="translate(164.64628, 191.658157)"><path style="stroke:none" d="M 1.46875 0 C 2.226562 -3.34375 2.796875 -6.867188 3.171875 -10.578125 C 3.546875 -14.296875 3.734375 -18.050781 3.734375 -21.84375 C 3.734375 -25.644531 3.546875 -29.398438 3.171875 -33.109375 C 2.796875 -36.828125 2.226562 -40.359375 1.46875 -43.703125 L 37.078125 -43.703125 C 36.710938 -41.992188 36.398438 -40.367188 36.140625 -38.828125 C 35.878906 -37.296875 35.664062 -35.710938 35.5 -34.078125 C 35.332031 -32.441406 35.1875 -30.640625 35.0625 -28.671875 C 34.144531 -31.785156 32.675781 -34.335938 30.65625 -36.328125 C 28.644531 -38.328125 26.296875 -39.8125 23.609375 -40.78125 C 20.929688 -41.75 18.085938 -42.234375 15.078125 -42.234375 C 14.546875 -39.546875 14.117188 -36.6875 13.796875 -33.65625 C 13.472656 -30.632812 13.273438 -27.207031 13.203125 -23.375 C 13.203125 -22.851562 13.445312 -22.59375 13.9375 -22.59375 L 17.578125 -22.59375 C 19.085938 -22.59375 20.472656 -22.78125 21.734375 -23.15625 C 22.992188 -23.53125 24.226562 -24.207031 25.4375 -25.1875 C 26.644531 -26.164062 27.890625 -27.570312 29.171875 -29.40625 C 29.035156 -27.445312 28.941406 -25.695312 28.890625 -24.15625 C 28.847656 -22.613281 28.847656 -21.082031 28.890625 -19.5625 C 28.941406 -18.039062 29.035156 -16.28125 29.171875 -14.28125 C 27.921875 -16.082031 26.679688 -17.472656 25.453125 -18.453125 C 24.234375 -19.441406 22.984375 -20.128906 21.703125 -20.515625 C 20.421875 -20.910156 19.046875 -21.109375 17.578125 -21.109375 L 13.9375 -21.109375 C 13.414062 -21.109375 13.15625 -20.863281 13.15625 -20.375 C 13.15625 -17.59375 13.316406 -14.546875 13.640625 -11.234375 C 13.972656 -7.929688 14.453125 -4.675781 15.078125 -1.46875 C 18.054688 -1.46875 20.894531 -1.957031 23.59375 -2.9375 C 26.289062 -3.925781 28.644531 -5.414062 30.65625 -7.40625 C 32.675781 -9.40625 34.144531 -11.945312 35.0625 -15.03125 C 35.1875 -13.0625 35.332031 -11.257812 35.5 -9.625 C 35.664062 -7.988281 35.878906 -6.398438 36.140625 -4.859375 C 36.398438 -3.316406 36.710938 -1.695312 37.078125 0 Z M 1.46875 0 "/></g></g><g style="fill:#282b48;fill-opacity:1;"><g transform="translate(210.341265, 191.658157)"><path style="stroke:none" d="M 17.578125 0.203125 C 15.117188 -0.390625 12.898438 -1.390625 10.921875 -2.796875 C 8.941406 -4.203125 7.25 -5.882812 5.84375 -7.84375 C 4.4375 -9.8125 3.351562 -11.929688 2.59375 -14.203125 C 1.84375 -16.484375 1.46875 -18.800781 1.46875 -21.15625 C 1.46875 -24.300781 2.015625 -27.289062 3.109375 -30.125 C 4.210938 -32.957031 5.769531 -35.460938 7.78125 -37.640625 C 9.789062 -39.816406 12.195312 -41.535156 15 -42.796875 C 17.800781 -44.054688 20.882812 -44.6875 24.25 -44.6875 C 25.894531 -44.6875 27.25 -44.617188 28.3125 -44.484375 C 29.375 -44.359375 30.265625 -44.160156 30.984375 -43.890625 C 32.523438 -43.398438 34.242188 -43.15625 36.140625 -43.15625 C 36.796875 -43.15625 37.425781 -43.1875 38.03125 -43.25 C 38.632812 -43.320312 39.210938 -43.421875 39.765625 -43.546875 L 40.265625 -43.703125 C 39.242188 -38.859375 38.554688 -33.671875 38.203125 -28.140625 C 37.742188 -31.546875 37 -34.3125 35.96875 -36.4375 C 34.9375 -38.5625 33.738281 -40.125 32.375 -41.125 C 31.019531 -42.125 29.59375 -42.625 28.09375 -42.625 C 26.414062 -42.625 24.75 -42.066406 23.09375 -40.953125 C 21.445312 -39.835938 19.941406 -38.253906 18.578125 -36.203125 C 17.222656 -34.160156 16.132812 -31.738281 15.3125 -28.9375 C 14.5 -26.144531 14.09375 -23.0625 14.09375 -19.6875 C 14.09375 -16.15625 14.382812 -13.175781 14.96875 -10.75 C 15.5625 -8.332031 16.375 -6.382812 17.40625 -4.90625 C 18.4375 -3.4375 19.597656 -2.363281 20.890625 -1.6875 C 22.179688 -1.019531 23.53125 -0.6875 24.9375 -0.6875 C 26.351562 -0.6875 27.769531 -0.960938 29.1875 -1.515625 C 30.613281 -2.078125 31.945312 -2.835938 33.1875 -3.796875 C 34.4375 -4.765625 35.535156 -5.878906 36.484375 -7.140625 C 37.429688 -8.398438 38.148438 -9.71875 38.640625 -11.09375 C 38.804688 -9.101562 39.019531 -7.238281 39.28125 -5.5 C 39.539062 -3.757812 39.867188 -1.925781 40.265625 0 L 39.765625 -0.140625 C 38.234375 -0.503906 36.695312 -0.6875 35.15625 -0.6875 C 34.632812 -0.6875 34.128906 -0.660156 33.640625 -0.609375 C 33.148438 -0.566406 32.675781 -0.507812 32.21875 -0.4375 C 30.25 -0.0820312 28.617188 0.25 27.328125 0.5625 C 26.035156 0.875 24.6875 1.03125 23.28125 1.03125 C 22.488281 1.03125 21.632812 0.960938 20.71875 0.828125 C 19.800781 0.703125 18.753906 0.492188 17.578125 0.203125 Z M 17.578125 0.203125 "/></g></g><g style="fill:#282b48;fill-opacity:1;"><g transform="translate(258.982157, 191.658157)"><path style="stroke:none" d="M 1.46875 0 C 2.226562 -3.34375 2.796875 -6.867188 3.171875 -10.578125 C 3.546875 -14.296875 3.734375 -18.050781 3.734375 -21.84375 C 3.734375 -25.644531 3.546875 -29.398438 3.171875 -33.109375 C 2.796875 -36.828125 2.226562 -40.359375 1.46875 -43.703125 L 15.375 -43.703125 C 14.644531 -40.460938 14.097656 -37.054688 13.734375 -33.484375 C 13.378906 -29.921875 13.1875 -26.304688 13.15625 -22.640625 L 30 -22.640625 C 29.96875 -26.304688 29.765625 -29.921875 29.390625 -33.484375 C 29.015625 -37.054688 28.46875 -40.460938 27.75 -43.703125 L 41.640625 -43.703125 C 40.921875 -40.359375 40.367188 -36.828125 39.984375 -33.109375 C 39.609375 -29.398438 39.421875 -25.644531 39.421875 -21.84375 C 39.421875 -18.050781 39.609375 -14.296875 39.984375 -10.578125 C 40.367188 -6.867188 40.921875 -3.34375 41.640625 0 L 27.75 0 C 28.5 -3.238281 29.050781 -6.65625 29.40625 -10.25 C 29.769531 -13.851562 29.96875 -17.488281 30 -21.15625 L 13.15625 -21.15625 C 13.1875 -17.488281 13.378906 -13.851562 13.734375 -10.25 C 14.097656 -6.65625 14.644531 -3.238281 15.375 0 Z M 1.46875 0 "/></g></g><g style="fill:#282b48;fill-opacity:1;"><g transform="translate(309.734282, 191.658157)"><path style="stroke:none" d="M 22.828125 0.984375 C 19.691406 0.984375 16.8125 0.394531 14.1875 -0.78125 C 11.570312 -1.957031 9.3125 -3.59375 7.40625 -5.6875 C 5.507812 -7.789062 4.046875 -10.222656 3.015625 -12.984375 C 1.984375 -15.753906 1.46875 -18.707031 1.46875 -21.84375 C 1.46875 -24.988281 1.984375 -27.941406 3.015625 -30.703125 C 4.046875 -33.472656 5.507812 -35.90625 7.40625 -38 C 9.3125 -40.09375 11.570312 -41.726562 14.1875 -42.90625 C 16.8125 -44.09375 19.691406 -44.6875 22.828125 -44.6875 C 25.972656 -44.6875 28.851562 -44.09375 31.46875 -42.90625 C 34.09375 -41.726562 36.351562 -40.09375 38.25 -38 C 40.144531 -35.90625 41.609375 -33.472656 42.640625 -30.703125 C 43.671875 -27.941406 44.1875 -24.988281 44.1875 -21.84375 C 44.1875 -18.707031 43.671875 -15.753906 42.640625 -12.984375 C 41.609375 -10.222656 40.144531 -7.789062 38.25 -5.6875 C 36.351562 -3.59375 34.09375 -1.957031 31.46875 -0.78125 C 28.851562 0.394531 25.972656 0.984375 22.828125 0.984375 Z M 13.546875 -22.59375 C 13.054688 -19.90625 12.742188 -17.273438 12.609375 -14.703125 C 12.484375 -12.140625 12.578125 -9.816406 12.890625 -7.734375 C 13.203125 -5.648438 13.773438 -3.988281 14.609375 -2.75 C 15.441406 -1.507812 16.546875 -0.890625 17.921875 -0.890625 C 19.660156 -0.890625 21.253906 -1.441406 22.703125 -2.546875 C 24.160156 -3.660156 25.476562 -5.160156 26.65625 -7.046875 C 27.84375 -8.929688 28.851562 -11.054688 29.6875 -13.421875 C 30.519531 -15.796875 31.164062 -18.242188 31.625 -20.765625 C 32.507812 -25.484375 32.753906 -29.476562 32.359375 -32.75 C 31.960938 -36.019531 31.160156 -38.515625 29.953125 -40.234375 C 28.742188 -41.953125 27.320312 -42.8125 25.6875 -42.8125 C 24.269531 -42.8125 22.785156 -42.09375 21.234375 -40.65625 C 19.679688 -39.21875 18.234375 -37.007812 16.890625 -34.03125 C 15.546875 -31.050781 14.429688 -27.238281 13.546875 -22.59375 Z M 13.546875 -22.59375 "/></g></g><g style="fill:#1a1a1a;fill-opacity:1;"><g transform="translate(203.512638, 226.966627)"><path style="stroke:none" d="M 0.734375 0 C 1.109375 -1.65625 1.390625 -3.40625 1.578125 -5.25 C 1.765625 -7.101562 1.859375 -8.972656 1.859375 -10.859375 C 1.859375 -12.742188 1.765625 -14.609375 1.578125 -16.453125 C 1.390625 -18.296875 1.109375 -20.050781 0.734375 -21.71875 L 10.484375 -21.71875 C 11.046875 -21.71875 11.660156 -21.675781 12.328125 -21.59375 C 12.992188 -21.507812 13.65625 -21.363281 14.3125 -21.15625 C 14.96875 -20.957031 15.566406 -20.675781 16.109375 -20.3125 C 16.660156 -19.957031 17.097656 -19.507812 17.421875 -18.96875 C 17.742188 -18.4375 17.90625 -17.789062 17.90625 -17.03125 C 17.90625 -16.375 17.675781 -15.734375 17.21875 -15.109375 C 16.769531 -14.484375 16.144531 -13.914062 15.34375 -13.40625 C 14.550781 -12.894531 13.640625 -12.484375 12.609375 -12.171875 C 13.378906 -12.171875 14.191406 -12.03125 15.046875 -11.75 C 15.898438 -11.476562 16.695312 -11.082031 17.4375 -10.5625 C 18.175781 -10.039062 18.78125 -9.425781 19.25 -8.71875 C 19.71875 -8.007812 19.953125 -7.234375 19.953125 -6.390625 C 19.953125 -5.609375 19.757812 -4.832031 19.375 -4.0625 C 19 -3.300781 18.421875 -2.613281 17.640625 -2 C 16.859375 -1.394531 15.867188 -0.910156 14.671875 -0.546875 C 13.472656 -0.179688 12.070312 0 10.46875 0 Z M 6.53125 -11.4375 L 6.53125 -4.59375 C 6.53125 -3.726562 6.640625 -3.035156 6.859375 -2.515625 C 7.085938 -2.003906 7.367188 -1.628906 7.703125 -1.390625 C 8.035156 -1.148438 8.382812 -0.992188 8.75 -0.921875 C 9.113281 -0.847656 9.453125 -0.8125 9.765625 -0.8125 C 10.398438 -0.8125 10.976562 -0.976562 11.5 -1.3125 C 12.03125 -1.65625 12.503906 -2.101562 12.921875 -2.65625 C 13.347656 -3.207031 13.707031 -3.800781 14 -4.4375 C 14.550781 -5.625 14.710938 -6.671875 14.484375 -7.578125 C 14.265625 -8.492188 13.765625 -9.253906 12.984375 -9.859375 C 12.203125 -10.472656 11.242188 -10.914062 10.109375 -11.1875 C 8.984375 -11.457031 7.789062 -11.539062 6.53125 -11.4375 Z M 10.4375 -20.953125 C 10.195312 -20.953125 9.859375 -20.832031 9.421875 -20.59375 C 8.992188 -20.351562 8.554688 -19.9375 8.109375 -19.34375 C 7.660156 -18.757812 7.28125 -17.957031 6.96875 -16.9375 C 6.664062 -15.925781 6.519531 -14.640625 6.53125 -13.078125 L 6.53125 -12.171875 C 8.582031 -12.273438 10.21875 -12.691406 11.4375 -13.421875 C 12.65625 -14.148438 13.300781 -15.234375 13.375 -16.671875 C 13.382812 -17.078125 13.335938 -17.519531 13.234375 -18 C 13.128906 -18.488281 12.957031 -18.957031 12.71875 -19.40625 C 12.488281 -19.851562 12.179688 -20.222656 11.796875 -20.515625 C 11.410156 -20.804688 10.957031 -20.953125 10.4375 -20.953125 Z M 10.4375 -20.953125 "/></g></g><g style="fill:#1a1a1a;fill-opacity:1;"><g transform="translate(225.06446, 226.966627)"><path style="stroke:none" d="M 11.34375 0.484375 C 9.78125 0.484375 8.347656 0.191406 7.046875 -0.390625 C 5.742188 -0.972656 4.617188 -1.785156 3.671875 -2.828125 C 2.734375 -3.867188 2.007812 -5.078125 1.5 -6.453125 C 0.988281 -7.828125 0.734375 -9.296875 0.734375 -10.859375 C 0.734375 -12.421875 0.988281 -13.890625 1.5 -15.265625 C 2.007812 -16.640625 2.734375 -17.847656 3.671875 -18.890625 C 4.617188 -19.929688 5.742188 -20.742188 7.046875 -21.328125 C 8.347656 -21.910156 9.78125 -22.203125 11.34375 -22.203125 C 12.90625 -22.203125 14.335938 -21.910156 15.640625 -21.328125 C 16.941406 -20.742188 18.0625 -19.929688 19 -18.890625 C 19.945312 -17.847656 20.675781 -16.640625 21.1875 -15.265625 C 21.695312 -13.890625 21.953125 -12.421875 21.953125 -10.859375 C 21.953125 -9.296875 21.695312 -7.828125 21.1875 -6.453125 C 20.675781 -5.078125 19.945312 -3.867188 19 -2.828125 C 18.0625 -1.785156 16.941406 -0.972656 15.640625 -0.390625 C 14.335938 0.191406 12.90625 0.484375 11.34375 0.484375 Z M 6.734375 -11.21875 C 6.492188 -9.882812 6.335938 -8.578125 6.265625 -7.296875 C 6.203125 -6.023438 6.25 -4.875 6.40625 -3.84375 C 6.5625 -2.8125 6.84375 -1.984375 7.25 -1.359375 C 7.664062 -0.742188 8.21875 -0.4375 8.90625 -0.4375 C 9.769531 -0.4375 10.5625 -0.710938 11.28125 -1.265625 C 12.007812 -1.816406 12.664062 -2.5625 13.25 -3.5 C 13.832031 -4.4375 14.332031 -5.492188 14.75 -6.671875 C 15.164062 -7.847656 15.488281 -9.066406 15.71875 -10.328125 C 16.15625 -12.660156 16.273438 -14.640625 16.078125 -16.265625 C 15.878906 -17.898438 15.476562 -19.144531 14.875 -20 C 14.28125 -20.851562 13.578125 -21.28125 12.765625 -21.28125 C 12.066406 -21.28125 11.328125 -20.921875 10.546875 -20.203125 C 9.773438 -19.484375 9.054688 -18.382812 8.390625 -16.90625 C 7.722656 -15.425781 7.171875 -13.53125 6.734375 -11.21875 Z M 6.734375 -11.21875 "/></g></g><g style="fill:#1a1a1a;fill-opacity:1;"><g transform="translate(249.493989, 226.966627)"><path style="stroke:none" d="M 0 0 C 0.488281 -0.644531 0.953125 -1.332031 1.390625 -2.0625 C 1.828125 -2.800781 2.269531 -3.644531 2.71875 -4.59375 C 3.164062 -5.550781 3.660156 -6.675781 4.203125 -7.96875 C 4.753906 -9.257812 5.378906 -10.785156 6.078125 -12.546875 L 9.78125 -21.71875 L 14.046875 -22.203125 C 14.046875 -21.960938 14.144531 -21.429688 14.34375 -20.609375 C 14.550781 -19.796875 14.835938 -18.785156 15.203125 -17.578125 C 15.578125 -16.367188 16.023438 -15.03125 16.546875 -13.5625 C 17.066406 -12.101562 17.644531 -10.578125 18.28125 -8.984375 C 18.925781 -7.398438 19.617188 -5.835938 20.359375 -4.296875 C 21.097656 -2.765625 21.875 -1.332031 22.6875 0 L 13.984375 0 C 14.242188 -0.863281 14.316406 -1.9375 14.203125 -3.21875 C 14.085938 -4.5 13.851562 -5.847656 13.5 -7.265625 L 5.09375 -7.265625 C 4.738281 -5.554688 4.726562 -4.132812 5.0625 -3 C 5.394531 -1.863281 6.109375 -0.863281 7.203125 0 Z M 5.265625 -8.03125 L 13.296875 -8.03125 C 12.941406 -9.332031 12.519531 -10.609375 12.03125 -11.859375 C 11.539062 -13.109375 11.03125 -14.253906 10.5 -15.296875 C 9.96875 -16.335938 9.445312 -17.179688 8.9375 -17.828125 L 6.90625 -12.78125 C 6.550781 -11.875 6.234375 -11.023438 5.953125 -10.234375 C 5.671875 -9.441406 5.441406 -8.707031 5.265625 -8.03125 Z M 5.265625 -8.03125 "/></g></g><g style="fill:#1a1a1a;fill-opacity:1;"><g transform="translate(273.240673, 226.966627)"><path style="stroke:none" d="M 7.640625 0 L 0.734375 0 C 1.109375 -1.65625 1.390625 -3.40625 1.578125 -5.25 C 1.765625 -7.101562 1.859375 -8.972656 1.859375 -10.859375 C 1.859375 -12.742188 1.765625 -14.609375 1.578125 -16.453125 C 1.398438 -18.296875 1.125 -20.050781 0.75 -21.71875 L 9.4375 -21.71875 C 11.4375 -21.71875 13.128906 -21.476562 14.515625 -21 C 15.910156 -20.53125 17.003906 -19.914062 17.796875 -19.15625 C 18.597656 -18.40625 19.109375 -17.582031 19.328125 -16.6875 C 19.554688 -15.789062 19.484375 -14.90625 19.109375 -14.03125 C 18.742188 -13.15625 18.097656 -12.363281 17.171875 -11.65625 C 16.242188 -10.945312 15.035156 -10.40625 13.546875 -10.03125 C 14.015625 -9.132812 14.523438 -8.195312 15.078125 -7.21875 C 15.628906 -6.25 16.207031 -5.300781 16.8125 -4.375 C 17.414062 -3.457031 18.003906 -2.613281 18.578125 -1.84375 C 19.160156 -1.082031 19.691406 -0.46875 20.171875 0 L 11.59375 0 C 11.65625 -0.75 11.601562 -1.640625 11.4375 -2.671875 C 11.28125 -3.703125 11 -4.8125 10.59375 -6 C 10.1875 -7.1875 9.640625 -8.367188 8.953125 -9.546875 L 6.5625 -9.546875 C 6.582031 -8.398438 6.644531 -7.242188 6.75 -6.078125 C 6.851562 -4.921875 6.984375 -3.816406 7.140625 -2.765625 C 7.304688 -1.722656 7.472656 -0.800781 7.640625 0 Z M 6.53125 -10.421875 L 8.875 -10.421875 C 10.195312 -10.421875 11.28125 -10.703125 12.125 -11.265625 C 12.96875 -11.828125 13.550781 -12.585938 13.875 -13.546875 C 14.207031 -14.515625 14.25 -15.601562 14 -16.8125 C 13.875 -17.425781 13.660156 -18.046875 13.359375 -18.671875 C 13.054688 -19.296875 12.65625 -19.820312 12.15625 -20.25 C 11.664062 -20.675781 11.054688 -20.890625 10.328125 -20.890625 C 9.554688 -20.890625 8.925781 -20.585938 8.4375 -19.984375 C 7.945312 -19.378906 7.5625 -18.570312 7.28125 -17.5625 C 7.007812 -16.550781 6.816406 -15.425781 6.703125 -14.1875 C 6.585938 -12.957031 6.53125 -11.703125 6.53125 -10.421875 Z M 6.53125 -10.421875 "/></g></g><g style="fill:#1a1a1a;fill-opacity:1;"><g transform="translate(295.01198, 226.966627)"><path style="stroke:none" d="M 10.78125 0 L 0.734375 0 C 1.109375 -1.65625 1.390625 -3.40625 1.578125 -5.25 C 1.765625 -7.101562 1.859375 -8.972656 1.859375 -10.859375 C 1.859375 -12.742188 1.765625 -14.609375 1.578125 -16.453125 C 1.390625 -18.296875 1.109375 -20.050781 0.734375 -21.71875 L 10.953125 -21.71875 C 12.609375 -21.71875 14.050781 -21.410156 15.28125 -20.796875 C 16.507812 -20.191406 17.535156 -19.367188 18.359375 -18.328125 C 19.179688 -17.285156 19.796875 -16.117188 20.203125 -14.828125 C 20.609375 -13.546875 20.800781 -12.21875 20.78125 -10.84375 C 20.769531 -9.46875 20.550781 -8.132812 20.125 -6.84375 C 19.707031 -5.550781 19.082031 -4.390625 18.25 -3.359375 C 17.414062 -2.335938 16.375 -1.519531 15.125 -0.90625 C 13.882812 -0.300781 12.4375 0 10.78125 0 Z M 6.53125 -4.59375 C 6.53125 -3.289062 6.757812 -2.332031 7.21875 -1.71875 C 7.675781 -1.113281 8.25 -0.8125 8.9375 -0.8125 C 9.550781 -0.8125 10.207031 -1.035156 10.90625 -1.484375 C 11.601562 -1.941406 12.273438 -2.597656 12.921875 -3.453125 C 13.578125 -4.316406 14.148438 -5.367188 14.640625 -6.609375 C 15.128906 -7.847656 15.460938 -9.238281 15.640625 -10.78125 C 15.878906 -12.863281 15.878906 -14.613281 15.640625 -16.03125 C 15.410156 -17.457031 15.019531 -18.566406 14.46875 -19.359375 C 13.925781 -20.148438 13.300781 -20.625 12.59375 -20.78125 C 12.34375 -20.851562 12.070312 -20.890625 11.78125 -20.890625 C 11 -20.890625 10.285156 -20.640625 9.640625 -20.140625 C 9.003906 -19.640625 8.453125 -18.953125 7.984375 -18.078125 C 7.523438 -17.203125 7.164062 -16.191406 6.90625 -15.046875 C 6.65625 -13.910156 6.53125 -12.703125 6.53125 -11.421875 Z M 6.53125 -4.59375 "/></g></g></g></svg>