<svg width="176" height="243" viewBox="0 0 176 243" fill="none" xmlns="http://www.w3.org/2000/svg">
<path d="M33.7544 180.983V187.337H22.796V193.67H33.296V200.024H22.796V206.441H33.7544V212.795H15.546V180.983H33.7544Z" fill="#282B48"/>
<path d="M60.7131 206.233C61.8068 206.233 62.8797 206.066 63.9214 205.733C64.9631 205.399 65.7235 205.082 66.2131 204.774L66.9631 204.274L70.0464 210.441C69.9318 210.524 69.786 210.629 69.6089 210.754C69.4266 210.879 69.0099 211.118 68.3589 211.462C67.7026 211.811 67.0047 212.118 66.2547 212.379C65.5151 212.629 64.5464 212.858 63.3381 213.066C62.1297 213.274 60.8797 213.379 59.5881 213.379C56.6297 213.379 53.8224 212.66 51.1714 211.212C48.5308 209.754 46.4006 207.754 44.7756 205.212C43.161 202.66 42.3589 199.899 42.3589 196.941C42.3589 194.707 42.8276 192.561 43.7756 190.504C44.7339 188.452 45.9943 186.691 47.5672 185.233C49.1506 183.764 50.9943 182.587 53.1089 181.712C55.2183 180.837 57.3797 180.399 59.5881 180.399C61.6401 180.399 63.536 180.644 65.2756 181.129C67.0099 181.618 68.2391 182.108 68.9631 182.608L70.0464 183.337L66.9631 189.504C66.7808 189.353 66.5099 189.165 66.1506 188.941C65.786 188.722 65.0672 188.436 63.9839 188.087C62.9006 187.728 61.8068 187.545 60.7131 187.545C58.9631 187.545 57.3901 187.832 56.0047 188.399C54.6141 188.957 53.5099 189.702 52.6922 190.629C51.8849 191.545 51.2651 192.54 50.8381 193.608C50.4214 194.681 50.2131 195.769 50.2131 196.879C50.2131 199.295 51.1141 201.462 52.9214 203.379C54.7391 205.285 57.3381 206.233 60.7131 206.233Z" fill="#282B48"/>
<path d="M85.9265 200.024V212.795H78.6765V180.983H85.9265V193.67H96.1765V180.983H103.427V212.795H96.1765V200.024H85.9265Z" fill="#282B48"/>
<path d="M112.508 196.879C112.508 192.269 114.07 188.373 117.195 185.191C120.331 181.998 124.117 180.399 128.549 180.399C132.992 180.399 136.768 181.993 139.883 185.17C142.992 188.337 144.549 192.243 144.549 196.879C144.549 201.535 143.013 205.452 139.945 208.629C136.888 211.795 133.091 213.379 128.549 213.379C123.893 213.379 120.055 211.806 117.029 208.649C114.013 205.498 112.508 201.577 112.508 196.879ZM120.32 196.879C120.32 198.545 120.576 200.066 121.091 201.441C121.602 202.816 122.497 203.983 123.779 204.941C125.07 205.889 126.659 206.358 128.549 206.358C131.242 206.358 133.279 205.436 134.654 203.587C136.029 201.728 136.716 199.493 136.716 196.879C136.716 194.285 136.013 192.056 134.612 190.191C133.206 188.316 131.185 187.379 128.549 187.379C125.924 187.379 123.893 188.316 122.466 190.191C121.034 192.056 120.32 194.285 120.32 196.879Z" fill="#282B48"/>
<path d="M49.9221 242.503V230.649H54.0888C54.9221 230.649 55.6096 230.784 56.1513 231.045C56.7034 231.31 57.1148 231.67 57.3805 232.128C57.6565 232.586 57.7971 233.102 57.7971 233.67C57.7971 234.435 57.5888 235.04 57.1721 235.482C56.7659 235.915 56.2763 236.222 55.693 236.399C56.1357 236.472 56.5367 236.644 56.9013 236.92C57.2607 237.185 57.5471 237.524 57.7555 237.941C57.9638 238.347 58.068 238.79 58.068 239.274C58.068 239.873 57.9221 240.42 57.6305 240.92C57.3388 241.409 56.9013 241.795 56.318 242.086C55.745 242.368 55.0523 242.503 54.2346 242.503H49.9221ZM51.3388 235.836H53.9846C54.745 235.836 55.3284 235.659 55.7346 235.295C56.1357 234.935 56.3388 234.441 56.3388 233.816C56.3388 233.222 56.1357 232.743 55.7346 232.378C55.344 232.019 54.745 231.836 53.943 231.836H51.3388V235.836ZM51.3388 241.316H54.068C54.8857 241.316 55.5107 241.128 55.943 240.753C56.3857 240.378 56.6096 239.852 56.6096 239.17C56.6096 238.503 56.3805 237.972 55.9221 237.566C55.4638 237.165 54.8388 236.961 54.0471 236.961H51.3388V241.316Z" fill="#282B48"/>
<path d="M66.7008 242.711C65.5342 242.711 64.5133 242.456 63.6383 241.941C62.7633 241.43 62.0758 240.706 61.5758 239.774C61.0863 238.847 60.8467 237.774 60.8467 236.566C60.8467 235.357 61.0863 234.295 61.5758 233.378C62.0758 232.461 62.7633 231.748 63.6383 231.232C64.5133 230.706 65.5342 230.441 66.7008 230.441C67.8675 230.441 68.8883 230.706 69.7633 231.232C70.6383 231.748 71.3154 232.461 71.805 233.378C72.2894 234.295 72.5342 235.357 72.5342 236.566C72.5342 237.774 72.2894 238.847 71.805 239.774C71.3154 240.706 70.6383 241.43 69.7633 241.941C68.8883 242.456 67.8675 242.711 66.7008 242.711ZM66.7008 241.461C67.5602 241.461 68.3154 241.269 68.9717 240.878C69.6383 240.477 70.1488 239.915 70.5133 239.191C70.8883 238.472 71.0758 237.597 71.0758 236.566C71.0758 235.555 70.8883 234.685 70.5133 233.961C70.1488 233.243 69.6383 232.685 68.9717 232.295C68.3154 231.909 67.5602 231.711 66.7008 231.711C65.8258 231.711 65.055 231.909 64.3883 232.295C63.7321 232.685 63.2217 233.243 62.8467 233.961C62.4821 234.685 62.305 235.555 62.305 236.566C62.305 237.597 62.4821 238.472 62.8467 239.191C63.2217 239.915 63.7321 240.477 64.3883 240.878C65.055 241.269 65.8258 241.461 66.7008 241.461Z" fill="#282B48"/>
<path d="M75.0205 242.503L79.3955 230.649H80.9163L85.2497 242.503H83.7497L82.6663 239.461H77.6247L76.5205 242.503H75.0205ZM78.0413 238.295H82.2497L80.1455 232.441L78.0413 238.295Z" fill="#282B48"/>
<path d="M88.2035 242.503V230.649H92.0368C92.9639 230.649 93.7243 230.805 94.3077 231.107C94.891 231.415 95.3181 231.831 95.5993 232.357C95.891 232.889 96.0368 233.477 96.0368 234.128C96.0368 234.868 95.8337 235.534 95.4327 236.128C95.0264 236.727 94.4014 237.149 93.5577 237.399L96.141 242.503H94.4743L92.0785 237.607H89.6202V242.503H88.2035ZM89.6202 236.482H91.9327C92.8493 236.482 93.516 236.269 93.9327 235.836C94.3493 235.394 94.5577 234.826 94.5577 234.128C94.5577 233.435 94.3493 232.889 93.9327 232.482C93.5264 232.066 92.8545 231.857 91.9118 231.857H89.6202V236.482Z" fill="#282B48"/>
<path d="M99.4338 242.503V230.649H103.08C105.163 230.649 106.694 231.185 107.684 232.253C108.684 233.31 109.184 234.764 109.184 236.607C109.184 238.43 108.684 239.868 107.684 240.92C106.694 241.977 105.163 242.503 103.08 242.503H99.4338ZM100.851 241.316H103.038C104.189 241.316 105.106 241.128 105.788 240.753C106.481 240.378 106.976 239.836 107.267 239.128C107.559 238.42 107.705 237.581 107.705 236.607C107.705 235.623 107.559 234.774 107.267 234.066C106.976 233.347 106.481 232.795 105.788 232.42C105.106 232.034 104.189 231.836 103.038 231.836H100.851V241.316Z" fill="#282B48"/>
<mask id="mask0_0_1" style="mask-type:luminance" maskUnits="userSpaceOnUse" x="32" y="0" width="144" height="38">
<path d="M32 0H176V37.6979H32V0Z" fill="white"/>
</mask>
<g mask="url(#mask0_0_1)">
<path fill-rule="evenodd" clip-rule="evenodd" d="M33.1146 37.526H143.703L175.526 0H64.9375L33.1146 37.526Z" fill="#006D9F"/>
</g>
<path fill-rule="evenodd" clip-rule="evenodd" d="M16.7865 98.2552H127.375L159.198 60.7344H48.6094L16.7865 98.2552Z" fill="#282B48"/>
<mask id="mask1_0_1" style="mask-type:luminance" maskUnits="userSpaceOnUse" x="0" y="120" width="144" height="39">
<path d="M0 120.365H144V159H0V120.365Z" fill="white"/>
</mask>
<g mask="url(#mask1_0_1)">
<path fill-rule="evenodd" clip-rule="evenodd" d="M0.463501 158.984H111.052L142.875 121.464H32.2812L0.463501 158.984Z" fill="#006D9F"/>
</g>
</svg>
