<svg xmlns="http://www.w3.org/2000/svg" xmlns:xlink="http://www.w3.org/1999/xlink" width="500" zoomAndPan="magnify" viewBox="0 0 375 374.999991" height="500" preserveAspectRatio="xMidYMid meet" version="1.2"><defs><clipPath id="01703f150b"><path d="M 152 97.726562 L 260 97.726562 L 260 126 L 152 126 Z M 152 97.726562 "/></clipPath><clipPath id="293d68c669"><path d="M 128 188 L 236 188 L 236 216.976562 L 128 216.976562 Z M 128 188 "/></clipPath></defs><g id="e240a7cb60"><g style="fill:#282b48;fill-opacity:1;"><g transform="translate(137.925136, 257.322991)"><path style="stroke:none" d="M 15.390625 -23.859375 L 15.390625 -19.09375 L 7.171875 -19.09375 L 7.171875 -14.34375 L 15.046875 -14.34375 L 15.046875 -9.578125 L 7.171875 -9.578125 L 7.171875 -4.765625 L 15.390625 -4.765625 L 15.390625 0 L 1.734375 0 L 1.734375 -23.859375 Z M 15.390625 -23.859375 "/></g></g><g style="fill:#282b48;fill-opacity:1;"><g transform="translate(159.097322, 257.322991)"><path style="stroke:none" d="M 14.4375 -4.921875 C 15.257812 -4.921875 16.0625 -5.046875 16.84375 -5.296875 C 17.625 -5.546875 18.195312 -5.785156 18.5625 -6.015625 L 19.125 -6.390625 L 21.4375 -1.765625 C 21.351562 -1.703125 21.242188 -1.625 21.109375 -1.53125 C 20.972656 -1.4375 20.660156 -1.257812 20.171875 -1 C 19.679688 -0.738281 19.15625 -0.507812 18.59375 -0.3125 C 18.039062 -0.125 17.3125 0.046875 16.40625 0.203125 C 15.5 0.359375 14.5625 0.4375 13.59375 0.4375 C 11.375 0.4375 9.269531 -0.101562 7.28125 -1.1875 C 5.300781 -2.28125 3.703125 -3.78125 2.484375 -5.6875 C 1.273438 -7.601562 0.671875 -9.671875 0.671875 -11.890625 C 0.671875 -13.566406 1.023438 -15.175781 1.734375 -16.71875 C 2.453125 -18.257812 3.398438 -19.578125 4.578125 -20.671875 C 5.765625 -21.773438 7.148438 -22.65625 8.734375 -23.3125 C 10.316406 -23.96875 11.9375 -24.296875 13.59375 -24.296875 C 15.132812 -24.296875 16.554688 -24.113281 17.859375 -23.75 C 19.160156 -23.382812 20.082031 -23.015625 20.625 -22.640625 L 21.4375 -22.09375 L 19.125 -17.46875 C 18.988281 -17.582031 18.785156 -17.722656 18.515625 -17.890625 C 18.242188 -18.054688 17.703125 -18.269531 16.890625 -18.53125 C 16.078125 -18.800781 15.257812 -18.9375 14.4375 -18.9375 C 13.125 -18.9375 11.945312 -18.722656 10.90625 -18.296875 C 9.863281 -17.878906 9.035156 -17.320312 8.421875 -16.625 C 7.816406 -15.9375 7.351562 -15.191406 7.03125 -14.390625 C 6.71875 -13.585938 6.5625 -12.769531 6.5625 -11.9375 C 6.5625 -10.125 7.238281 -8.5 8.59375 -7.0625 C 9.957031 -5.632812 11.90625 -4.921875 14.4375 -4.921875 Z M 14.4375 -4.921875 "/></g></g><g style="fill:#282b48;fill-opacity:1;"><g transform="translate(185.272991, 257.322991)"><path style="stroke:none" d="M 7.171875 -9.578125 L 7.171875 0 L 1.734375 0 L 1.734375 -23.859375 L 7.171875 -23.859375 L 7.171875 -14.34375 L 14.859375 -14.34375 L 14.859375 -23.859375 L 20.296875 -23.859375 L 20.296875 0 L 14.859375 0 L 14.859375 -9.578125 Z M 7.171875 -9.578125 "/></g></g><g style="fill:#282b48;fill-opacity:1;"><g transform="translate(211.708967, 257.322991)"><path style="stroke:none" d="M 0.671875 -11.9375 C 0.671875 -15.394531 1.84375 -18.316406 4.1875 -20.703125 C 6.539062 -23.097656 9.378906 -24.296875 12.703125 -24.296875 C 16.035156 -24.296875 18.867188 -23.101562 21.203125 -20.71875 C 23.535156 -18.34375 24.703125 -15.414062 24.703125 -11.9375 C 24.703125 -8.445312 23.550781 -5.507812 21.25 -3.125 C 18.957031 -0.75 16.109375 0.4375 12.703125 0.4375 C 9.210938 0.4375 6.332031 -0.742188 4.0625 -3.109375 C 1.800781 -5.472656 0.671875 -8.414062 0.671875 -11.9375 Z M 6.53125 -11.9375 C 6.53125 -10.6875 6.722656 -9.546875 7.109375 -8.515625 C 7.492188 -7.484375 8.164062 -6.609375 9.125 -5.890625 C 10.09375 -5.179688 11.285156 -4.828125 12.703125 -4.828125 C 14.722656 -4.828125 16.25 -5.519531 17.28125 -6.90625 C 18.3125 -8.300781 18.828125 -9.976562 18.828125 -11.9375 C 18.828125 -13.882812 18.300781 -15.554688 17.25 -16.953125 C 16.195312 -18.359375 14.679688 -19.0625 12.703125 -19.0625 C 10.734375 -19.0625 9.210938 -18.359375 8.140625 -16.953125 C 7.066406 -15.554688 6.53125 -13.882812 6.53125 -11.9375 Z M 6.53125 -11.9375 "/></g></g><g style="fill:#282b48;fill-opacity:1;"><g transform="translate(164.504129, 279.603879)"><path style="stroke:none" d="M 0.9375 0 L 0.9375 -8.890625 L 4.0625 -8.890625 C 4.6875 -8.890625 5.203125 -8.789062 5.609375 -8.59375 C 6.023438 -8.394531 6.332031 -8.125 6.53125 -7.78125 C 6.738281 -7.4375 6.84375 -7.050781 6.84375 -6.625 C 6.84375 -6.050781 6.6875 -5.597656 6.375 -5.265625 C 6.070312 -4.941406 5.703125 -4.710938 5.265625 -4.578125 C 5.597656 -4.523438 5.898438 -4.394531 6.171875 -4.1875 C 6.441406 -3.988281 6.65625 -3.734375 6.8125 -3.421875 C 6.96875 -3.117188 7.046875 -2.785156 7.046875 -2.421875 C 7.046875 -1.972656 6.9375 -1.5625 6.71875 -1.1875 C 6.5 -0.820312 6.171875 -0.53125 5.734375 -0.3125 C 5.304688 -0.101562 4.785156 0 4.171875 0 Z M 2 -5 L 3.984375 -5 C 4.554688 -5 4.992188 -5.132812 5.296875 -5.40625 C 5.597656 -5.675781 5.75 -6.046875 5.75 -6.515625 C 5.75 -6.960938 5.597656 -7.320312 5.296875 -7.59375 C 5.003906 -7.863281 4.554688 -8 3.953125 -8 L 2 -8 Z M 2 -0.890625 L 4.046875 -0.890625 C 4.660156 -0.890625 5.128906 -1.03125 5.453125 -1.3125 C 5.785156 -1.59375 5.953125 -1.988281 5.953125 -2.5 C 5.953125 -3 5.78125 -3.398438 5.4375 -3.703125 C 5.09375 -4.003906 4.625 -4.15625 4.03125 -4.15625 L 2 -4.15625 Z M 2 -0.890625 "/></g></g><g style="fill:#282b48;fill-opacity:1;"><g transform="translate(173.041261, 279.603879)"><path style="stroke:none" d="M 4.984375 0.15625 C 4.109375 0.15625 3.34375 -0.0351562 2.6875 -0.421875 C 2.03125 -0.804688 1.515625 -1.347656 1.140625 -2.046875 C 0.773438 -2.742188 0.59375 -3.546875 0.59375 -4.453125 C 0.59375 -5.359375 0.773438 -6.15625 1.140625 -6.84375 C 1.515625 -7.53125 2.03125 -8.066406 2.6875 -8.453125 C 3.34375 -8.847656 4.109375 -9.046875 4.984375 -9.046875 C 5.859375 -9.046875 6.625 -8.847656 7.28125 -8.453125 C 7.9375 -8.066406 8.445312 -7.53125 8.8125 -6.84375 C 9.175781 -6.15625 9.359375 -5.359375 9.359375 -4.453125 C 9.359375 -3.546875 9.175781 -2.742188 8.8125 -2.046875 C 8.445312 -1.347656 7.9375 -0.804688 7.28125 -0.421875 C 6.625 -0.0351562 5.859375 0.15625 4.984375 0.15625 Z M 4.984375 -0.78125 C 5.628906 -0.78125 6.195312 -0.925781 6.6875 -1.21875 C 7.1875 -1.519531 7.570312 -1.941406 7.84375 -2.484375 C 8.125 -3.023438 8.265625 -3.679688 8.265625 -4.453125 C 8.265625 -5.210938 8.125 -5.863281 7.84375 -6.40625 C 7.570312 -6.945312 7.1875 -7.363281 6.6875 -7.65625 C 6.195312 -7.945312 5.628906 -8.09375 4.984375 -8.09375 C 4.328125 -8.09375 3.75 -7.945312 3.25 -7.65625 C 2.757812 -7.363281 2.375 -6.945312 2.09375 -6.40625 C 1.820312 -5.863281 1.6875 -5.210938 1.6875 -4.453125 C 1.6875 -3.679688 1.820312 -3.023438 2.09375 -2.484375 C 2.375 -1.941406 2.757812 -1.519531 3.25 -1.21875 C 3.75 -0.925781 4.328125 -0.78125 4.984375 -0.78125 Z M 4.984375 -0.78125 "/></g></g><g style="fill:#282b48;fill-opacity:1;"><g transform="translate(183.890362, 279.603879)"><path style="stroke:none" d="M 0.375 0 L 3.65625 -8.890625 L 4.796875 -8.890625 L 8.046875 0 L 6.921875 0 L 6.109375 -2.28125 L 2.328125 -2.28125 L 1.5 0 Z M 2.640625 -3.15625 L 5.796875 -3.15625 L 4.21875 -7.546875 Z M 2.640625 -3.15625 "/></g></g><g style="fill:#282b48;fill-opacity:1;"><g transform="translate(193.215088, 279.603879)"><path style="stroke:none" d="M 0.9375 0 L 0.9375 -8.890625 L 3.8125 -8.890625 C 4.507812 -8.890625 5.078125 -8.773438 5.515625 -8.546875 C 5.953125 -8.316406 6.273438 -8.003906 6.484375 -7.609375 C 6.703125 -7.210938 6.8125 -6.769531 6.8125 -6.28125 C 6.8125 -5.726562 6.660156 -5.226562 6.359375 -4.78125 C 6.054688 -4.332031 5.585938 -4.015625 4.953125 -3.828125 L 6.890625 0 L 5.640625 0 L 3.84375 -3.671875 L 2 -3.671875 L 2 0 Z M 2 -4.515625 L 3.734375 -4.515625 C 4.421875 -4.515625 4.921875 -4.675781 5.234375 -5 C 5.546875 -5.332031 5.703125 -5.757812 5.703125 -6.28125 C 5.703125 -6.800781 5.546875 -7.210938 5.234375 -7.515625 C 4.929688 -7.828125 4.425781 -7.984375 3.71875 -7.984375 L 2 -7.984375 Z M 2 -4.515625 "/></g></g><g style="fill:#282b48;fill-opacity:1;"><g transform="translate(201.637893, 279.603879)"><path style="stroke:none" d="M 0.9375 0 L 0.9375 -8.890625 L 3.671875 -8.890625 C 5.234375 -8.890625 6.382812 -8.488281 7.125 -7.6875 C 7.875 -6.894531 8.25 -5.804688 8.25 -4.421875 C 8.25 -3.054688 7.875 -1.976562 7.125 -1.1875 C 6.382812 -0.394531 5.234375 0 3.671875 0 Z M 2 -0.890625 L 3.640625 -0.890625 C 4.503906 -0.890625 5.191406 -1.03125 5.703125 -1.3125 C 6.222656 -1.59375 6.59375 -2 6.8125 -2.53125 C 7.03125 -3.0625 7.140625 -3.691406 7.140625 -4.421875 C 7.140625 -5.160156 7.03125 -5.796875 6.8125 -6.328125 C 6.59375 -6.867188 6.222656 -7.28125 5.703125 -7.5625 C 5.191406 -7.851562 4.503906 -8 3.640625 -8 L 2 -8 Z M 2 -0.890625 "/></g></g><g clip-rule="nonzero" clip-path="url(#01703f150b)"><path style=" stroke:none;fill-rule:evenodd;fill:#006d9f;fill-opacity:1;" d="M 152.835938 125.871094 L 235.777344 125.871094 L 259.644531 97.726562 L 176.703125 97.726562 Z M 152.835938 125.871094 "/></g><path style=" stroke:none;fill-rule:evenodd;fill:#282b48;fill-opacity:1;" d="M 140.589844 171.417969 L 223.53125 171.417969 L 247.398438 143.277344 L 164.457031 143.277344 Z M 140.589844 171.417969 "/><g clip-rule="nonzero" clip-path="url(#293d68c669)"><path style=" stroke:none;fill-rule:evenodd;fill:#006d9f;fill-opacity:1;" d="M 128.347656 216.964844 L 211.289062 216.964844 L 235.15625 188.824219 L 152.210938 188.824219 Z M 128.347656 216.964844 "/></g></g></svg>