<svg width="44" height="44" viewBox="0 0 44 44" fill="none" xmlns="http://www.w3.org/2000/svg">
<path d="M21.7907 4.21023C20.3394 4.21711 18.9541 4.34052 17.7345 4.55639C14.1423 5.19095 13.4905 6.5192 13.4905 8.96911V12.2041H21.9788V13.2825H10.3047C7.83791 13.2825 5.67779 14.7651 5.00198 17.5866C4.22235 20.8195 4.18798 22.8374 5.00198 26.2133C5.60526 28.7265 7.04626 30.5167 9.51335 30.5167H12.4321V26.6385C12.4321 23.8366 14.8559 21.3654 17.7348 21.3654H26.2134C28.5736 21.3654 30.4574 19.4219 30.4574 17.052V8.96945C30.4574 6.66873 28.5165 4.9407 26.2134 4.55673C24.7545 4.31405 23.2417 4.2037 21.7907 4.21023ZM17.2003 6.81208C18.0769 6.81208 18.7932 7.5398 18.7932 8.43492C18.7932 9.32627 18.0772 10.0471 17.2003 10.0471C16.3203 10.0471 15.6077 9.32627 15.6077 8.43492C15.6074 7.5398 16.3203 6.81208 17.2003 6.81208Z" fill="url(#paint0_linear_118_402)"/>
<path d="M31.5157 13.2824V17.052C31.5157 19.9739 29.0379 22.4334 26.213 22.4334H17.7344C15.412 22.4334 13.4905 24.4213 13.4905 26.7471V34.8305C13.4905 37.1305 15.4904 38.4838 17.7344 39.1435C20.4212 39.9331 22.9979 40.0761 26.213 39.1435C28.3498 38.5244 30.4569 37.2793 30.4569 34.8305V31.595H21.9787V30.5164H34.7015C37.1683 30.5164 38.0882 28.7959 38.9462 26.2129C39.8324 23.554 39.7942 20.9969 38.9462 17.5862C38.3364 15.1301 37.1721 13.2821 34.7015 13.2821L31.5157 13.2824ZM26.7469 33.7517C27.6272 33.7517 28.3398 34.4726 28.3398 35.3646C28.3398 36.2591 27.6269 36.9868 26.7469 36.9868C25.8703 36.9868 25.1543 36.2591 25.1543 35.3646C25.1543 34.4726 25.8703 33.7517 26.7469 33.7517Z" fill="url(#paint1_linear_118_402)"/>
<defs>
<linearGradient id="paint0_linear_118_402" x1="3.55338" y1="5.22175" x2="23.1312" y2="21.9177" gradientUnits="userSpaceOnUse">
<stop stop-color="#809DBE"/>
<stop offset="1" stop-color="#3F5166"/>
</linearGradient>
<linearGradient id="paint1_linear_118_402" x1="30.4971" y1="32.2961" x2="23.4762" y2="22.4503" gradientUnits="userSpaceOnUse">
<stop stop-color="#809DBE"/>
<stop offset="1" stop-color="#809DBE" stop-opacity="0.7"/>
</linearGradient>
</defs>
</svg>
