<svg width="44" height="44" viewBox="0 0 44 44" fill="none" xmlns="http://www.w3.org/2000/svg">
<path d="M22 25.9188C24.1643 25.9188 25.9188 24.1643 25.9188 22C25.9188 19.8358 24.1643 18.0813 22 18.0813C19.8358 18.0813 18.0813 19.8358 18.0813 22C18.0813 24.1643 19.8358 25.9188 22 25.9188Z" fill="#809DBE"/>
<path d="M36.8844 15.5376C36.1281 15.2626 35.3375 14.9876 34.5125 14.7469C34.7187 13.9219 34.8906 13.0969 35.0281 12.3063C35.75 7.76881 34.9594 4.57193 32.7593 3.33442C32.1062 2.9563 31.3843 2.78442 30.5593 2.78442C28.1531 2.78442 25.0937 4.57193 22 7.56256C18.9062 4.57193 15.8468 2.78442 13.4406 2.78442C12.6156 2.78442 11.8937 2.9563 11.2406 3.33442C9.04058 4.60631 8.24995 7.80318 8.97183 12.3063C9.10933 13.0969 9.2812 13.9219 9.48745 14.7469C8.66245 14.9876 7.87183 15.2282 7.11558 15.5376C2.8187 17.1876 0.481201 19.4563 0.481201 22.0001C0.481201 24.5438 2.85308 26.8126 7.11558 28.4626C7.87183 28.7376 8.66245 29.0126 9.48745 29.2532C9.2812 30.0782 9.10933 30.9032 8.97183 31.6938C8.24995 36.2313 9.04058 39.4282 11.2406 40.6657C11.8937 41.0438 12.6156 41.2157 13.4406 41.2157C15.8812 41.2157 18.9406 39.4282 22 36.4376C25.0937 39.4282 28.1531 41.2157 30.5593 41.2157C31.3843 41.2157 32.1062 41.0438 32.7593 40.6657C34.9594 39.3938 35.75 36.1969 35.0281 31.6938C34.8906 30.9032 34.7187 30.0782 34.5125 29.2532C35.3375 29.0126 36.1281 28.7719 36.8844 28.4626C41.1812 26.8126 43.5187 24.5438 43.5187 22.0001C43.5187 19.4563 41.1812 17.1876 36.8844 15.5376ZM31.7968 5.05318C33.2062 5.87818 33.6874 8.42193 33.1031 12.0313C32.9999 12.7532 32.8281 13.5094 32.6218 14.3001C30.8343 13.8876 28.9437 13.6126 26.95 13.4407C25.7812 11.7907 24.5781 10.3126 23.375 8.97193C25.9187 6.46256 28.4968 4.74381 30.5937 4.74381C31.0406 4.74381 31.4531 4.84693 31.7968 5.05318ZM27.9468 25.4376C27.3281 26.5376 26.6062 27.6376 25.8499 28.7376C24.5781 28.8407 23.3062 28.8751 22 28.8751C20.6593 28.8751 19.3875 28.8407 18.15 28.7376C17.3937 27.6376 16.7062 26.5376 16.0875 25.4376C15.4343 24.3032 14.8156 23.1344 14.2656 22.0001C14.8156 20.8657 15.4343 19.6969 16.0875 18.5626C16.7062 17.4626 17.4281 16.3626 18.1843 15.2626C19.4562 15.1594 20.7281 15.1251 22.0343 15.1251C23.375 15.1251 24.6468 15.1594 25.8843 15.2626C26.6406 16.3626 27.3281 17.4626 27.9468 18.5626C28.5999 19.6969 29.2187 20.8657 29.7687 22.0001C29.1843 23.1344 28.5999 24.2688 27.9468 25.4376ZM30.8 24.3032C31.3156 25.5063 31.7281 26.6751 32.1062 27.8438C30.9375 28.1188 29.7 28.3251 28.3937 28.4969C28.8062 27.8438 29.2531 27.1563 29.6312 26.4344C30.0437 25.7126 30.4218 24.9907 30.8 24.3032ZM22 33.6188C21.175 32.7251 20.3843 31.7626 19.6281 30.7657C20.4187 30.8001 21.2093 30.8344 22 30.8344C22.7906 30.8344 23.5812 30.8001 24.3718 30.7657C23.6156 31.7626 22.825 32.7251 22 33.6188ZM15.6062 28.4626C14.3 28.2907 13.0625 28.0844 11.8937 27.8094C12.2718 26.6751 12.6843 25.4719 13.2 24.2688C13.5781 24.9563 13.9562 25.6782 14.3687 26.3657C14.7812 27.1219 15.1937 27.7751 15.6062 28.4626ZM13.2 19.6969C12.6843 18.4938 12.2718 17.3251 11.8937 16.1563C13.0625 15.8813 14.3 15.6751 15.6062 15.5032C15.1937 16.1563 14.7468 16.8438 14.3687 17.5657C13.9562 18.2876 13.5781 19.0094 13.2 19.6969ZM22 10.3813C22.825 11.2751 23.6156 12.2376 24.3718 13.2344C23.5812 13.2001 22.7906 13.1657 22 13.1657C21.2093 13.1657 20.4187 13.2001 19.6281 13.2344C20.3843 12.2376 21.175 11.2751 22 10.3813ZM29.6312 17.6001L28.3937 15.5376C29.7 15.7094 30.9375 15.9157 32.1062 16.1907C31.7281 17.3251 31.3156 18.5282 30.8 19.7313C30.4218 19.0094 30.0437 18.2876 29.6312 17.6001ZM10.8968 12.0313C10.3125 8.42193 10.7937 5.87818 12.2031 5.05318C12.5468 4.84693 12.9593 4.74381 13.4062 4.74381C15.4687 4.74381 18.0468 6.42818 20.625 8.97193C19.4218 10.2782 18.2187 11.7907 17.05 13.4407C15.0562 13.6126 13.1656 13.9219 11.3781 14.3001C11.1718 13.5094 11.0343 12.7532 10.8968 12.0313ZM2.4062 22.0001C2.4062 20.3844 4.36558 18.6657 7.80308 17.3938C8.49058 17.1188 9.24683 16.8782 10.0031 16.6719C10.5531 18.3907 11.2406 20.2126 12.0656 22.0344C11.2406 23.8563 10.5187 25.6438 10.0031 27.3626C5.25933 25.9876 2.4062 23.9251 2.4062 22.0001ZM12.2031 38.9469C10.7937 38.1219 10.3125 35.5782 10.8968 31.9688C11 31.2469 11.1718 30.4907 11.3781 29.7001C13.1656 30.1126 15.0562 30.3876 17.05 30.5594C18.2187 32.2094 19.4218 33.6876 20.625 35.0282C18.0812 37.5376 15.5031 39.2563 13.4062 39.2563C12.9593 39.2563 12.5468 39.1532 12.2031 38.9469ZM33.1031 31.9688C33.6874 35.5782 33.2062 38.1219 31.7968 38.9469C31.4531 39.1532 31.0406 39.2563 30.5937 39.2563C28.5312 39.2563 25.9531 37.5719 23.375 35.0282C24.5781 33.7219 25.7812 32.2094 26.95 30.5594C28.9437 30.3876 30.8343 30.0782 32.6218 29.7001C32.8281 30.4907 32.9656 31.2469 33.1031 31.9688ZM36.1969 26.6063C35.5094 26.8813 34.7531 27.1219 33.9968 27.3282C33.4468 25.6094 32.7593 23.7876 31.9343 21.9657C32.7593 20.1438 33.4812 18.3563 33.9968 16.6376C38.7406 18.0126 41.5937 20.0751 41.5937 22.0001C41.5937 23.6157 39.6 25.3344 36.1969 26.6063Z" fill="#809DBE"/>
</svg>
