<svg width="40" height="14" viewBox="0 0 40 14" fill="none" xmlns="http://www.w3.org/2000/svg">
<path d="M3.36968 9.61381C3.14006 9.576 2.5519 9.42991 2.06343 9.2955L1.17553 9.04697L1.63099 8.21062L2.08749 7.37256L1.71968 6.91744C1.19856 6.27428 0.526869 4.86181 0.523088 4.40634C0.517588 3.34312 1.89809 1.80278 3.5914 0.974344C4.75534 0.403719 5.67934 0.389969 6.83812 0.93275L7.71228 1.34216L7.96596 0.979844C8.10312 0.781156 8.21862 0.519219 8.21862 0.403719C8.21862 0.289594 8.33378 0.1875 8.47093 0.1875C8.60912 0.1875 8.72462 0.225312 8.72462 0.266562C8.72462 0.367281 7.70815 2.93475 7.64387 2.99938C7.61568 3.02619 7.34034 2.89728 7.02752 2.71338C6.14409 2.19363 5.03481 1.8485 4.17543 1.82581C2.17481 1.77459 1.47906 3.72985 2.89152 5.44206L3.38859 6.04363L4.74606 4.945C6.26887 3.71644 6.44349 3.68825 7.63012 4.50706C8.96387 5.42694 8.98656 6.826 7.69887 8.28831C6.55762 9.59113 5.38543 9.95344 3.36968 9.61381ZM6.78312 8.21062C7.44656 7.69087 7.39946 6.72941 6.6824 5.96559C5.78006 5.00928 5.49921 5.04984 3.91349 6.375C2.33568 7.69088 2.3264 7.64 4.21153 8.24294C5.45934 8.64684 6.24068 8.63756 6.78277 8.21062H6.78312ZM19.5985 13.2796C19.1485 13.1146 17.9333 12.6123 16.8942 12.1624C14.0878 10.9376 13.6928 10.9149 12.8551 11.9314C12.6616 12.1665 12.4509 12.314 12.3904 12.2538C12.2116 12.0737 12.7451 11.2143 13.3896 10.6492C13.9132 10.1886 14.0875 10.1239 14.6677 10.1886C15.0355 10.2298 16.2593 10.6571 17.3868 11.1366C19.9302 12.2174 20.6754 12.447 21.6462 12.447C22.828 12.447 23.4347 11.6186 23.0628 10.5203C22.97 10.2436 22.9985 10.1525 23.1824 10.1525C23.5275 10.1525 23.7021 11.4398 23.4536 12.1799C23.3474 12.4979 23.0401 12.9478 22.7689 13.1733C22.3632 13.5147 22.1054 13.5883 21.3468 13.5831C20.8366 13.5831 20.0498 13.4446 19.5985 13.2796V13.2796ZM13.0445 9.34672C11.9995 8.85928 11.057 7.92978 10.5145 6.84353C9.64449 5.10622 9.91159 3.99144 11.5578 2.48753C12.9424 1.22253 14.0741 0.731313 15.5969 0.731313C16.6969 0.731313 16.9306 0.790438 17.6436 1.22803C19.3327 2.27131 19.7501 4.26403 18.7336 6.4355C17.5428 8.98269 15.0262 10.2717 13.0445 9.34672V9.34672ZM16.5398 8.13672C17.3221 7.75 17.8598 5.96559 17.6394 4.48438C17.3627 2.65803 14.8936 1.41194 13.0806 2.18434C11.2182 2.98047 11.19 5.10072 13.0215 7.01025C14.2999 8.34881 15.3996 8.70219 16.5398 8.13672V8.13672ZM20.0859 9.68222C20.0859 9.60453 20.376 9.466 20.7346 9.37869L21.3829 9.21781L21.5214 6.88134C21.673 4.29634 21.5627 1.75191 21.2822 1.41228C21.1814 1.29266 20.8731 1.14484 20.5922 1.08056C19.452 0.827906 20.2107 0.65225 22.4237 0.65225C24.6351 0.65225 25.3401 0.813125 24.2862 1.08056C23.3797 1.30606 23.3756 1.31947 23.3756 5.00963C23.3756 7.05563 23.4495 8.59734 23.5543 8.79466C23.7021 9.06966 23.9222 9.1305 24.7695 9.1305C26.5178 9.1305 27.1194 8.71663 27.5934 7.18488C27.7357 6.72425 28.1035 6.80744 27.976 7.27184C27.9155 7.48841 27.8189 8.146 27.7598 8.74378L27.6484 9.82453H23.8672C21.7885 9.82453 20.0859 9.76025 20.0859 9.68222ZM28.6742 9.57188C28.6742 9.43369 28.8086 9.2955 29.0289 9.19066C29.3228 9.05247 29.5163 8.76234 30.2159 7.39697C31.3234 5.23375 33.0717 1.52228 33.2385 0.965063C33.3657 0.54225 33.3942 0.519219 33.872 0.464219C34.1487 0.431906 34.3783 0.412999 34.3838 0.422624C34.3876 0.431906 34.7688 1.26825 35.2336 2.28609C35.8985 3.72658 36.5843 5.15731 37.2909 6.57781C38.4119 8.83625 38.537 9.03906 38.9141 9.22297C39.1437 9.33297 39.3239 9.50381 39.3239 9.60453C39.3239 9.76541 39.1252 9.78328 37.4236 9.78328C35.7172 9.78328 35.5237 9.76541 35.5237 9.59903C35.5237 9.48903 35.6715 9.36941 35.9053 9.29138C36.1211 9.22297 36.2879 9.09406 36.2879 8.99747C36.2879 8.90466 36.0624 8.29794 35.7856 7.64928L35.2848 6.46781H31.4847L31.122 7.26806C30.4414 8.76647 30.4266 9.12088 31.0618 9.29138C31.3798 9.37869 31.4675 9.44744 31.4297 9.59078C31.3881 9.75578 31.2227 9.77881 30.0265 9.77881C28.7443 9.78844 28.6742 9.77881 28.6742 9.57222V9.57188ZM34.9032 5.85009C34.9679 5.73597 33.5365 2.61266 33.4035 2.58034C33.3069 2.55216 31.8257 5.60706 31.8257 5.83669C31.8257 5.95219 34.8335 5.96559 34.9032 5.85009Z" fill="#809DBE"/>
</svg>
