<?xml version="1.0" encoding="UTF-8"?>
<svg id="Layer_1" data-name="Layer 1" xmlns="http://www.w3.org/2000/svg" viewBox="0 0 1272.53 219.2">
  <defs>
    <style>
      .cls-1 {
        fill: none;
        stroke: #fff;
        stroke-width: 4px;
      }
    </style>
  </defs>
  <polygon class="cls-1" points="368.36 48.38 368.36 83.41 429.89 83.41 429.89 129.79 368.36 129.79 368.36 166.08 433.36 166.08 433.36 212.47 313.77 212.47 313.77 24.22 233.62 212.47 191.02 212.47 121.59 47.09 121.59 48.38 56.59 48.38 56.59 83.41 118.12 83.41 118.12 129.79 56.59 129.79 56.59 166.08 121.59 166.08 121.59 212.47 2 212.47 2 2 162.3 2 212.79 130.11 263.91 2 433.36 2 433.36 48.38 368.36 48.38"/>
  <path class="cls-1" d="M972.02,2v120.85c0,22.09-.95,45.13-23.67,68.16-17.67,17.99-39.76,26.19-69.42,26.19-33.13,0-56.8-11.36-69.74-25.24-18.3-19.88-20.51-46.7-20.51-69.11V48.38h-37.55v164.09h-54.59V48.38h-37.56v164.09h-54.59l-100.66-128.75v128.75h-54.59V2h54.59l100.66,128.74V2h238.88v124.64c0,8.83.32,22.4,10.73,32.5,6.31,6,16.41,10.1,25.88,10.1s19.24-3.79,25.24-9.15c12.62-11.05,12.31-26.51,12.31-38.18V2h54.59Z"/>
  <path class="cls-1" d="M1270.53,48.38V2h-119.59v199.34l-57.43-75.02c9.78-1.89,20.82-6.62,29.03-14.51,10.41-10.1,16.72-25.88,16.72-43.86,0-16.73-5.99-35.03-17.98-47.34-15.47-16.09-35.66-18.61-51.44-18.61h-85.2v210.47h54.59v-80.78l52.38,80.78h178.92v-46.39h-65v-36.29h61.53v-46.38h-61.53v-35.03h65ZM1076.15,87.83c-6.63,6.31-18.3,8.52-26.51,8.52h-10.41v-52.07h10.41c12,0,21.15,3.16,26.2,8.2,4.73,4.42,7.25,11.36,7.25,17.68s-2.84,13.56-6.94,17.67Z"/>
</svg>